<svg width="296" height="296" viewBox="0 0 296 296" fill="none" xmlns="http://www.w3.org/2000/svg">
<path d="M43.1452 117.735C43.417 116.781 42.8638 115.787 41.9097 115.515C40.9556 115.243 39.9618 115.796 39.69 116.75L43.1452 117.735ZM48.9061 200.891C49.379 201.762 50.4694 202.086 51.3414 201.613C52.2136 201.14 52.5372 200.05 52.0643 199.178L48.9061 200.891ZM255.289 116.75C255.017 115.796 254.023 115.243 253.069 115.515C252.115 115.787 251.561 116.781 251.833 117.735L255.289 116.75ZM242.915 199.178C242.441 200.05 242.765 201.14 243.637 201.613C244.51 202.086 245.6 201.762 246.072 200.891L242.915 199.178ZM236.153 147.524C236.153 196.472 196.472 236.153 147.524 236.153V239.746C198.457 239.746 239.746 198.457 239.746 147.524H236.153ZM147.524 236.153C98.575 236.153 58.894 196.472 58.894 147.524H55.3013C55.3013 198.457 96.5907 239.746 147.524 239.746V236.153ZM58.894 147.524C58.894 98.5748 98.575 58.8938 147.524 58.8938V55.3011C96.5907 55.3011 55.3013 96.5905 55.3013 147.524H58.894ZM147.524 58.8938C196.472 58.8938 236.153 98.5748 236.153 147.524H239.746C239.746 96.5905 198.457 55.3011 147.524 55.3011V58.8938ZM277.854 147.524C277.854 219.503 219.503 277.854 147.524 277.854V281.446C221.487 281.446 281.447 221.487 281.447 147.524H277.854ZM147.524 277.854C75.5441 277.854 17.1934 219.503 17.1934 147.524H13.6008C13.6008 221.487 73.5604 281.446 147.524 281.446V277.854ZM17.1934 147.524C17.1934 75.5439 75.5441 17.1932 147.524 17.1932V13.6006C73.5604 13.6006 13.6008 73.5602 13.6008 147.524H17.1934ZM147.524 17.1932C219.503 17.1932 277.854 75.5439 277.854 147.524H281.447C281.447 73.5602 221.487 13.6006 147.524 13.6006V17.1932ZM39.006 147.524C39.006 137.191 40.4497 127.198 43.1452 117.735L39.69 116.75C36.9042 126.531 35.4134 136.855 35.4134 147.524H39.006ZM52.0643 199.178C43.7363 183.82 39.006 166.227 39.006 147.524H35.4134C35.4134 166.84 40.3 185.02 48.9061 200.891L52.0643 199.178ZM259.565 147.524C259.565 136.855 258.074 126.531 255.289 116.75L251.833 117.735C254.529 127.198 255.973 137.191 255.973 147.524H259.565ZM246.072 200.891C254.679 185.02 259.565 166.84 259.565 147.524H255.973C255.973 166.227 251.243 183.82 242.915 199.178L246.072 200.891Z" fill="#FFFEF8"/>
<path d="M43.1452 117.735C43.417 116.781 42.8638 115.787 41.9097 115.515C40.9556 115.243 39.9618 115.796 39.69 116.75L43.1452 117.735ZM48.9061 200.891C49.379 201.762 50.4694 202.086 51.3414 201.613C52.2136 201.14 52.5372 200.05 52.0643 199.178L48.9061 200.891ZM255.289 116.75C255.017 115.796 254.023 115.243 253.069 115.515C252.115 115.787 251.561 116.781 251.833 117.735L255.289 116.75ZM242.915 199.178C242.441 200.05 242.765 201.14 243.637 201.613C244.51 202.086 245.6 201.762 246.072 200.891L242.915 199.178ZM236.153 147.524C236.153 196.472 196.472 236.153 147.524 236.153V239.746C198.457 239.746 239.746 198.457 239.746 147.524H236.153ZM147.524 236.153C98.575 236.153 58.894 196.472 58.894 147.524H55.3013C55.3013 198.457 96.5907 239.746 147.524 239.746V236.153ZM58.894 147.524C58.894 98.5748 98.575 58.8938 147.524 58.8938V55.3011C96.5907 55.3011 55.3013 96.5905 55.3013 147.524H58.894ZM147.524 58.8938C196.472 58.8938 236.153 98.5748 236.153 147.524H239.746C239.746 96.5905 198.457 55.3011 147.524 55.3011V58.8938ZM277.854 147.524C277.854 219.503 219.503 277.854 147.524 277.854V281.446C221.487 281.446 281.447 221.487 281.447 147.524H277.854ZM147.524 277.854C75.5441 277.854 17.1934 219.503 17.1934 147.524H13.6008C13.6008 221.487 73.5604 281.446 147.524 281.446V277.854ZM17.1934 147.524C17.1934 75.5439 75.5441 17.1932 147.524 17.1932V13.6006C73.5604 13.6006 13.6008 73.5602 13.6008 147.524H17.1934ZM147.524 17.1932C219.503 17.1932 277.854 75.5439 277.854 147.524H281.447C281.447 73.5602 221.487 13.6006 147.524 13.6006V17.1932ZM39.006 147.524C39.006 137.191 40.4497 127.198 43.1452 117.735L39.69 116.75C36.9042 126.531 35.4134 136.855 35.4134 147.524H39.006ZM52.0643 199.178C43.7363 183.82 39.006 166.227 39.006 147.524H35.4134C35.4134 166.84 40.3 185.02 48.9061 200.891L52.0643 199.178ZM259.565 147.524C259.565 136.855 258.074 126.531 255.289 116.75L251.833 117.735C254.529 127.198 255.973 137.191 255.973 147.524H259.565ZM246.072 200.891C254.679 185.02 259.565 166.84 259.565 147.524H255.973C255.973 166.227 251.243 183.82 242.915 199.178L246.072 200.891Z" fill="#FFFEF8"/>
<path d="M209.064 108.959L209.026 109.727L209.045 109.729H209.064V108.959ZM202.416 101.438L201.652 101.533V101.533L202.416 101.438ZM205.548 101.709L204.784 101.804V101.805L205.548 101.709ZM195.536 112.95L194.816 113.222L194.849 113.308L194.9 113.383L195.536 112.95ZM86.0738 116.948L86.1181 117.717L86.1367 117.716L86.1559 117.714L86.0738 116.948ZM99.5065 122.518L100.176 122.897L100.222 122.817L100.247 122.728L99.5065 122.518ZM208.921 117.37L208.903 118.14L208.922 118.141L208.941 118.14L208.921 117.37ZM203.626 110.016L202.866 110.131V110.131L203.626 110.016ZM207.161 110.539L206.399 110.654H206.4L207.161 110.539ZM195.463 152.327L194.895 152.848L195.124 153.097H195.463V152.327ZM113.345 179.465L112.58 179.376L112.507 180.002L113.106 180.197L113.345 179.465ZM137.403 180.876L137.407 181.646L138.119 181.641L138.17 180.932L137.403 180.876ZM138.686 180.78L137.916 180.778L137.914 181.568L138.704 181.549L138.686 180.78ZM160.915 178.919L161 179.684L161.762 179.6L161.681 178.838L160.915 178.919ZM199.472 176.931L199.844 177.604L200.295 177.355L200.237 176.844L199.472 176.931ZM111.099 124.035L110.369 124.278L110.539 124.788L111.076 124.804L111.099 124.035ZM110.746 144.051L110.99 144.781L111.454 144.627L111.511 144.14L110.746 144.051ZM100.578 144.051L99.9081 143.672L99.3173 144.714L100.511 144.818L100.578 144.051ZM97.9469 151.269L98.3979 151.893L98.6257 151.728L98.6943 151.455L97.9469 151.269ZM96.2154 152.52L95.7644 151.896L95.5437 152.055L95.4725 152.317L96.2154 152.52ZM156.04 155.663L155.27 155.655V155.659V155.663H156.04ZM122.23 159.288L121.551 158.924L121.543 158.94L121.536 158.955L122.23 159.288ZM165.285 164.647C164.861 164.679 164.543 165.049 164.575 165.473C164.607 165.896 164.976 166.214 165.4 166.183L165.285 164.647ZM198.354 163.241C198.704 162.999 198.792 162.52 198.55 162.171C198.308 161.82 197.829 161.733 197.478 161.975L198.354 163.241ZM191.742 166.636C191.318 166.672 191.003 167.044 191.039 167.468C191.075 167.891 191.447 168.206 191.87 168.171L191.742 166.636ZM198.704 166.786C199.072 166.573 199.197 166.101 198.984 165.734C198.77 165.366 198.299 165.241 197.931 165.455L198.704 166.786ZM97.5928 152.181C97.9713 152.455 98.9606 153.001 100.033 153.001V151.461C99.4116 151.461 98.7373 151.109 98.4955 150.934L97.5928 152.181ZM100.033 153.001H106.063V151.461H100.033V153.001ZM106.063 153.001C106.832 153.001 107.223 153.11 107.398 153.202C107.476 153.243 107.491 153.269 107.485 153.261C107.478 153.25 107.476 153.238 107.476 153.241L109.013 153.145C108.978 152.592 108.661 152.125 108.113 151.838C107.614 151.577 106.931 151.461 106.063 151.461V153.001ZM107.476 153.241C107.507 153.723 107.475 157.902 107.475 159.031H109.014C109.014 157.979 109.047 153.691 109.013 153.145L107.476 153.241ZM107.475 159.031C107.475 159.308 107.473 159.507 107.459 159.667C107.446 159.827 107.425 159.89 107.417 159.91C107.415 159.915 107.417 159.908 107.426 159.898C107.43 159.892 107.435 159.889 107.439 159.885C107.442 159.881 107.444 159.88 107.444 159.88C107.44 159.883 107.39 159.913 107.233 159.943L107.524 161.455C107.784 161.405 108.051 161.323 108.287 161.168C108.54 161.003 108.719 160.78 108.831 160.519C108.935 160.277 108.975 160.022 108.994 159.792C109.013 159.561 109.014 159.3 109.014 159.031H107.475ZM107.233 159.943C107.077 159.973 106.502 160.028 105.633 160.098C104.791 160.166 103.738 160.244 102.677 160.325C101.619 160.405 100.554 160.487 99.6958 160.564C98.8752 160.637 98.1554 160.712 97.8571 160.787L98.2305 162.28C98.3819 162.242 98.949 162.177 99.8324 162.097C100.679 162.022 101.735 161.94 102.793 161.86C103.85 161.78 104.91 161.702 105.756 161.633C106.575 161.567 107.263 161.506 107.524 161.455L107.233 159.943ZM97.8571 160.787C97.5171 160.871 97.2547 160.923 97.0699 160.953C96.8736 160.985 96.7889 160.988 96.7928 160.988V162.528C97.0064 162.528 97.4953 162.464 98.2305 162.28L97.8571 160.787ZM103.873 108.714C107.475 107.311 109.075 106.567 114.758 105.841L114.563 104.313C108.697 105.063 106.962 105.859 103.314 107.279L103.873 108.714ZM114.758 105.841C120.532 105.103 123.2 104.658 131.603 104.242L131.527 102.704C123.058 103.123 120.337 103.575 114.563 104.313L114.758 105.841ZM131.603 104.242C135.798 104.035 146.372 103.946 156.3 103.955C161.26 103.958 166.052 103.987 169.794 104.035C173.564 104.085 176.211 104.155 176.931 104.238L177.106 102.709C176.288 102.614 173.537 102.545 169.814 102.496C166.063 102.447 161.266 102.419 156.301 102.415C146.382 102.407 135.769 102.494 131.527 102.704L131.603 104.242ZM176.931 104.238C178.957 104.47 187.28 104.934 194.181 105.41L194.287 103.874C187.318 103.393 179.088 102.935 177.106 102.709L176.931 104.238ZM194.181 105.41C196.578 105.576 198.81 105.744 200.564 105.904L200.705 104.371C198.933 104.209 196.688 104.041 194.287 103.874L194.181 105.41ZM200.564 105.904C201.534 105.993 202.35 106.079 202.964 106.161L203.167 104.635C202.522 104.549 201.682 104.461 200.705 104.371L200.564 105.904ZM202.964 106.161C205.491 106.497 208.156 106.889 210.216 107.213C211.245 107.375 212.121 107.52 212.752 107.631C213.067 107.687 213.317 107.734 213.491 107.77C213.579 107.788 213.641 107.802 213.68 107.812C213.7 107.817 213.706 107.819 213.703 107.818C213.702 107.817 213.693 107.815 213.679 107.809C213.669 107.805 213.634 107.792 213.59 107.767L214.354 106.43C214.269 106.381 214.188 106.356 214.167 106.35C214.13 106.338 214.091 106.328 214.056 106.319C213.986 106.301 213.899 106.282 213.802 106.262C213.607 106.221 213.341 106.172 213.02 106.115C212.376 106.001 211.49 105.855 210.455 105.692C208.384 105.367 205.708 104.973 203.167 104.635L202.964 106.161ZM213.59 107.767C213.626 107.787 213.616 107.79 213.592 107.757C213.57 107.726 213.523 107.644 213.523 107.515H215.063C215.063 107.003 214.707 106.631 214.354 106.43L213.59 107.767ZM213.523 107.515C213.523 107.508 213.523 107.506 213.523 107.507C213.523 107.508 213.523 107.511 213.522 107.516C213.521 107.527 213.518 107.539 213.516 107.55C213.515 107.555 213.514 107.559 213.513 107.561C213.512 107.564 213.512 107.563 213.513 107.561C213.514 107.559 213.516 107.552 213.522 107.543C213.527 107.534 213.535 107.52 213.549 107.502L214.78 108.426C214.919 108.241 214.982 108.039 215.013 107.909C215.047 107.771 215.063 107.631 215.063 107.515H213.523ZM213.549 107.502C213.549 107.502 213.542 107.511 213.524 107.53C213.508 107.548 213.486 107.57 213.458 107.597C213.402 107.65 213.33 107.711 213.248 107.771C213.075 107.898 212.903 107.985 212.769 108.017L213.122 109.516C213.533 109.419 213.895 109.206 214.157 109.013C214.418 108.823 214.647 108.603 214.78 108.426L213.549 107.502ZM212.769 108.017C212.574 108.062 212.142 108.109 211.473 108.141C210.824 108.173 210.003 108.189 209.064 108.189V109.729C210.018 109.729 210.865 109.713 211.547 109.679C212.209 109.648 212.772 109.598 213.122 109.516L212.769 108.017ZM209.102 108.189C205.645 108.019 198.499 107.67 197.668 107.644L197.62 109.183C198.432 109.208 205.555 109.556 209.026 109.727L209.102 108.189ZM197.668 107.644C196.672 107.613 189.864 107.323 188.326 107.291L188.294 108.83C189.836 108.862 196.564 109.15 197.62 109.183L197.668 107.644ZM188.326 107.291C186.776 107.259 175.306 107.291 166.465 107.291V108.83C175.332 108.83 186.765 108.798 188.294 108.83L188.326 107.291ZM166.465 107.291H130.539V108.83H166.465V107.291ZM130.539 107.291C126.188 107.291 119.194 107.584 116.896 107.709L116.98 109.246C119.267 109.122 126.229 108.83 130.539 108.83V107.291ZM116.896 107.709C114.516 107.837 112.66 107.967 110.442 108.293L110.666 109.816C112.812 109.501 114.612 109.374 116.98 109.246L116.896 107.709ZM100.417 111.086C100.589 110.695 101.166 109.768 103.873 108.714L103.314 107.279C100.405 108.412 99.4084 109.557 99.0081 110.465L100.417 111.086ZM110.442 108.293C109.682 108.405 107.653 108.878 105.59 109.378C103.507 109.883 101.327 110.43 100.233 110.701L100.604 112.196C101.703 111.923 103.875 111.378 105.953 110.874C108.053 110.366 109.995 109.915 110.666 109.816L110.442 108.293ZM194.44 105.388C194.464 105.379 194.491 105.369 194.518 105.358L193.949 103.927C193.93 103.935 193.913 103.941 193.9 103.946L194.44 105.388ZM194.518 105.358C194.627 105.315 194.774 105.252 194.915 105.179C195.03 105.121 195.236 105.011 195.388 104.859L194.3 103.77C194.329 103.74 194.343 103.735 194.316 103.753C194.294 103.766 194.261 103.785 194.217 103.807C194.129 103.852 194.028 103.896 193.949 103.927L194.518 105.358ZM195.388 104.859C195.547 104.699 196.736 103.577 197.11 103.29L196.172 102.069C195.711 102.423 194.461 103.609 194.3 103.77L195.388 104.859ZM197.11 103.29C197.606 102.908 198.001 102.494 198.771 102.123L198.104 100.735C197.142 101.199 196.51 101.809 196.172 102.069L197.11 103.29ZM198.771 102.123C199.24 101.897 199.631 101.69 200.035 101.525C200.433 101.363 200.736 101.292 200.973 101.301L201.035 99.7628C200.47 99.7403 199.923 99.909 199.454 100.099C198.993 100.288 198.501 100.544 198.104 100.735L198.771 102.123ZM200.973 101.301C201.166 101.309 201.303 101.319 201.402 101.329C201.504 101.34 201.546 101.351 201.558 101.354C201.561 101.356 201.541 101.349 201.518 101.333C201.504 101.324 201.504 101.32 201.55 101.365L202.639 100.277C202.509 100.147 202.328 99.977 201.998 99.8789C201.745 99.8038 201.428 99.7788 201.035 99.7628L200.973 101.301ZM201.55 101.365C201.572 101.388 201.601 101.423 201.624 101.462C201.634 101.481 201.641 101.497 201.646 101.508C201.65 101.521 201.651 101.526 201.651 101.526L203.179 101.336C203.118 100.843 202.831 100.469 202.639 100.277L201.55 101.365ZM201.651 101.526L201.652 101.533L203.18 101.343L203.179 101.336L201.651 101.526ZM201.652 101.533C201.669 101.673 201.659 101.648 201.667 101.618C201.677 101.58 201.683 101.619 201.55 101.752L202.638 102.842C202.886 102.593 203.069 102.33 203.153 102.021C203.234 101.72 203.194 101.457 203.18 101.343L201.652 101.533ZM201.55 101.752C201.364 101.938 201.093 102.186 200.791 102.474C200.524 102.731 200.204 103.044 200.027 103.287L201.272 104.193C201.352 104.083 201.563 103.867 201.856 103.586C202.116 103.337 202.439 103.04 202.638 102.842L201.55 101.752ZM200.027 103.287C199.921 103.432 199.743 103.665 199.628 103.889C199.515 104.109 199.343 104.547 199.576 105.014L200.953 104.326C201.002 104.422 201.005 104.516 200.997 104.573C200.99 104.618 200.979 104.628 200.998 104.592C201.015 104.559 201.045 104.51 201.096 104.437C201.147 104.363 201.201 104.291 201.272 104.193L200.027 103.287ZM199.576 105.014C199.735 105.333 199.997 105.599 200.117 105.707L201.153 104.569C201.131 104.549 201.087 104.506 201.042 104.451C200.994 104.394 200.965 104.349 200.953 104.326L199.576 105.014ZM200.117 105.707C200.125 105.715 200.133 105.723 200.142 105.73L201.156 104.572C201.156 104.571 201.155 104.571 201.153 104.569L200.117 105.707ZM204.106 101.58C204.299 101.587 204.436 101.597 204.535 101.608C204.636 101.619 204.679 101.629 204.691 101.633C204.695 101.634 204.675 101.627 204.651 101.611C204.637 101.601 204.637 101.598 204.683 101.644L205.772 100.556C205.643 100.425 205.461 100.255 205.131 100.157C204.877 100.082 204.562 100.057 204.168 100.041L204.106 101.58ZM204.683 101.644C204.705 101.666 204.734 101.702 204.757 101.741C204.768 101.759 204.775 101.775 204.779 101.787C204.784 101.799 204.784 101.805 204.784 101.804L206.312 101.614C206.251 101.121 205.964 100.747 205.772 100.556L204.683 101.644ZM204.784 101.805L204.785 101.812L206.313 101.621L206.312 101.614L204.784 101.805ZM204.785 101.811C204.802 101.951 204.792 101.927 204.8 101.896C204.81 101.859 204.816 101.897 204.683 102.031L205.771 103.12C206.019 102.872 206.202 102.608 206.286 102.299C206.368 101.999 206.327 101.736 206.313 101.621L204.785 101.811ZM204.683 102.031C204.496 102.217 204.226 102.464 203.925 102.752C203.657 103.008 203.337 103.322 203.161 103.565L204.405 104.471C204.485 104.361 204.695 104.146 204.989 103.865C205.25 103.616 205.572 103.318 205.771 103.12L204.683 102.031ZM203.161 103.565C203.055 103.71 202.876 103.943 202.761 104.168C202.648 104.387 202.475 104.825 202.709 105.292L204.086 104.604C204.135 104.701 204.138 104.794 204.13 104.851C204.124 104.896 204.112 104.907 204.131 104.871C204.148 104.837 204.178 104.788 204.228 104.715C204.28 104.641 204.334 104.569 204.405 104.471L203.161 103.565ZM202.709 105.292C202.876 105.626 203.157 105.905 203.275 106.009L204.29 104.85C204.276 104.839 204.232 104.796 204.183 104.739C204.131 104.678 204.099 104.63 204.086 104.604L202.709 105.292ZM202.731 101.998C203.33 101.714 203.768 101.566 204.106 101.58L204.168 100.041C203.413 100.01 202.665 100.325 202.073 100.606L202.731 101.998ZM196.257 112.679C196.159 112.419 195.979 111.819 195.272 111.151C194.591 110.507 193.467 109.836 191.554 109.215L191.078 110.679C192.865 111.259 193.757 111.838 194.214 112.27C194.644 112.676 194.724 112.978 194.816 113.222L196.257 112.679ZM191.554 109.215C187.773 107.987 185.995 107.692 180.154 107.284L180.046 108.819C185.818 109.223 187.46 109.504 191.078 110.679L191.554 109.215ZM91.7137 112.294C91.5584 112.324 91.4032 112.354 91.2473 112.384L91.5404 113.895C91.6951 113.865 91.8497 113.836 92.0036 113.806L91.7137 112.294ZM91.2473 112.384C88.7946 112.859 86.2599 113.383 84.3109 113.807C83.337 114.019 82.5062 114.207 81.9038 114.35C81.6029 114.421 81.3546 114.483 81.1711 114.532C81.0807 114.556 80.9985 114.579 80.9318 114.6C80.8991 114.611 80.8625 114.624 80.826 114.637C80.8061 114.645 80.7284 114.674 80.6483 114.726L81.4874 116.017C81.4457 116.044 81.413 116.059 81.4027 116.064C81.3886 116.071 81.3796 116.074 81.3777 116.075C81.3738 116.076 81.379 116.074 81.3969 116.068C81.4322 116.057 81.4887 116.041 81.5708 116.019C81.7325 115.975 81.9647 115.918 82.2598 115.848C82.8488 115.708 83.6687 115.522 84.638 115.312C86.5762 114.89 89.0994 114.368 91.5404 113.895L91.2473 112.384ZM80.6483 114.726C80.307 114.948 79.9733 115.339 80.0029 115.851L81.54 115.762C81.5471 115.891 81.5047 115.976 81.4842 116.008C81.4624 116.042 81.4528 116.039 81.4874 116.017L80.6483 114.726ZM80.0029 115.851C80.0093 115.966 80.0337 116.105 80.0747 116.242C80.1132 116.369 80.1876 116.567 80.3365 116.744L81.5137 115.751C81.5278 115.768 81.5368 115.782 81.5426 115.791C81.5483 115.8 81.5509 115.805 81.5522 115.808C81.5535 115.81 81.5535 115.81 81.5522 115.808C81.5516 115.806 81.5503 115.802 81.5483 115.797C81.5451 115.786 81.5426 115.774 81.5406 115.764C81.54 115.759 81.5394 115.755 81.5394 115.755C81.5387 115.753 81.5394 115.755 81.54 115.762L80.0029 115.851ZM80.3365 116.744C80.4795 116.913 80.7214 117.12 80.9915 117.295C81.2648 117.471 81.6388 117.664 82.0545 117.736L82.3208 116.22C82.1854 116.196 82.0083 116.119 81.8287 116.002C81.7434 115.947 81.6683 115.89 81.6093 115.841C81.5804 115.816 81.5567 115.794 81.5387 115.777C81.5208 115.759 81.5131 115.751 81.5137 115.751L80.3365 116.744ZM82.0545 117.736C82.4087 117.799 82.9739 117.816 83.6366 117.81C84.3192 117.804 85.166 117.772 86.1181 117.717L86.0296 116.179C85.0922 116.233 84.2717 116.265 83.6225 116.27C82.952 116.277 82.5184 116.255 82.3208 116.22L82.0545 117.736ZM86.1559 117.714C89.6113 117.344 96.7023 116.589 97.5113 116.517L97.3753 114.983C96.5477 115.057 89.4342 115.814 85.9917 116.183L86.1559 117.714ZM97.5113 116.517C98.5647 116.423 105.265 115.751 106.803 115.63L106.682 114.096C105.149 114.216 98.3684 114.895 97.3753 114.983L97.5113 116.517ZM106.803 115.63C108.327 115.511 119.744 114.889 128.596 114.38L128.507 112.843C119.681 113.349 108.228 113.974 106.682 114.096L106.803 115.63ZM128.596 114.38C132.99 114.128 140.853 114.061 148.182 114.026C155.482 113.991 162.275 113.988 164.463 113.863L164.375 112.326C162.24 112.448 155.519 112.451 148.175 112.486C140.861 112.521 132.951 112.589 128.507 112.843L128.596 114.38ZM164.463 113.863C168.766 113.616 175.733 113.509 178.024 113.501L178.019 111.962C175.718 111.969 168.719 112.076 164.375 112.326L164.463 113.863ZM178.024 113.501C180.394 113.494 182.199 113.517 184.359 113.709L184.495 112.175C182.264 111.977 180.402 111.953 178.019 111.962L178.024 113.501ZM184.359 113.709C185.236 113.787 187.899 113.87 190.356 113.943C191.595 113.979 192.791 114.013 193.707 114.042C194.165 114.056 194.55 114.07 194.835 114.081C194.977 114.087 195.091 114.093 195.175 114.097C195.273 114.103 195.296 114.106 195.281 114.105L195.517 112.583C195.405 112.565 195.16 112.554 194.898 112.543C194.606 112.531 194.215 112.517 193.756 112.503C192.838 112.474 191.637 112.44 190.402 112.404C187.91 112.331 185.314 112.249 184.495 112.175L184.359 113.709ZM195.281 114.105C195.435 114.128 195.71 114.148 195.975 113.994C196.303 113.803 196.406 113.48 196.413 113.247C196.418 113.046 196.36 112.88 196.32 112.787C196.277 112.682 196.222 112.59 196.173 112.517L194.9 113.383C194.903 113.388 194.904 113.39 194.901 113.383C194.899 113.378 194.892 113.363 194.887 113.339C194.881 113.315 194.872 113.269 194.874 113.206C194.876 113.141 194.889 113.041 194.945 112.933C195.004 112.818 195.095 112.724 195.202 112.662C195.301 112.604 195.39 112.588 195.44 112.583C195.466 112.58 195.485 112.581 195.497 112.582C195.509 112.582 195.516 112.583 195.517 112.583L195.281 114.105ZM94.4678 111.844C93.3637 112.006 92.4194 112.159 91.7137 112.294L92.0036 113.806C92.6766 113.677 93.5953 113.528 94.6924 113.367L94.4678 111.844ZM100.394 110.649C97.8186 111.285 96.1532 111.595 94.4678 111.844L94.6924 113.367C96.429 113.111 98.1426 112.791 100.763 112.144L100.394 110.649ZM100.959 110.608C100.89 110.591 100.772 110.559 100.662 110.52C100.607 110.5 100.563 110.483 100.532 110.468C100.493 110.45 100.506 110.452 100.541 110.48L99.5874 111.688C99.7715 111.833 100.02 111.926 100.151 111.972C100.316 112.03 100.482 112.077 100.591 112.104L100.959 110.608ZM100.541 110.48C100.362 110.339 98.9824 109.306 98.4839 109.009L97.6942 110.33C98.099 110.572 99.4103 111.549 99.5874 111.688L100.541 110.48ZM98.4839 109.009C98.1182 108.79 97.4189 108.257 96.4091 107.909L95.9081 109.365C96.7164 109.643 97.1572 110.01 97.6942 110.33L98.4839 109.009ZM96.4091 107.909C95.9928 107.766 95.4744 107.568 94.9932 107.435C94.5063 107.3 93.9437 107.196 93.3849 107.285L93.6255 108.806C93.8596 108.769 94.1689 108.805 94.5833 108.919C95.0035 109.035 95.416 109.196 95.9081 109.365L96.4091 107.909ZM93.3849 107.285C92.9961 107.346 92.685 107.408 92.4425 107.513C92.1255 107.649 91.9651 107.839 91.8516 107.983L93.0603 108.937C93.1 108.886 93.1007 108.889 93.0879 108.9C93.0667 108.92 93.0474 108.928 93.0506 108.927C93.0622 108.921 93.1033 108.906 93.2027 108.884C93.3002 108.861 93.4343 108.836 93.6255 108.806L93.3849 107.285ZM91.8516 107.983C91.6835 108.195 91.4423 108.6 91.4384 109.097L92.9782 109.108C92.9782 109.108 92.9781 109.102 92.9814 109.09C92.9846 109.077 92.9897 109.061 92.998 109.041C93.016 109 93.0404 108.961 93.0603 108.937L91.8516 107.983ZM91.4384 109.097V109.104L92.9782 109.115V109.108L91.4384 109.097ZM91.4384 109.104C91.4378 109.219 91.4282 109.485 91.5443 109.775C91.6636 110.071 91.876 110.312 92.1512 110.529L93.1052 109.321C92.9576 109.204 92.9589 109.165 92.973 109.201C92.9852 109.23 92.9775 109.256 92.9782 109.115L91.4384 109.104ZM92.1512 110.529C92.3719 110.704 92.7273 110.962 93.0154 111.178C93.3393 111.423 93.5729 111.613 93.6652 111.712L94.7963 110.667C94.5923 110.446 94.2388 110.173 93.9424 109.949C93.6094 109.698 93.3118 109.484 93.1052 109.321L92.1512 110.529ZM93.6652 111.712C93.7474 111.801 93.8096 111.867 93.8693 111.935C93.9283 112.001 93.9636 112.046 93.9847 112.077C94.0072 112.111 93.9944 112.102 93.9834 112.057C93.9687 112.002 93.961 111.909 93.9976 111.807L95.4462 112.33C95.6232 111.839 95.4006 111.424 95.2633 111.22C95.1228 111.01 94.9182 110.799 94.7963 110.667L93.6652 111.712ZM93.9976 111.807C93.9879 111.834 93.9623 111.886 93.918 111.952C93.8757 112.015 93.8365 112.062 93.8243 112.075L94.9669 113.108C95.0722 112.991 95.3192 112.682 95.4462 112.33L93.9976 111.807ZM90.3055 107.926C89.9167 107.988 89.6055 108.05 89.363 108.154C89.0468 108.29 88.8857 108.48 88.7722 108.624L89.9808 109.578C90.0206 109.528 90.0213 109.531 90.0084 109.542C89.9873 109.561 89.9687 109.569 89.9712 109.568C89.9834 109.563 90.0245 109.548 90.1233 109.525C90.2208 109.503 90.3555 109.478 90.5467 109.448L90.3055 107.926ZM88.7722 108.624C88.6041 108.837 88.3629 109.242 88.3597 109.739L89.8987 109.75C89.8987 109.75 89.8994 109.744 89.9019 109.732C89.9051 109.719 89.9103 109.703 89.9186 109.683C89.9366 109.641 89.9616 109.603 89.9808 109.578L88.7722 108.624ZM88.3597 109.738L88.359 109.745L89.8987 109.757V109.75L88.3597 109.738ZM88.359 109.745C88.3584 109.861 88.3487 110.127 88.4655 110.416C88.5842 110.713 88.7965 110.954 89.0724 111.171L90.0258 109.962C89.8782 109.845 89.8795 109.806 89.8942 109.843C89.9058 109.872 89.8981 109.897 89.8987 109.757L88.359 109.745ZM89.0724 111.171C89.2925 111.345 89.6479 111.603 89.9359 111.82C90.2599 112.064 90.4941 112.254 90.5858 112.354L91.7169 111.309C91.5129 111.088 91.1594 110.814 90.863 110.591C90.5307 110.34 90.233 110.126 90.0258 109.962L89.0724 111.171ZM90.5858 112.354C90.6679 112.443 90.7302 112.508 90.7905 112.576C90.8489 112.642 90.8841 112.687 90.9053 112.719C90.9278 112.752 90.9156 112.743 90.904 112.699C90.8893 112.644 90.8816 112.551 90.9181 112.449L92.3668 112.972C92.5438 112.481 92.3212 112.066 92.1839 111.861C92.0434 111.651 91.8388 111.441 91.7169 111.309L90.5858 112.354ZM90.9181 112.449C90.9124 112.466 90.897 112.499 90.8687 112.546C90.8418 112.59 90.811 112.634 90.7841 112.669L92.0036 113.609C92.1063 113.476 92.2699 113.24 92.3668 112.972L90.9181 112.449ZM90.7841 112.669C90.7642 112.696 90.7501 112.712 90.7456 112.717L91.8875 113.749C91.9234 113.709 91.9632 113.662 92.0036 113.609L90.7841 112.669ZM92.4521 108.243C91.8311 108.034 91.0522 107.808 90.3055 107.926L90.5467 109.448C90.8809 109.394 91.3326 109.491 91.9607 109.702L92.4521 108.243ZM100.247 122.728C100.318 122.479 100.373 122.171 100.768 121.73C101.187 121.262 102.028 120.61 103.76 119.884L103.163 118.464C101.309 119.243 100.246 120.005 99.6207 120.703C98.9708 121.428 98.8419 122.041 98.7655 122.308L100.247 122.728ZM103.76 119.884C107.324 118.387 108.904 117.601 114.566 116.726L114.331 115.205C108.487 116.107 106.773 116.949 103.163 118.464L103.76 119.884ZM114.566 116.726C120.318 115.837 122.974 115.322 131.363 114.686L131.247 113.151C122.791 113.791 120.083 114.316 114.331 115.205L114.566 116.726ZM131.363 114.686C135.551 114.369 146.119 114.004 156.044 113.751C161.003 113.625 165.792 113.528 169.535 113.478C173.305 113.429 175.953 113.43 176.676 113.494L176.81 111.96C175.989 111.888 173.238 111.89 169.515 111.939C165.764 111.988 160.967 112.086 156.005 112.212C146.089 112.464 135.481 112.83 131.247 113.151L131.363 114.686ZM176.676 113.494C178.245 113.632 183.531 113.808 189.009 114.016C194.523 114.225 200.24 114.467 202.75 114.734L202.912 113.203C200.338 112.929 194.555 112.685 189.068 112.478C183.545 112.268 178.329 112.094 176.81 111.96L176.676 113.494ZM202.75 114.734C205.285 115.003 207.959 115.325 210.026 115.595C211.06 115.73 211.94 115.851 212.573 115.946C212.89 115.994 213.14 116.034 213.315 116.066C213.404 116.082 213.466 116.094 213.505 116.103C213.525 116.107 213.532 116.109 213.529 116.108C213.527 116.108 213.518 116.106 213.504 116.1C213.493 116.097 213.459 116.084 213.414 116.06L214.143 114.704C214.057 114.658 213.975 114.634 213.954 114.629C213.916 114.618 213.877 114.608 213.842 114.6C213.771 114.584 213.684 114.568 213.587 114.55C213.391 114.515 213.123 114.472 212.801 114.424C212.154 114.327 211.265 114.204 210.225 114.068C208.147 113.797 205.461 113.473 202.912 113.203L202.75 114.734ZM213.414 116.06C213.45 116.079 213.441 116.082 213.416 116.05C213.393 116.02 213.344 115.939 213.341 115.81L214.88 115.77C214.866 115.257 214.501 114.896 214.143 114.704L213.414 116.06ZM213.341 115.81C213.34 115.803 213.34 115.801 213.34 115.802C213.34 115.803 213.34 115.807 213.339 115.812C213.339 115.822 213.337 115.834 213.334 115.845C213.334 115.85 213.332 115.854 213.332 115.857C213.331 115.859 213.331 115.859 213.332 115.857C213.333 115.854 213.336 115.848 213.34 115.839C213.345 115.829 213.353 115.815 213.366 115.797L214.621 116.688C214.755 116.5 214.813 116.295 214.841 116.165C214.87 116.026 214.882 115.885 214.88 115.77L213.341 115.81ZM213.366 115.797C213.366 115.796 213.359 115.806 213.343 115.825C213.327 115.844 213.305 115.867 213.278 115.894C213.223 115.948 213.153 116.011 213.073 116.073C212.903 116.204 212.733 116.297 212.6 116.331L212.992 117.82C213.4 117.713 213.757 117.491 214.014 117.292C214.269 117.094 214.493 116.869 214.621 116.688L213.366 115.797ZM212.6 116.331C212.406 116.383 211.976 116.44 211.308 116.49C210.66 116.539 209.84 116.576 208.901 116.601L208.941 118.14C209.894 118.115 210.741 118.076 211.422 118.026C212.083 117.976 212.644 117.912 212.992 117.82L212.6 116.331ZM208.939 116.601C205.478 116.521 198.326 116.359 197.495 116.354L197.487 117.894C198.3 117.899 205.429 118.06 208.903 118.14L208.939 116.601ZM197.495 116.354C196.498 116.349 189.684 116.238 188.147 116.247L188.155 117.786C189.697 117.778 196.43 117.889 197.487 117.894L197.495 116.354ZM188.147 116.247C186.596 116.255 175.131 116.588 166.294 116.82L166.333 118.359C175.197 118.126 186.625 117.795 188.155 117.786L188.147 116.247ZM166.294 116.82L130.379 117.761L130.419 119.301L166.333 118.359L166.294 116.82ZM130.379 117.761C126.029 117.876 119.045 118.353 116.752 118.537L116.876 120.072C119.159 119.889 126.111 119.414 130.419 119.301L130.379 117.761ZM116.752 118.537C114.376 118.728 112.524 118.907 110.316 119.291L110.58 120.807C112.717 120.436 114.513 120.262 116.876 120.072L116.752 118.537ZM110.316 119.291C109.431 119.445 106.803 120.144 104.398 120.8C101.948 121.469 99.7048 122.1 99.4956 122.151L99.8575 123.647C100.095 123.59 102.399 122.942 104.803 122.286C107.253 121.617 109.787 120.946 110.58 120.807L110.316 119.291ZM99.4956 122.151C99.4963 122.15 99.5027 122.149 99.5149 122.147C99.5271 122.146 99.5463 122.144 99.572 122.144C99.622 122.145 99.7118 122.153 99.8164 122.203C99.928 122.256 100.026 122.341 100.095 122.452C100.16 122.556 100.181 122.653 100.188 122.717C100.196 122.781 100.19 122.828 100.187 122.851C100.183 122.876 100.178 122.891 100.176 122.896C100.174 122.904 100.174 122.901 100.176 122.897L98.8361 122.14C98.7925 122.216 98.7463 122.313 98.7117 122.421C98.6809 122.517 98.636 122.688 98.6578 122.887C98.6834 123.119 98.8137 123.432 99.1569 123.594C99.434 123.726 99.7054 123.684 99.8575 123.647L99.4956 122.151ZM195.758 114.177C195.862 114.135 196.02 114.065 196.175 113.984C196.298 113.92 196.531 113.793 196.692 113.623L195.575 112.563C195.606 112.531 195.619 112.527 195.583 112.551C195.554 112.569 195.513 112.592 195.461 112.62C195.358 112.674 195.246 112.723 195.18 112.75L195.758 114.177ZM196.692 113.623C196.847 113.459 198.006 112.306 198.372 112.009L197.401 110.813C196.95 111.179 195.732 112.398 195.575 112.563L196.692 113.623ZM198.372 112.009C198.857 111.614 199.241 111.189 200.001 110.797L199.297 109.428C198.348 109.917 197.732 110.544 197.401 110.813L198.372 112.009ZM200.001 110.797C200.464 110.559 200.849 110.342 201.249 110.167C201.642 109.994 201.944 109.915 202.18 109.918L202.202 108.378C201.636 108.37 201.094 108.553 200.63 108.757C200.174 108.957 199.689 109.227 199.297 109.428L200.001 110.797ZM202.18 109.918C202.374 109.92 202.511 109.926 202.61 109.934C202.712 109.942 202.755 109.952 202.767 109.955C202.77 109.956 202.75 109.95 202.726 109.934C202.712 109.925 202.712 109.922 202.759 109.967L203.819 108.85C203.685 108.723 203.499 108.558 203.166 108.469C202.912 108.4 202.595 108.383 202.202 108.378L202.18 109.918ZM202.759 109.967C202.781 109.988 202.812 110.022 202.835 110.062C202.846 110.079 202.854 110.095 202.858 110.107C202.864 110.119 202.864 110.124 202.864 110.124L204.387 109.893C204.312 109.402 204.015 109.036 203.819 108.85L202.759 109.967ZM202.864 110.124L202.866 110.131L204.388 109.9L204.387 109.893L202.864 110.124ZM202.866 110.131C202.871 110.166 202.874 110.188 202.876 110.207C202.878 110.225 202.879 110.234 202.879 110.238C202.879 110.241 202.879 110.239 202.88 110.232C202.88 110.226 202.882 110.219 202.883 110.212L204.367 110.623C204.457 110.3 204.406 110.022 204.387 109.9L202.866 110.131ZM200.063 114.204C200.062 114.205 200.063 114.203 200.068 114.198C200.072 114.194 200.079 114.188 200.086 114.18C200.102 114.165 200.122 114.146 200.147 114.122C200.197 114.074 200.261 114.013 200.338 113.942C200.49 113.799 200.684 113.62 200.887 113.435C201.3 113.059 201.722 112.681 201.906 112.531L200.935 111.336C200.507 111.684 199.129 112.95 198.946 113.144L200.063 114.204ZM201.906 112.531C202.391 112.137 202.775 111.712 203.535 111.321L202.832 109.952C201.881 110.44 201.266 111.067 200.935 111.336L201.906 112.531ZM205.715 110.441C205.908 110.443 206.045 110.449 206.144 110.457C206.246 110.466 206.289 110.475 206.301 110.479C206.304 110.479 206.284 110.473 206.26 110.458C206.246 110.449 206.246 110.445 206.293 110.489L207.353 109.372C207.22 109.246 207.034 109.081 206.701 108.991C206.446 108.923 206.129 108.907 205.736 108.902L205.715 110.441ZM206.293 110.489C206.316 110.511 206.346 110.546 206.37 110.584C206.381 110.603 206.388 110.618 206.393 110.63C206.398 110.642 206.399 110.648 206.399 110.647L207.921 110.416C207.847 109.925 207.549 109.559 207.353 109.372L206.293 110.489ZM206.399 110.647L206.399 110.654L207.922 110.423L207.921 110.416L206.399 110.647ZM206.4 110.654C206.42 110.794 206.409 110.769 206.417 110.739C206.426 110.701 206.433 110.74 206.303 110.876L207.42 111.936C207.662 111.681 207.838 111.413 207.913 111.103C207.986 110.799 207.939 110.538 207.922 110.423L206.4 110.654ZM206.303 110.876C206.122 111.067 205.858 111.322 205.565 111.618C205.303 111.881 204.992 112.203 204.822 112.451L206.091 113.323C206.168 113.212 206.372 112.99 206.658 112.702C206.912 112.446 207.227 112.14 207.42 111.936L206.303 110.876ZM204.822 112.451C204.72 112.599 204.548 112.836 204.439 113.064C204.332 113.287 204.171 113.729 204.417 114.189L205.776 113.465C205.826 113.561 205.832 113.654 205.826 113.711C205.821 113.756 205.81 113.766 205.827 113.73C205.844 113.696 205.872 113.646 205.921 113.573C205.97 113.496 206.022 113.423 206.091 113.323L204.822 112.451ZM204.417 114.189C204.593 114.519 204.881 114.79 205.002 114.89L205.985 113.705C205.971 113.694 205.926 113.653 205.875 113.596C205.822 113.537 205.789 113.49 205.776 113.465L204.417 114.189ZM203.535 111.321C203.708 111.232 203.885 111.138 204.049 111.051L203.333 109.688C203.158 109.781 202.996 109.867 202.832 109.952L203.535 111.321ZM204.049 111.051C204.781 110.668 205.3 110.435 205.715 110.441L205.736 108.902C204.861 108.889 203.986 109.346 203.333 109.688L204.049 111.051ZM182.622 117.866C183.769 118.41 185.503 119.247 186.98 119.993C187.72 120.365 188.388 120.712 188.886 120.986C189.135 121.124 189.332 121.238 189.47 121.325C189.539 121.368 189.584 121.399 189.609 121.418C189.656 121.453 189.603 121.422 189.543 121.339L190.796 120.444C190.704 120.316 190.584 120.225 190.534 120.186C190.461 120.133 190.377 120.077 190.291 120.022C190.115 119.911 189.888 119.78 189.629 119.637C189.107 119.35 188.419 118.994 187.674 118.618C186.181 117.865 184.435 117.022 183.282 116.475L182.622 117.866ZM189.543 121.339C189.542 121.337 189.552 121.35 189.573 121.389C189.594 121.425 189.619 121.471 189.65 121.53C189.711 121.648 189.786 121.8 189.871 121.979C190.041 122.336 190.243 122.783 190.45 123.243C190.853 124.144 191.284 125.13 191.47 125.502L192.847 124.813C192.68 124.48 192.277 123.557 191.855 122.613C191.648 122.151 191.44 121.692 191.261 121.317C191.098 120.974 190.924 120.624 190.796 120.444L189.543 121.339ZM191.47 125.502C191.666 125.894 192.111 126.604 192.476 127.2C192.667 127.511 192.842 127.8 192.972 128.031C193.038 128.147 193.086 128.238 193.119 128.306C193.163 128.397 193.146 128.381 193.133 128.31L194.648 128.035C194.619 127.877 194.547 127.722 194.506 127.636C194.452 127.526 194.386 127.402 194.313 127.274C194.167 127.016 193.979 126.706 193.789 126.395C193.392 125.747 193.004 125.127 192.847 124.813L191.47 125.502ZM193.133 128.31C193.161 128.468 193.213 128.628 193.312 128.776C193.36 128.849 193.409 128.902 193.446 128.938C193.462 128.954 193.477 128.968 193.482 128.973C193.489 128.98 193.487 128.978 193.483 128.974C193.471 128.961 193.441 128.931 193.412 128.884C193.382 128.838 193.364 128.794 193.353 128.76C193.337 128.706 193.346 128.694 193.346 128.782H194.885C194.885 128.63 194.874 128.466 194.825 128.307C194.799 128.222 194.762 128.138 194.711 128.058C194.66 127.979 194.608 127.922 194.572 127.885C194.475 127.789 194.561 127.874 194.593 127.922C194.644 127.999 194.652 128.054 194.648 128.035L193.133 128.31ZM193.346 128.782C193.346 129.251 193.344 130.622 193.481 131.614L195.006 131.404C194.887 130.536 194.885 129.276 194.885 128.782H193.346ZM193.481 131.614C193.542 132.055 193.819 135.414 194.126 138.855C194.278 140.562 194.438 142.276 194.579 143.629C194.649 144.304 194.715 144.894 194.775 145.35C194.83 145.774 194.888 146.159 194.952 146.366L196.422 145.907C196.422 145.909 196.418 145.893 196.408 145.85C196.4 145.809 196.39 145.755 196.379 145.686C196.356 145.549 196.33 145.37 196.301 145.152C196.245 144.715 196.18 144.14 196.11 143.469C195.97 142.128 195.812 140.423 195.66 138.718C195.358 135.335 195.074 131.893 195.006 131.404L193.481 131.614ZM194.952 146.366C195.102 146.845 195.391 148.06 195.663 149.226C195.797 149.799 195.925 150.353 196.025 150.775C196.075 150.986 196.119 151.169 196.154 151.307C196.172 151.376 196.188 151.437 196.202 151.488C196.211 151.521 196.233 151.6 196.263 151.668L197.678 151.061C197.695 151.102 197.699 151.122 197.684 151.072C197.675 151.04 197.663 150.992 197.647 150.929C197.614 150.802 197.573 150.629 197.523 150.42C197.424 150.001 197.298 149.454 197.162 148.876C196.897 147.741 196.593 146.454 196.422 145.907L194.952 146.366ZM196.263 151.668C196.369 151.917 196.547 152.062 196.683 152.144C196.746 152.182 196.805 152.209 196.84 152.224C196.857 152.232 196.875 152.239 196.884 152.243C196.895 152.248 196.899 152.25 196.9 152.25C196.906 152.253 196.877 152.241 196.836 152.212C196.793 152.182 196.721 152.122 196.662 152.023C196.599 151.917 196.572 151.806 196.569 151.709C196.567 151.621 196.585 151.559 196.592 151.538L198.053 152.025C198.116 151.839 198.164 151.532 197.982 151.23C197.829 150.974 197.589 150.872 197.537 150.849C197.517 150.839 197.498 150.831 197.486 150.826C197.471 150.82 197.466 150.817 197.459 150.815C197.446 150.809 197.457 150.813 197.475 150.824C197.521 150.852 197.619 150.925 197.678 151.061L196.263 151.668ZM196.592 151.538C196.623 151.448 196.664 151.4 196.668 151.395C196.675 151.387 196.671 151.394 196.645 151.414C196.594 151.457 196.509 151.513 196.394 151.58C196.165 151.712 195.898 151.835 195.721 151.915L196.358 153.317C196.534 153.237 196.861 153.087 197.162 152.914C197.31 152.828 197.475 152.724 197.618 152.608C197.731 152.516 197.955 152.32 198.053 152.025L196.592 151.538ZM195.721 151.915C195.781 151.888 195.785 151.897 195.625 151.926C195.502 151.947 195.329 151.974 195.107 152.003C194.664 152.062 194.058 152.131 193.322 152.211C191.858 152.371 189.892 152.572 187.773 152.813L187.947 154.343C190.063 154.102 192.01 153.904 193.489 153.742C194.225 153.662 194.847 153.591 195.31 153.53C195.54 153.499 195.739 153.469 195.896 153.442C196.016 153.42 196.211 153.384 196.358 153.317L195.721 151.915ZM187.773 152.813C185.676 153.052 180.945 153.419 176.672 153.716C174.539 153.864 172.526 153.995 171.022 154.082C170.269 154.125 169.647 154.158 169.201 154.176C168.978 154.186 168.803 154.192 168.681 154.194C168.619 154.194 168.577 154.194 168.551 154.194C168.496 154.192 168.549 154.19 168.626 154.208L168.28 155.708C168.383 155.731 168.491 155.733 168.516 155.733C168.57 155.735 168.636 155.734 168.706 155.733C168.848 155.731 169.037 155.724 169.265 155.715C169.723 155.695 170.355 155.663 171.11 155.619C172.622 155.531 174.641 155.401 176.778 155.252C181.046 154.956 185.81 154.586 187.947 154.343L187.773 152.813ZM168.626 154.208C168.728 154.231 168.91 154.36 168.91 154.617C168.91 154.739 168.862 154.88 168.749 154.987C168.635 155.097 168.511 155.118 168.454 155.118V153.578C168.187 153.578 167.908 153.663 167.688 153.872C167.471 154.079 167.371 154.354 167.371 154.617C167.371 155.154 167.761 155.588 168.28 155.708L168.626 154.208ZM168.454 155.118C168.9 155.118 172.359 154.956 175.367 154.763L175.269 153.227C172.246 153.42 168.84 153.578 168.454 153.578V155.118ZM175.367 154.763L175.588 154.749L175.49 153.213L175.269 153.227L175.367 154.763ZM175.588 154.749C177.302 154.64 181.548 154.369 185.562 154.09C187.568 153.951 189.519 153.809 191.068 153.685C192.592 153.562 193.781 153.453 194.219 153.374L193.947 151.858C193.602 151.921 192.508 152.024 190.944 152.15C189.405 152.274 187.46 152.415 185.455 152.554C181.446 152.833 177.204 153.104 175.49 153.213L175.588 154.749ZM194.219 153.374C194.863 153.258 195.239 153.183 195.45 153.136C195.542 153.116 195.64 153.092 195.715 153.066C195.733 153.059 195.782 153.042 195.837 153.012C195.862 152.999 195.925 152.964 195.991 152.904C196.029 152.871 196.243 152.678 196.247 152.338C196.251 151.921 195.953 151.713 195.853 151.657C195.744 151.596 195.646 151.577 195.616 151.572C195.541 151.557 195.479 151.557 195.463 151.557V153.097C195.455 153.097 195.4 153.098 195.331 153.084C195.304 153.079 195.208 153.061 195.1 153C195.001 152.945 194.703 152.738 194.708 152.322C194.711 151.984 194.925 151.792 194.961 151.76C195.026 151.701 195.087 151.668 195.109 151.656C195.158 151.629 195.197 151.616 195.203 151.614C195.227 151.606 195.215 151.611 195.114 151.634C194.937 151.673 194.586 151.743 193.947 151.858L194.219 153.374ZM196.03 151.807C196 151.775 195.928 151.688 195.852 151.572C195.775 151.455 195.71 151.335 195.674 151.234L194.224 151.752C194.4 152.245 194.74 152.679 194.895 152.848L196.03 151.807ZM195.674 151.234C195.687 151.271 195.683 151.267 195.661 151.158C195.644 151.073 195.623 150.954 195.597 150.804C195.546 150.503 195.481 150.091 195.408 149.598C195.259 148.613 195.077 147.314 194.899 145.952C194.54 143.203 194.212 140.285 194.212 139.143H192.672C192.672 140.408 193.017 143.44 193.372 146.152C193.551 147.521 193.735 148.83 193.885 149.827C193.96 150.324 194.026 150.747 194.08 151.061C194.106 151.218 194.13 151.351 194.151 151.455C194.166 151.536 194.191 151.659 194.224 151.752L195.674 151.234ZM194.212 139.143C194.212 137.877 193.97 135.705 193.643 133.705C193.478 132.699 193.289 131.719 193.093 130.902C192.904 130.113 192.687 129.388 192.447 128.954L191.101 129.702C191.227 129.929 191.404 130.461 191.595 131.261C191.781 132.031 191.962 132.972 192.123 133.953C192.447 135.93 192.672 138.004 192.672 139.143H194.212ZM192.447 128.954C192.092 128.316 191.495 127.493 190.844 126.754C190.205 126.029 189.439 125.299 188.733 124.926L188.014 126.288C188.462 126.524 189.076 127.077 189.688 127.772C190.288 128.452 190.813 129.185 191.101 129.702L192.447 128.954ZM188.733 124.926C186.549 123.773 184.239 123.744 182.895 123.845L183.01 125.38C184.232 125.289 186.203 125.332 188.014 126.288L188.733 124.926ZM182.895 123.845C181.638 123.939 165.749 124.388 164.989 124.388V125.928C165.769 125.928 181.7 125.479 183.01 125.38L182.895 123.845ZM169.572 154.323C169.712 152.828 169.975 149.3 169.896 147.293L168.357 147.353C168.432 149.247 168.179 152.681 168.04 154.181L169.572 154.323ZM169.896 147.293C169.802 144.909 169.64 137.196 169.313 134.774L167.786 134.98C168.101 137.305 168.259 144.861 168.357 147.353L169.896 147.293ZM169.313 134.774C169.155 133.606 169.062 132.253 168.943 131.014C168.885 130.407 168.819 129.828 168.735 129.339C168.657 128.878 168.547 128.398 168.357 128.056L167.011 128.804C167.061 128.894 167.139 129.14 167.218 129.599C167.292 130.029 167.353 130.562 167.41 131.162C167.523 132.337 167.623 133.775 167.786 134.98L169.313 134.774ZM168.357 128.056C168.256 127.875 168.162 127.658 168.026 127.356C167.898 127.071 167.742 126.738 167.541 126.404C167.131 125.724 166.521 125.024 165.506 124.606L164.921 126.03C165.542 126.286 165.927 126.708 166.222 127.199C166.374 127.451 166.499 127.715 166.623 127.99C166.739 128.247 166.87 128.551 167.011 128.804L168.357 128.056ZM165.506 124.606C165.142 124.456 164.84 124.292 164.522 124.115C164.21 123.942 163.865 123.746 163.466 123.573C162.636 123.214 161.622 122.976 159.953 122.976V124.516C161.46 124.516 162.258 124.728 162.855 124.986C163.17 125.122 163.442 125.277 163.774 125.461C164.099 125.642 164.467 125.843 164.921 126.03L165.506 124.606ZM159.953 122.976C158.328 122.976 156.292 123.132 154.433 123.284C152.545 123.438 150.866 123.586 149.881 123.586V125.126C150.948 125.126 152.717 124.968 154.558 124.818C156.428 124.666 158.402 124.516 159.953 124.516V122.976ZM133.986 124.197C132.936 124.263 128.468 124.831 124.191 125.479C122.046 125.804 119.93 126.153 118.296 126.474C117.481 126.635 116.773 126.79 116.237 126.935C115.97 127.007 115.731 127.08 115.536 127.156C115.438 127.193 115.34 127.235 115.249 127.284C115.168 127.327 115.046 127.399 114.939 127.511L116.049 128.578C115.991 128.638 115.949 128.655 115.974 128.642C115.99 128.634 116.026 128.616 116.088 128.593C116.212 128.545 116.395 128.487 116.638 128.421C117.123 128.29 117.791 128.143 118.593 127.985C120.195 127.671 122.285 127.326 124.422 127.002C128.71 126.351 133.112 125.795 134.083 125.733L133.986 124.197ZM114.939 127.511C114.837 127.617 114.769 127.737 114.729 127.814C114.682 127.903 114.637 128.002 114.596 128.105C114.512 128.311 114.423 128.57 114.329 128.868C114.142 129.466 113.923 130.266 113.687 131.2C113.216 133.072 112.668 135.518 112.157 138.045C111.646 140.571 111.17 143.187 110.844 145.399C110.523 147.571 110.33 149.453 110.43 150.447L111.962 150.294C111.885 149.524 112.04 147.836 112.367 145.623C112.688 143.448 113.159 140.86 113.666 138.35C114.174 135.84 114.716 133.419 115.181 131.577C115.413 130.655 115.623 129.887 115.799 129.329C115.887 129.049 115.962 128.834 116.023 128.683C116.053 128.607 116.076 128.558 116.091 128.53C116.112 128.49 116.1 128.525 116.049 128.578L114.939 127.511ZM110.43 150.447C110.784 153.996 111.685 160.684 112.584 166.275L114.104 166.03C113.208 160.458 112.312 153.802 111.962 150.294L110.43 150.447ZM112.584 166.275C113.286 170.633 112.877 176.818 112.58 179.376L114.109 179.553C114.411 176.958 114.84 170.602 114.104 166.03L112.584 166.275ZM113.106 180.197C114.544 180.665 118.381 181.593 122.476 181.646L122.496 180.106C118.585 180.056 114.903 179.163 113.583 178.733L113.106 180.197ZM122.476 181.646C126.488 181.697 134.105 181.667 137.407 181.646L137.398 180.106C134.093 180.127 126.491 180.158 122.496 180.106L122.476 181.646ZM138.17 180.932C138.322 178.849 138.532 173.183 138.171 167.037L136.634 167.128C136.991 173.198 136.782 178.797 136.635 180.82L138.17 180.932ZM149.881 123.586C148.526 123.586 143.068 123.79 138.878 123.967L138.942 125.505C143.151 125.328 148.568 125.126 149.881 125.126V123.586ZM138.878 123.967C136.616 124.063 134.703 124.151 133.986 124.197L134.083 125.733C134.781 125.689 136.676 125.601 138.942 125.505L138.878 123.967ZM138.171 167.037C137.815 160.987 139.025 136.379 139.679 124.78L138.142 124.693C137.491 136.235 136.271 160.964 136.634 167.128L138.171 167.037ZM139.007 124.666C138.624 131.522 137.864 146.151 137.916 149.548L139.455 149.524C139.404 146.199 140.159 131.646 140.545 124.752L139.007 124.666ZM137.916 149.548C137.967 152.901 137.937 171.758 137.916 180.778L139.456 180.782C139.477 171.773 139.507 152.895 139.455 149.524L137.916 149.548ZM138.704 181.549C140.981 181.496 146.706 181.26 151.408 180.743L151.24 179.213C146.601 179.723 140.924 179.957 138.667 180.01L138.704 181.549ZM151.408 180.743C156.079 180.23 159.749 179.823 161 179.684L160.83 178.154C159.58 178.293 155.91 178.699 151.24 179.213L151.408 180.743ZM161.681 178.838C161.532 177.434 161.331 175.262 161.212 173.31C161.153 172.333 161.114 171.422 161.112 170.693C161.112 170.328 161.12 170.019 161.137 169.775C161.157 169.515 161.184 169.385 161.196 169.347L159.736 168.86C159.659 169.092 159.623 169.383 159.602 169.663C159.58 169.96 159.572 170.312 159.573 170.697C159.575 171.468 159.615 172.414 159.675 173.404C159.796 175.385 159.999 177.582 160.149 179L161.681 178.838ZM161.196 169.347C161.25 169.186 161.379 168.999 161.631 168.771C161.884 168.542 162.209 168.32 162.594 168.069C162.962 167.83 163.393 167.56 163.779 167.27C164.167 166.979 164.561 166.631 164.855 166.202L163.584 165.333C163.428 165.562 163.185 165.791 162.855 166.038C162.523 166.287 162.156 166.516 161.754 166.778C161.37 167.029 160.952 167.309 160.6 167.628C160.248 167.946 159.907 168.347 159.736 168.86L161.196 169.347ZM164.855 166.202C165.949 164.6 165.872 162.673 164.887 160.957L163.552 161.725C164.298 163.024 164.286 164.305 163.584 165.333L164.855 166.202ZM164.887 160.957C164.55 160.372 164.309 159.235 164.423 158.146C164.54 157.041 164.976 156.307 165.659 156.069L165.153 154.615C163.623 155.148 163.032 156.658 162.892 157.984C162.75 159.325 163.022 160.802 163.552 161.725L164.887 160.957ZM165.659 156.069C166.526 155.768 167.138 155.595 167.543 155.5C167.747 155.453 167.892 155.427 167.987 155.414C168.104 155.398 168.101 155.409 168.037 155.401L168.228 153.873C168.079 153.854 167.913 153.87 167.779 153.889C167.624 153.909 167.43 153.946 167.195 154.001C166.722 154.111 166.057 154.301 165.153 154.615L165.659 156.069ZM196.302 151.994C196.192 152.331 196.141 152.971 196.172 153.89C196.204 154.847 196.328 156.193 196.628 158.002L198.146 157.751C197.856 155.992 197.74 154.714 197.711 153.839C197.696 153.401 197.704 153.07 197.72 152.833C197.729 152.714 197.739 152.624 197.749 152.559C197.76 152.49 197.768 152.464 197.767 152.468L196.302 151.994ZM196.628 158.002C196.992 160.201 197.31 163.287 197.575 166.131C197.838 168.952 198.049 171.557 198.195 172.728L199.723 172.537C199.58 171.398 199.375 168.854 199.108 165.989C198.844 163.148 198.52 160.011 198.146 157.751L196.628 158.002ZM198.195 172.728C198.425 174.572 198.633 176.356 198.707 177.017L200.237 176.844C200.162 176.179 199.954 174.388 199.723 172.537L198.195 172.728ZM199.1 176.257L197.881 176.931L198.626 178.278L199.844 177.604L199.1 176.257ZM160.221 179.202C160.673 179.845 161.136 180.341 161.835 180.636C162.496 180.913 163.283 180.972 164.284 180.972V179.433C163.294 179.433 162.783 179.363 162.433 179.216C162.122 179.086 161.863 178.86 161.481 178.316L160.221 179.202ZM164.284 180.972C165.11 180.972 166.376 180.89 167.585 180.81C168.819 180.729 169.993 180.652 170.699 180.652V179.112C169.929 179.112 168.691 179.195 167.484 179.274C166.252 179.355 165.048 179.433 164.284 179.433V180.972ZM172.074 173.623C171.554 174.423 171.02 175.295 170.608 176.138C170.204 176.962 169.874 177.837 169.834 178.623L171.371 178.702C171.395 178.237 171.609 177.592 171.99 176.815C172.363 176.056 172.856 175.244 173.365 174.464L172.074 173.623ZM169.834 178.623C169.82 178.89 169.784 179.343 169.798 179.717C169.804 179.904 169.824 180.133 169.891 180.346C169.947 180.527 170.114 180.93 170.574 181.068L171.016 179.593C171.162 179.637 171.256 179.725 171.305 179.79C171.329 179.82 171.342 179.846 171.35 179.861C171.357 179.876 171.36 179.885 171.36 179.885C171.36 179.885 171.359 179.88 171.356 179.869C171.353 179.857 171.351 179.841 171.348 179.821C171.342 179.78 171.339 179.726 171.336 179.661C171.326 179.377 171.354 179.044 171.371 178.702L169.834 178.623ZM170.574 181.068C170.779 181.13 171.323 181.257 171.96 181.349C172.59 181.441 173.39 181.509 174.077 181.414L173.864 179.889C173.397 179.954 172.769 179.911 172.18 179.825C171.598 179.741 171.132 179.628 171.016 179.593L170.574 181.068ZM174.077 181.414C174.629 181.337 175.253 181.258 175.776 181.1C176.295 180.944 176.897 180.661 177.219 180.047L175.855 179.332C175.824 179.391 175.72 179.509 175.333 179.626C174.95 179.741 174.467 179.805 173.864 179.889L174.077 181.414ZM177.219 180.047C177.324 179.845 177.421 179.615 177.511 179.406C177.605 179.185 177.697 178.968 177.806 178.746C178.022 178.305 178.285 177.882 178.666 177.525L177.615 176.401C177.045 176.933 176.683 177.536 176.423 178.069C176.293 178.333 176.186 178.588 176.094 178.803C175.998 179.028 175.926 179.197 175.855 179.332L177.219 180.047ZM178.666 177.525C179.135 177.087 179.506 176.809 179.939 176.612C180.376 176.413 180.927 176.274 181.778 176.189L181.625 174.657C180.68 174.751 179.947 174.917 179.302 175.211C178.653 175.506 178.142 175.908 177.615 176.401L178.666 177.525ZM181.778 176.189C184.357 175.931 188.035 175.615 189.336 175.615V174.076C187.942 174.076 184.178 174.402 181.625 174.657L181.778 176.189ZM189.336 175.615C190.442 175.615 191.231 176.146 191.547 176.507L192.706 175.494C192.123 174.828 190.924 174.076 189.336 174.076V175.615ZM191.547 176.507C191.74 176.729 191.909 177.013 192.231 177.462C192.516 177.859 192.888 178.329 193.379 178.679L194.274 177.427C193.997 177.229 193.744 176.929 193.482 176.565C193.259 176.253 192.961 175.785 192.706 175.494L191.547 176.507ZM193.379 178.679C193.552 178.803 193.87 179.067 194.311 179.229C194.774 179.399 195.329 179.453 196.069 179.363L195.882 177.835C195.307 177.904 195.012 177.846 194.842 177.784C194.649 177.713 194.55 177.624 194.274 177.427L193.379 178.679ZM196.069 179.363C196.739 179.281 197.313 179.189 197.754 179.089C197.974 179.039 198.177 178.983 198.349 178.919C198.493 178.866 198.72 178.771 198.894 178.597L197.805 177.509C197.883 177.432 197.929 177.433 197.815 177.475C197.73 177.507 197.598 177.545 197.412 177.588C197.044 177.671 196.528 177.756 195.882 177.835L196.069 179.363ZM198.894 178.597C198.953 178.538 199.104 178.388 199.177 178.149C199.25 177.909 199.209 177.697 199.185 177.589C199.161 177.482 199.12 177.345 199.084 177.224C199.044 177.087 198.994 176.913 198.936 176.68L197.442 177.053C197.507 177.312 197.563 177.508 197.606 177.656C197.654 177.819 197.673 177.881 197.682 177.924C197.691 177.967 197.657 177.854 197.704 177.701C197.75 177.55 197.842 177.471 197.805 177.509L198.894 178.597ZM198.936 176.68C198.659 175.572 198.47 175.095 197.65 173.553L196.29 174.277C197.074 175.751 197.206 176.107 197.442 177.053L198.936 176.68ZM197.65 173.553C196.39 171.186 194.676 169.712 193.344 169.028L192.641 170.398C193.682 170.933 195.173 172.176 196.29 174.277L197.65 173.553ZM193.344 169.028C192.433 168.56 191.547 168.127 190.502 167.836C189.449 167.543 188.264 167.401 186.736 167.468L186.803 169.007C188.194 168.945 189.214 169.076 190.089 169.319C190.972 169.566 191.739 169.935 192.641 170.398L193.344 169.028ZM186.736 167.468C183.866 167.595 182.324 167.563 180.248 168.032L180.588 169.534C182.49 169.104 183.835 169.137 186.803 169.007L186.736 167.468ZM180.248 168.032C178.294 168.473 176.677 168.824 175.253 170.103L176.281 171.248C177.359 170.281 178.564 169.99 180.588 169.534L180.248 168.032ZM175.253 170.103C174.248 171.005 173.103 172.046 172.074 173.623L173.365 174.464C174.274 173.07 175.285 172.143 176.281 171.248L175.253 170.103ZM114.496 119.166C114.224 119.413 113.762 119.812 113.273 120.197C112.773 120.593 112.291 120.937 111.965 121.105L112.671 122.474C113.14 122.232 113.722 121.806 114.228 121.405C114.746 120.996 115.235 120.574 115.529 120.307L114.496 119.166ZM111.965 121.105C111.537 121.326 111.22 121.409 110.919 121.507C110.796 121.548 110.572 121.622 110.385 121.764C110.277 121.846 110.165 121.962 110.085 122.121C110.005 122.281 109.977 122.444 109.977 122.592H111.516C111.516 122.643 111.505 122.724 111.46 122.814C111.416 122.903 111.357 122.959 111.319 122.988C111.271 123.025 111.254 123.018 111.4 122.97C111.636 122.892 112.105 122.766 112.671 122.474L111.965 121.105ZM109.977 122.592C109.977 122.862 110.064 123.231 110.134 123.493C110.213 123.79 110.306 124.09 110.369 124.278L111.829 123.791C111.775 123.627 111.691 123.36 111.623 123.1C111.589 122.97 111.56 122.849 111.54 122.749C111.519 122.638 111.516 122.592 111.516 122.592H109.977ZM111.076 124.804C111.217 124.809 111.461 124.829 111.698 124.875C111.815 124.898 111.918 124.924 111.998 124.952C112.086 124.983 112.113 125.004 112.105 124.998L113.044 123.778C112.723 123.531 112.285 123.42 111.99 123.363C111.661 123.3 111.333 123.272 111.122 123.265L111.076 124.804ZM112.105 124.998C112.33 125.171 112.606 125.376 112.835 125.628C113.073 125.889 113.152 126.085 113.152 126.216H114.692C114.692 125.513 114.305 124.955 113.974 124.591C113.633 124.218 113.236 123.925 113.044 123.778L112.105 124.998ZM113.152 126.216C113.152 126.553 113.128 127.041 113.145 127.363C113.154 127.542 113.177 127.756 113.247 127.961C113.319 128.174 113.463 128.436 113.75 128.609L114.542 127.288C114.669 127.365 114.705 127.466 114.705 127.466C114.705 127.467 114.7 127.453 114.695 127.419C114.69 127.386 114.686 127.341 114.682 127.283C114.676 127.161 114.677 127.015 114.682 126.828C114.686 126.65 114.692 126.436 114.692 126.216H113.152ZM113.75 128.609C113.961 128.734 114.261 128.843 114.486 128.917C114.733 128.999 114.982 129.07 115.14 129.11L115.527 127.62C115.396 127.586 115.18 127.525 114.97 127.456C114.737 127.379 114.589 127.316 114.542 127.288L113.75 128.609ZM110.51 123.787C110.43 123.916 110.281 124.156 110.165 124.399C110.107 124.519 110.043 124.668 110.003 124.824C109.975 124.932 109.899 125.249 110.057 125.566L111.435 124.877C111.498 125.003 111.5 125.11 111.5 125.149C111.498 125.194 111.492 125.216 111.493 125.209C111.498 125.194 111.514 125.147 111.552 125.066C111.628 124.908 111.736 124.732 111.816 124.603L110.51 123.787ZM111.345 126.331C111.464 126.441 111.62 126.566 111.633 126.577C111.661 126.601 111.622 126.571 111.595 126.515C111.581 126.486 111.595 126.5 111.616 126.649C111.636 126.791 111.654 127 111.679 127.331L113.214 127.218C113.19 126.891 113.169 126.636 113.141 126.438C113.114 126.245 113.075 126.042 112.985 125.854C112.882 125.637 112.744 125.502 112.636 125.41C112.515 125.305 112.499 125.301 112.393 125.203L111.345 126.331ZM111.679 127.331C111.684 127.399 111.679 127.623 111.652 128.036C111.626 128.427 111.585 128.94 111.53 129.547C111.422 130.76 111.264 132.337 111.084 134.044C110.725 137.459 110.281 141.387 109.982 143.962L111.511 144.14C111.81 141.561 112.255 137.627 112.615 134.205C112.796 132.495 112.955 130.909 113.064 129.684C113.119 129.071 113.161 128.545 113.188 128.136C113.213 127.75 113.229 127.413 113.214 127.218L111.679 127.331ZM110.503 143.321C110.181 143.428 109.168 143.683 107.988 143.731L108.051 145.27C109.386 145.215 110.541 144.931 110.99 144.781L110.503 143.321ZM107.988 143.731C106.793 143.78 102.628 143.458 100.645 143.284L100.511 144.818C102.44 144.987 106.731 145.324 108.051 145.27L107.988 143.731ZM110.057 125.566C110.155 125.76 110.301 125.878 110.418 125.945C110.527 126.008 110.632 126.041 110.696 126.058C110.762 126.076 110.829 126.089 110.872 126.098C110.923 126.107 110.956 126.114 110.992 126.122L111.335 124.621C111.271 124.606 111.208 124.594 111.169 124.587C111.122 124.577 111.106 124.574 111.099 124.572C111.089 124.569 111.131 124.578 111.188 124.612C111.253 124.65 111.361 124.73 111.435 124.877L110.057 125.566ZM110.992 126.122C111.014 126.127 111.068 126.144 111.14 126.184C111.21 126.222 111.282 126.273 111.345 126.331L112.393 125.203C112.078 124.911 111.687 124.702 111.335 124.621L110.992 126.122ZM101.248 144.43L111.833 125.751L110.493 124.992L99.9081 143.672L101.248 144.43ZM100.248 143.961C100.165 144.293 100.108 144.559 100.063 144.758C100.016 144.969 99.987 145.08 99.9582 145.159C99.9357 145.221 99.9203 145.243 99.903 145.263C99.878 145.293 99.8235 145.346 99.6868 145.442L100.57 146.703C100.754 146.574 100.929 146.434 101.076 146.261C101.231 146.079 101.332 145.889 101.406 145.685C101.473 145.5 101.52 145.295 101.565 145.095C101.613 144.883 101.664 144.643 101.742 144.334L100.248 143.961ZM99.6868 145.442C99.3763 145.659 99.1331 146.025 98.9567 146.33C98.763 146.666 98.5763 147.061 98.4101 147.45C98.0765 148.229 97.7962 149.048 97.6634 149.462L99.1293 149.932C99.2538 149.544 99.5181 148.775 99.826 148.055C99.98 147.694 100.139 147.361 100.29 147.101C100.365 146.97 100.432 146.869 100.489 146.795C100.55 146.716 100.579 146.696 100.57 146.703L99.6868 145.442ZM97.6634 149.462C97.4517 150.124 97.2675 150.814 97.2002 151.082L98.6943 151.455C98.7553 151.21 98.9304 150.553 99.1293 149.932L97.6634 149.462ZM97.4966 150.644L95.7644 151.896L96.6658 153.144L98.3979 151.893L97.4966 150.644ZM95.4725 152.317C95.366 152.707 95.1562 153.691 95.1562 154.605H96.6959C96.6959 153.877 96.8717 153.037 96.9577 152.722L95.4725 152.317ZM95.1562 154.605C95.1562 155.178 95.3416 156.887 95.5398 158.428C95.6406 159.212 95.7477 159.978 95.8427 160.569C95.8901 160.862 95.9357 161.122 95.9767 161.32C95.9973 161.419 96.0184 161.512 96.0409 161.592C96.0518 161.632 96.0653 161.678 96.082 161.724C96.0948 161.758 96.1262 161.841 96.184 161.928L97.4651 161.074C97.4921 161.115 97.5075 161.147 97.5145 161.161C97.5222 161.178 97.5261 161.19 97.528 161.194C97.5306 161.202 97.5293 161.2 97.5248 161.183C97.5152 161.149 97.5017 161.092 97.4844 161.008C97.4504 160.843 97.4087 160.61 97.3631 160.324C97.2714 159.755 97.1668 159.007 97.0667 158.231C96.864 156.653 96.6959 155.057 96.6959 154.605H95.1562ZM96.184 161.928C96.1679 161.904 96.1961 161.952 96.2892 162.15C96.3668 162.317 96.4714 162.546 96.5946 162.824C96.8409 163.379 97.161 164.119 97.4978 164.923C98.176 166.539 98.9093 168.379 99.2666 169.498L100.734 169.03C100.353 167.839 99.5951 165.942 98.9176 164.327C98.5769 163.515 98.2536 162.765 98.0015 162.199C97.8764 161.916 97.7673 161.676 97.6833 161.496C97.6133 161.348 97.5293 161.17 97.4651 161.074L96.184 161.928ZM99.2666 169.498C99.6278 170.629 100.002 172.397 100.494 174.3C100.968 176.133 101.552 178.087 102.326 179.353L103.64 178.55C103.003 177.507 102.465 175.771 101.984 173.915C101.522 172.129 101.11 170.208 100.734 169.03L99.2666 169.498ZM102.326 179.353C102.683 179.936 102.91 180.334 103.128 180.695C103.331 181.033 103.519 181.326 103.738 181.575C104.211 182.109 104.766 182.351 105.642 182.711L106.227 181.287C105.307 180.909 105.092 180.781 104.891 180.555C104.774 180.421 104.648 180.235 104.447 179.901C104.26 179.59 103.99 179.122 103.64 178.55L102.326 179.353ZM105.642 182.711C105.952 182.838 106.46 182.952 107.049 183.059C107.663 183.17 108.438 183.285 109.331 183.401C111.116 183.632 113.394 183.868 115.834 184.073C120.705 184.483 126.266 184.775 129.857 184.661L129.808 183.122C126.309 183.233 120.819 182.947 115.963 182.539C113.539 182.335 111.285 182.101 109.528 181.874C108.65 181.76 107.902 181.649 107.323 181.543C106.72 181.434 106.366 181.344 106.227 181.287L105.642 182.711ZM129.857 184.661C135.567 184.48 155.986 182.463 165.494 180.963L165.254 179.442C155.793 180.935 135.44 182.943 129.808 183.122L129.857 184.661ZM98.8239 165.45C98.3992 165.409 97.7038 165.383 96.9493 165.43C96.2045 165.476 95.3422 165.598 94.6167 165.886L95.1831 167.318C95.6893 167.117 96.3668 167.009 97.0462 166.967C97.716 166.924 98.3293 166.949 98.6744 166.983L98.8239 165.45ZM94.6167 165.886C93.8179 166.202 92.8941 166.631 92.0614 167.072C91.2428 167.506 90.4594 167.978 89.9757 168.388L90.9707 169.563C91.321 169.267 91.9812 168.857 92.7825 168.433C93.5697 168.016 94.4422 167.611 95.1831 167.318L94.6167 165.886ZM89.9757 168.388C89.5285 168.766 88.6856 169.569 87.9067 170.438C87.5167 170.874 87.1317 171.338 86.8174 171.783C86.5139 172.213 86.2323 172.685 86.1078 173.129L87.5892 173.547C87.6411 173.364 87.7964 173.067 88.0754 172.671C88.3436 172.292 88.6862 171.876 89.0538 171.466C89.7909 170.643 90.5839 169.89 90.9707 169.563L89.9757 168.388ZM86.1078 173.129C86.0571 173.308 86.0154 173.497 86.0084 173.679C86.002 173.849 86.0212 174.144 86.2342 174.399C86.4645 174.675 86.7725 174.731 86.9559 174.737C87.1317 174.742 87.2998 174.708 87.4153 174.68C87.9503 174.553 88.4167 174.346 89.109 174.332L89.0782 172.793C88.1672 172.811 87.3345 173.117 87.0592 173.182C86.9726 173.203 86.9688 173.196 87.006 173.197C87.0509 173.199 87.2536 173.217 87.4159 173.412C87.4884 173.499 87.5211 173.586 87.5353 173.645C87.5487 173.7 87.5475 173.735 87.5475 173.736C87.5468 173.74 87.5475 173.726 87.5539 173.691C87.5609 173.657 87.5718 173.609 87.5892 173.547L86.1078 173.129ZM89.109 174.332C90.8649 174.297 92.7485 173.887 95.5514 174.323L95.7881 172.802C92.8171 172.34 90.5306 172.764 89.0782 172.793L89.109 174.332ZM95.5514 174.323C97.8064 174.674 100.331 175.393 101.304 175.707L101.776 174.241C100.76 173.913 98.1522 173.169 95.7881 172.802L95.5514 174.323ZM89.6787 173.148C89.1032 173.596 88.2467 174.383 87.5064 175.315C86.784 176.224 86.0809 177.384 85.9846 178.568L87.5192 178.693C87.5776 177.978 88.0402 177.117 88.7119 176.272C89.3662 175.449 90.1322 174.747 90.6256 174.362L89.6787 173.148ZM85.9846 178.568C85.7851 181.031 86.0674 183.347 87.1337 185.316L88.488 184.583C87.611 182.964 87.3345 180.977 87.5192 178.693L85.9846 178.568ZM87.1337 185.316L87.1439 185.336L88.4982 184.602L88.488 184.583L87.1337 185.316ZM87.1439 185.336C87.967 186.855 88.8004 188.438 91.0426 189.148L91.5077 187.68C89.9167 187.176 89.3342 186.146 88.4982 184.602L87.1439 185.336ZM91.0426 189.148C93.0385 189.78 95.5995 190.129 97.4529 189.849L97.2226 188.326C95.6752 188.56 93.3612 188.267 91.5077 187.68L91.0426 189.148ZM97.4529 189.849C98.4993 189.691 99.758 188.965 100.785 188.21C101.821 187.449 102.805 186.522 103.251 185.807L101.946 184.991C101.654 185.456 100.858 186.245 99.8729 186.97C98.8791 187.7 97.8764 188.228 97.2226 188.326L97.4529 189.849ZM103.251 185.807C104.018 184.58 105.036 183.194 105.036 181.133H103.496C103.496 182.664 102.783 183.651 101.946 184.991L103.251 185.807ZM169.274 148.835C168.079 148.706 166.215 148.532 164.505 148.428C163.65 148.376 162.825 148.341 162.136 148.34C161.481 148.338 160.854 148.364 160.456 148.473L160.861 149.959C161.028 149.913 161.452 149.878 162.132 149.88C162.778 149.881 163.571 149.914 164.411 149.965C166.091 150.066 167.93 150.238 169.109 150.366L169.274 148.835ZM160.456 148.473C159.783 148.656 158.821 148.891 157.979 149.255C157.157 149.611 156.238 150.177 155.865 151.155L157.304 151.703C157.445 151.334 157.857 150.986 158.59 150.668C159.304 150.359 160.122 150.16 160.861 149.959L160.456 148.473ZM155.865 151.155C155.621 151.795 155.481 152.7 155.396 153.51C155.31 154.34 155.275 155.153 155.27 155.655L156.809 155.672C156.814 155.212 156.847 154.446 156.928 153.669C157.011 152.872 157.137 152.141 157.304 151.703L155.865 151.155ZM155.27 155.663C155.27 156.531 155.381 158.709 155.837 160.563L157.332 160.195C156.917 158.507 156.81 156.464 156.81 155.663H155.27ZM155.837 160.563C156.118 161.702 156.579 162.756 156.79 163.379C156.908 163.731 156.949 163.939 156.947 164.062C156.946 164.113 156.938 164.123 156.944 164.112C156.951 164.096 156.96 164.091 156.949 164.099L157.888 165.319C158.317 164.989 158.481 164.536 158.487 164.083C158.492 163.681 158.374 163.261 158.249 162.887C157.969 162.06 157.597 161.269 157.332 160.195L155.837 160.563ZM156.949 164.099C156.883 164.15 156.679 164.238 156.251 164.346C155.827 164.453 155.426 164.525 154.911 164.645C154.449 164.752 153.936 164.89 153.519 165.099C153.124 165.297 152.594 165.673 152.516 166.354L154.046 166.529C154.032 166.649 153.946 166.607 154.209 166.475C154.45 166.355 154.807 166.25 155.26 166.144C155.658 166.052 156.216 165.942 156.626 165.839C157.032 165.737 157.537 165.589 157.888 165.319L156.949 164.099ZM152.516 166.354C152.445 166.974 152.447 168.023 152.463 169.103C152.479 170.213 152.511 171.388 152.511 172.344H154.051C154.051 171.374 154.018 170.16 154.002 169.081C153.986 167.971 153.988 167.031 154.046 166.529L152.516 166.354ZM152.511 172.344C152.511 173.941 152.946 177.842 153.158 179.559L154.687 179.37C154.47 177.622 154.051 173.826 154.051 172.344H152.511ZM138.543 152.327L156.475 152.648L156.502 151.108L138.571 150.788L138.543 152.327ZM113.762 175.038C117.292 175.038 121.025 174.867 125.666 175.037L125.723 173.499C121.05 173.327 117.202 173.498 113.762 173.498V175.038ZM125.666 175.037C130.261 175.207 133.971 175.611 137.434 175.902L137.563 174.367C134.14 174.08 130.366 173.67 125.723 173.499L125.666 175.037ZM121.536 158.955C121.08 159.905 121.002 160.888 121.08 161.559L122.609 161.379C122.56 160.96 122.61 160.275 122.924 159.621L121.536 158.955ZM121.08 161.559C121.201 162.587 122.222 163.364 123.484 163.516L123.67 161.988C122.815 161.884 122.617 161.442 122.609 161.379L121.08 161.559ZM123.484 163.516C123.953 163.574 126.378 163.66 129.14 163.745C131.934 163.831 135.148 163.917 137.255 163.971L137.294 162.432C135.188 162.378 131.977 162.292 129.187 162.206C126.365 162.119 124.048 162.034 123.67 161.988L123.484 163.516ZM122.908 159.652C122.908 159.652 123.014 159.491 123.334 159.278C123.638 159.078 124.106 158.85 124.782 158.689L124.426 157.191C122.781 157.582 121.85 158.366 121.551 158.924L122.908 159.652ZM124.782 158.689C126.584 158.262 129.493 158.101 131.468 158.101V156.561C129.466 156.561 126.409 156.721 124.426 157.191L124.782 158.689ZM131.468 158.101C132.99 158.101 135.875 158.497 137.153 158.701L137.396 157.181C136.129 156.978 133.129 156.561 131.468 156.561V158.101ZM122.234 163.184L130.093 174.796L131.368 173.933L123.509 162.321L122.234 163.184ZM127.518 163.345L136.724 175.534L137.953 174.606L128.746 162.417L127.518 163.345ZM139.006 176.161H153.537V174.621H139.006V176.161ZM97.7878 180.299C97.7878 181.592 96.7395 182.64 95.4462 182.64V184.18C97.5896 184.18 99.3275 182.442 99.3275 180.299H97.7878ZM95.4462 182.64C94.1528 182.64 93.1045 181.592 93.1045 180.299H91.5648C91.5648 182.442 93.3021 184.18 95.4462 184.18V182.64ZM93.1045 180.299C93.1045 179.005 94.1528 177.957 95.4462 177.957V176.417C93.3021 176.417 91.5648 178.155 91.5648 180.299H93.1045ZM95.4462 177.957C96.7395 177.957 97.7878 179.005 97.7878 180.299H99.3275C99.3275 178.155 97.5896 176.417 95.4462 176.417V177.957ZM187.027 184.854C187.027 186.147 185.979 187.195 184.685 187.195V188.735C186.829 188.735 188.567 186.997 188.567 184.854H187.027ZM184.685 187.195C183.392 187.195 182.344 186.147 182.344 184.854H180.804C180.804 186.997 182.541 188.735 184.685 188.735V187.195ZM182.344 184.854C182.344 183.56 183.392 182.512 184.685 182.512V180.972C182.541 180.972 180.804 182.71 180.804 184.854H182.344ZM184.685 182.512C185.979 182.512 187.027 183.56 187.027 184.854H188.567C188.567 182.71 186.829 180.972 184.685 180.972V182.512ZM99.0068 180.844C99.0068 182.97 97.2829 184.693 95.1575 184.693V186.233C98.1336 186.233 100.546 183.82 100.546 180.844H99.0068ZM95.1575 184.693C93.0314 184.693 91.3082 182.97 91.3082 180.844H89.7685C89.7685 183.82 92.1807 186.233 95.1575 186.233V184.693ZM91.3082 180.844C91.3082 178.718 93.0314 176.995 95.1575 176.995V175.455C92.1807 175.455 89.7685 177.868 89.7685 180.844H91.3082ZM95.1575 176.995C97.2829 176.995 99.0068 178.718 99.0068 180.844H100.546C100.546 177.868 98.1336 175.455 95.1575 175.455V176.995ZM189.978 186.008C189.978 188.507 187.953 190.531 185.455 190.531V192.071C188.803 192.071 191.518 189.357 191.518 186.008H189.978ZM185.455 190.531C182.957 190.531 180.932 188.507 180.932 186.008H179.393C179.393 189.357 182.107 192.071 185.455 192.071V190.531ZM180.932 186.008C180.932 183.51 182.957 181.486 185.455 181.486V179.946C182.107 179.946 179.393 182.66 179.393 186.008H180.932ZM185.455 181.486C187.953 181.486 189.978 183.51 189.978 186.008H191.518C191.518 182.66 188.803 179.946 185.455 179.946V181.486ZM193.442 184.854C193.442 189.796 189.435 193.803 184.493 193.803V195.343C190.286 195.343 194.982 190.647 194.982 184.854H193.442ZM184.493 193.803C179.55 193.803 175.543 189.796 175.543 184.854H174.004C174.004 190.647 178.7 195.343 184.493 195.343V193.803ZM175.543 184.854C175.543 179.911 179.55 175.904 184.493 175.904V174.364C178.7 174.364 174.004 179.061 174.004 184.854H175.543ZM184.493 175.904C189.435 175.904 193.442 179.911 193.442 184.854H194.982C194.982 179.061 190.286 174.364 184.493 174.364V175.904ZM105.807 155.182H106.641V153.642H105.807V155.182ZM106.641 154.156H105.807V155.695H106.641V154.156ZM105.807 154.156C106.091 154.156 106.32 154.385 106.32 154.669H104.781C104.781 155.236 105.24 155.695 105.807 155.695V154.156ZM106.128 154.669C106.128 154.385 106.358 154.156 106.641 154.156V155.695C107.208 155.695 107.668 155.236 107.668 154.669H106.128ZM106.641 155.182C106.358 155.182 106.128 154.952 106.128 154.669H107.668C107.668 154.102 107.208 153.642 106.641 153.642V155.182ZM105.807 153.642C105.24 153.642 104.781 154.102 104.781 154.669H106.32C106.32 154.952 106.091 155.182 105.807 155.182V153.642ZM105.807 158.582H106.641V157.043H105.807V158.582ZM106.641 157.556H105.807V159.096H106.641V157.556ZM105.807 157.556C106.091 157.556 106.32 157.786 106.32 158.069H104.781C104.781 158.636 105.24 159.096 105.807 159.096V157.556ZM106.128 158.069C106.128 157.786 106.358 157.556 106.641 157.556V159.096C107.208 159.096 107.668 158.636 107.668 158.069H106.128ZM106.641 158.582C106.358 158.582 106.128 158.353 106.128 158.069H107.668C107.668 157.502 107.208 157.043 106.641 157.043V158.582ZM105.807 157.043C105.24 157.043 104.781 157.502 104.781 158.069H106.32C106.32 158.353 106.091 158.582 105.807 158.582V157.043ZM191.87 129.849L194.115 129.271L193.732 127.78L191.486 128.358L191.87 129.849ZM189.093 125.786L190.889 121.103L189.451 120.551L187.655 125.235L189.093 125.786ZM165.4 166.183C178.019 165.238 185.666 164.746 190.239 164.467C192.521 164.327 194.048 164.24 195.035 164.177C195.53 164.146 195.9 164.12 196.168 164.096C196.413 164.073 196.64 164.048 196.801 164.002L196.381 162.521C196.381 162.521 196.3 162.537 196.029 162.562C195.783 162.584 195.431 162.609 194.938 162.641C193.951 162.704 192.438 162.79 190.145 162.929C185.566 163.209 177.911 163.702 165.285 164.647L165.4 166.183ZM196.801 164.002C197.436 163.823 198.1 163.417 198.354 163.241L197.478 161.975C197.279 162.113 196.777 162.409 196.381 162.521L196.801 164.002ZM167.304 160.279C179.908 159.141 186.93 158.571 190.88 158.264C192.851 158.11 194.067 158.02 194.824 157.957C195.541 157.897 195.941 157.857 196.197 157.78L195.755 156.305C195.691 156.324 195.489 156.356 194.697 156.422C193.944 156.484 192.742 156.574 190.76 156.728C186.803 157.037 179.775 157.607 167.165 158.746L167.304 160.279ZM196.197 157.78C196.829 157.591 197.487 157.175 197.739 156.995L196.844 155.742C196.646 155.883 196.149 156.187 195.755 156.305L196.197 157.78ZM191.87 168.171C192.642 168.106 193.825 168.002 194.86 167.897C195.377 167.844 195.863 167.792 196.244 167.743C196.434 167.719 196.604 167.696 196.742 167.673C196.856 167.654 197.013 167.626 197.133 167.583L196.616 166.133C196.646 166.122 196.626 166.131 196.492 166.154C196.381 166.172 196.232 166.193 196.05 166.216C195.689 166.262 195.218 166.313 194.705 166.365C193.682 166.469 192.509 166.572 191.742 166.636L191.87 168.171ZM197.133 167.583C197.572 167.427 198.388 166.97 198.704 166.786L197.931 165.455C197.584 165.656 196.895 166.033 196.616 166.133L197.133 167.583ZM160.365 170.48L175.858 169.294L175.741 167.758L160.248 168.945L160.365 170.48ZM160.531 175.485L171.245 174.586L171.116 173.052L160.402 173.95L160.531 175.485ZM153.004 166.954L160.029 170.033L160.647 168.623L153.622 165.544L153.004 166.954Z" fill="#FFFEF8"/>
<path d="M61.2527 94.9035L58.0066 100.691C57.9805 100.738 57.9383 100.745 57.8799 100.712L45.6059 93.8052C45.5476 93.7725 45.5348 93.7269 45.5675 93.6686L46.6855 91.6753C46.7182 91.6169 46.7637 91.604 46.8219 91.6368L56.9802 97.3574L59.0495 93.6673C59.0822 93.6095 59.1277 93.5967 59.1859 93.6294L61.2143 94.7669C61.2726 94.7996 61.2854 94.8451 61.2527 94.9035Z" fill="#FFFEF8"/>
<path d="M67.0455 86.7947C66.6118 87.3714 66.0608 87.7929 65.3923 88.0592C64.7231 88.326 64.0274 88.4171 63.3045 88.3331C62.5802 88.2401 61.9189 87.9687 61.3207 87.519L53.1411 81.3171C53.0984 81.2851 53.0931 81.2472 53.1252 81.2049L54.511 79.3623C54.5431 79.3194 54.5806 79.3142 54.6233 79.3463L62.827 85.5161C63.1955 85.7932 63.599 85.9125 64.0374 85.8747C64.471 85.8324 64.8136 85.6431 65.067 85.3063C65.332 84.9541 65.425 84.564 65.3448 84.1361C65.2601 83.7043 65.0336 83.3496 64.6647 83.0724L56.461 76.9027C56.4182 76.8706 56.4129 76.8334 56.4451 76.7904L57.8308 74.9479C57.8629 74.9049 57.9004 74.8997 57.9431 74.9318L66.1711 81.0695C66.7748 81.5237 67.2213 82.0857 67.5119 82.7555C67.7929 83.4265 67.9007 84.1181 67.834 84.829C67.7621 85.536 67.4997 86.191 67.0455 86.7947Z" fill="#FFFEF8"/>
<path d="M75.9078 76.5001C75.3869 77.0288 74.7774 77.3803 74.0794 77.5548C73.3859 77.7255 72.6885 77.7184 71.988 77.5343C71.2874 77.3405 70.6613 76.9717 70.1089 76.427L65.5629 71.915C65.0201 71.3799 64.6525 70.7724 64.4588 70.0936C64.2599 69.4097 64.2413 68.7201 64.4017 68.024C64.5621 67.3189 64.9053 66.6998 65.4307 66.1667C65.9658 65.6246 66.5733 65.2705 67.2527 65.1056C67.9366 64.9349 68.6263 64.9446 69.3223 65.1338C70.0184 65.3128 70.6401 65.6727 71.1873 66.2123L71.8577 66.8743C71.8962 66.9116 71.8962 66.9494 71.8584 66.9873L70.2398 68.629C70.2019 68.6668 70.1641 68.6675 70.1262 68.6296L69.4551 67.9682C69.1318 67.6487 68.7501 67.4793 68.3106 67.4588C67.8712 67.4376 67.4965 67.5845 67.1866 67.8989C66.844 68.246 66.7003 68.6296 66.7549 69.0498C66.81 69.47 66.9942 69.8351 67.3085 70.145L71.8686 74.6428C72.226 74.995 72.6218 75.1785 73.0568 75.1946C73.4866 75.2055 73.8497 75.0618 74.1449 74.7615C74.4547 74.4478 74.5894 74.0642 74.5484 73.6106C74.5028 73.1525 74.3251 72.7708 74.0159 72.4661L73.3378 71.7976C73.2999 71.7597 73.2993 71.7219 73.3371 71.684L74.9699 70.0282C75.0077 69.9903 75.0456 69.9897 75.0834 70.0276L75.7616 70.696C76.3088 71.2356 76.6815 71.8572 76.8804 72.5597C77.0697 73.2622 77.0883 73.9615 76.9375 74.6576C76.7816 75.3485 76.4384 75.9625 75.9078 76.5001Z" fill="#FFFEF8"/>
<path d="M85.0922 67.9872L83.2529 69.4102C83.2106 69.4429 83.1689 69.4333 83.1278 69.38L74.5401 58.2175C74.499 58.1646 74.4997 58.1218 74.542 58.0891L76.3653 56.6781C76.4076 56.6454 76.4493 56.6554 76.4904 56.7082L79.4659 60.5531L79.0226 54.7231C79.0322 54.6481 79.0553 54.5963 79.0925 54.5676L80.9556 53.1259C81.003 53.0891 81.03 53.102 81.0364 53.1648L81.6965 59.8156L90.0213 64.0709C90.0803 64.0928 90.0707 64.1343 89.9911 64.1957L88.0094 65.7296C87.9568 65.77 87.9086 65.7739 87.865 65.7399L81.9756 62.6666L82.1001 63.9901L85.0942 67.8589C85.1352 67.9115 85.1339 67.9545 85.0922 67.9872Z" fill="#FFFEF8"/>
<path d="M98.4704 59.03L96.4322 60.2105C96.3918 60.2339 96.3578 60.2225 96.3308 60.1762L93.4246 55.1176L86.8937 49.3203C86.8552 49.2807 86.859 49.2475 86.9052 49.2207L88.8831 48.0754C88.9409 48.0419 88.989 48.0449 89.0275 48.0845L93.1051 52.1056L91.6732 46.5523C91.6578 46.4993 91.6732 46.4594 91.7194 46.4326L93.7146 45.2772C93.7608 45.2504 93.7916 45.2635 93.807 45.3165L95.5186 53.8124L98.4999 58.9203C98.5269 58.9667 98.5166 59.0032 98.4704 59.03Z" fill="#FFFEF8"/>
<path d="M122.039 49.7149C121.335 49.9005 120.637 49.8906 119.947 49.6853C119.264 49.4783 118.666 49.1211 118.152 48.6138C117.642 48.0982 117.293 47.4785 117.102 46.7548L116.862 45.8436C116.844 45.7725 116.866 45.7284 116.931 45.7114L119.16 45.1241C119.212 45.1105 119.248 45.1393 119.266 45.2104L119.506 46.1215C119.62 46.5545 119.864 46.891 120.239 47.1311C120.611 47.3647 121.001 47.4279 121.408 47.3206C121.821 47.2117 122.132 46.9606 122.34 46.5673C122.545 46.1676 122.593 45.7577 122.482 45.3376C122.355 44.853 121.926 44.5131 121.198 44.318C121.077 44.2806 120.921 44.2389 120.73 44.1926C120.542 44.1383 120.32 44.0794 120.061 44.0162C119.802 43.9531 119.551 43.8914 119.307 43.8312C119.062 43.7646 118.824 43.7028 118.595 43.6457C117.759 43.4098 117.078 43.0188 116.555 42.4726C116.035 41.9183 115.67 41.2405 115.459 40.4392C115.265 39.7025 115.271 38.9892 115.477 38.2993C115.683 37.6159 116.032 37.0264 116.524 36.5307C117.02 36.0268 117.61 35.6847 118.296 35.5042C119 35.3187 119.692 35.3229 120.372 35.517C121.054 35.7175 121.647 36.0659 122.151 36.562C122.661 37.0565 123.012 37.6688 123.205 38.3991L123.633 40.0276C123.647 40.0793 123.628 40.1119 123.576 40.1255L121.347 40.7128C121.295 40.7265 121.263 40.7074 121.249 40.6557L120.801 39.0323C120.678 38.567 120.433 38.2272 120.066 38.013C119.698 37.7988 119.314 37.7445 118.913 37.85C118.507 37.9573 118.198 38.2043 117.989 38.5911C117.78 38.9779 117.732 39.3845 117.844 39.811C117.958 40.244 118.144 40.5821 118.401 40.8253C118.666 41.0667 119.078 41.2552 119.639 41.3908C119.697 41.403 119.834 41.4361 120.049 41.4902C120.263 41.5442 120.5 41.6061 120.761 41.6758C121.026 41.7372 121.266 41.795 121.48 41.849C121.693 41.8966 121.821 41.925 121.866 41.9342C122.621 42.1289 123.261 42.4442 123.784 42.8801C124.313 43.3144 124.68 43.9225 124.886 44.7044C125.085 45.4606 125.089 46.1851 124.899 46.878C124.702 47.5726 124.355 48.1718 123.859 48.6757C123.363 49.1795 122.756 49.526 122.039 49.7149Z" fill="#FFFEF8"/>
<path d="M135.343 47.1252C134.627 47.2144 133.94 47.1113 133.284 46.8158C132.628 46.5205 132.078 46.0838 131.636 45.5058C131.199 44.9204 130.935 44.2563 130.842 43.5136L129.614 33.3225C129.607 33.2694 129.63 33.2397 129.684 33.2331L131.971 32.9482C132.025 32.9416 132.054 32.9648 132.061 33.0178L133.329 43.2039C133.386 43.6615 133.581 44.0346 133.913 44.3232C134.244 44.6053 134.619 44.7202 135.037 44.6682C135.474 44.6137 135.819 44.4091 136.072 44.0545C136.323 43.6932 136.42 43.2838 136.363 42.8262L135.095 32.6401C135.088 32.587 135.112 32.5572 135.164 32.5506L137.452 32.2657C137.505 32.2591 137.536 32.2824 137.542 32.3354L138.85 42.5166C138.943 43.266 138.85 43.9779 138.57 44.6525C138.284 45.3213 137.861 45.8789 137.304 46.3254C136.746 46.7653 136.092 47.0319 135.343 47.1252Z" fill="#FFFEF8"/>
<path d="M147.756 46.1265L145.43 46.1037C145.377 46.1031 145.351 46.0695 145.351 46.0027L145.53 31.8997C145.53 31.8462 145.557 31.8198 145.611 31.8203L149.761 31.8611C150.502 31.8683 151.182 32.0554 151.8 32.4224C152.418 32.7894 152.908 33.2787 153.269 33.8904C153.638 34.5022 153.818 35.1923 153.81 35.9608C153.806 36.462 153.724 36.9156 153.566 37.3218C153.409 37.7279 153.225 38.0703 153.015 38.3489C152.812 38.6276 152.626 38.8329 152.458 38.9649C153.191 39.7942 153.553 40.7634 153.542 41.8727L153.52 46.0829C153.52 46.1497 153.486 46.1828 153.42 46.1821L151.094 46.1593C151.041 46.1588 151.014 46.1384 151.014 46.0983L151.056 41.8483C151.061 41.3538 150.891 40.9244 150.547 40.5602C150.203 40.1959 149.777 40.0113 149.269 40.0063L147.916 39.993L147.837 46.0271C147.836 46.0939 147.809 46.127 147.756 46.1265ZM149.736 34.3168L147.972 34.2995L147.941 37.5272L149.705 37.5445C150.126 37.5486 150.502 37.3952 150.832 37.0844C151.169 36.7736 151.34 36.391 151.345 35.9366C151.349 35.5022 151.192 35.1264 150.875 34.8092C150.557 34.4853 150.177 34.3212 149.736 34.3168Z" fill="#FFFEF8"/>
<path d="M161.894 47.0929L159.612 46.7632C159.546 46.7536 159.517 46.7157 159.527 46.6496L161.584 32.6963C161.592 32.6434 161.622 32.6208 161.675 32.6284L168.183 33.5688C168.249 33.5783 168.278 33.6096 168.271 33.6625L167.94 35.9543C167.932 36.0072 167.902 36.0298 167.849 36.0222L163.682 35.4201L163.226 38.575L167.393 39.1771C167.446 39.1848 167.467 39.2216 167.458 39.2878L167.145 41.5923C167.138 41.6453 167.101 41.667 167.034 41.6574L162.868 41.0553L162.007 47.008C161.998 47.0742 161.96 47.1025 161.894 47.0929Z" fill="#FFFEF8"/>
<path d="M188.216 54.6849C187.549 54.3939 187.008 53.9541 186.593 53.3655C186.185 52.7795 185.937 52.1282 185.848 51.4116C185.768 50.6916 185.878 49.9885 186.177 49.3023L186.553 48.4384C186.582 48.3711 186.628 48.3507 186.689 48.3774L188.803 49.2982C188.852 49.3196 188.861 49.364 188.832 49.4314L188.456 50.2952C188.277 50.7057 188.26 51.1211 188.405 51.5414C188.553 51.9556 188.819 52.2468 189.205 52.4149C189.597 52.5858 189.997 52.5811 190.403 52.401C190.812 52.2148 191.103 51.9226 191.277 51.5243C191.477 51.0649 191.352 50.5328 190.901 49.9281C190.829 49.8242 190.733 49.6946 190.611 49.5394C190.498 49.3808 190.36 49.1966 190.196 48.9867C190.032 48.7769 189.873 48.5728 189.719 48.3745C189.568 48.17 189.419 47.9743 189.275 47.7874C188.765 47.0841 188.474 46.3558 188.401 45.6024C188.337 44.8456 188.47 44.0874 188.802 43.3277C189.106 42.6292 189.552 42.0729 190.141 41.6588C190.727 41.2507 191.366 41.0044 192.059 40.92C192.76 40.832 193.436 40.9295 194.086 41.2124C194.754 41.5034 195.294 41.9357 195.708 42.5095C196.118 43.0893 196.367 43.7301 196.456 44.4317C196.549 45.136 196.446 45.8343 196.144 46.5266L195.472 48.0706C195.45 48.1196 195.415 48.1334 195.366 48.112L193.253 47.1912C193.203 47.1698 193.19 47.1346 193.211 47.0856L193.865 45.5337C194.057 45.0926 194.076 44.6742 193.92 44.2783C193.765 43.8826 193.497 43.6019 193.117 43.4364C192.731 43.2682 192.336 43.2712 191.932 43.4451C191.528 43.6191 191.238 43.9082 191.062 44.3126C190.883 44.723 190.82 45.1035 190.871 45.454C190.929 45.8071 191.135 46.2107 191.492 46.6647C191.53 46.7106 191.617 46.8212 191.752 46.9966C191.887 47.172 192.035 47.3678 192.196 47.5837C192.365 47.7962 192.518 47.9901 192.653 48.1656C192.791 48.3349 192.874 48.4368 192.902 48.4712C193.375 49.0926 193.682 49.7364 193.822 50.4023C193.968 51.071 193.879 51.776 193.556 52.5173C193.244 53.2341 192.798 53.8053 192.219 54.231C191.634 54.6539 190.99 54.9094 190.289 54.9974C189.587 55.0852 188.896 54.9811 188.216 54.6849Z" fill="#FFFEF8"/>
<path d="M200.321 60.9342C199.687 60.55 199.204 60.0385 198.871 59.3999C198.545 58.7647 198.39 58.0851 198.407 57.3608C198.433 56.6343 198.647 55.9395 199.048 55.2764L202.384 49.8078C202.778 49.1562 203.284 48.6574 203.899 48.3116C204.519 47.96 205.185 47.7816 205.899 47.7766C206.622 47.7693 207.304 47.9595 207.944 48.3472C208.596 48.7418 209.081 49.2504 209.399 49.873C209.723 50.4989 209.874 51.1723 209.851 51.8931C209.838 52.6117 209.633 53.2996 209.235 53.9569L208.747 54.7629C208.719 54.8086 208.682 54.8177 208.636 54.79L206.664 53.5956C206.619 53.5679 206.61 53.5312 206.637 53.4854L207.125 52.6795C207.361 52.2908 207.437 51.8802 207.356 51.4478C207.274 51.0154 207.044 50.685 206.667 50.4564C206.25 50.2037 205.843 50.1528 205.447 50.3036C205.051 50.4544 204.739 50.7184 204.51 51.0957L201.192 56.5746C200.932 57.0033 200.845 57.431 200.931 57.8577C201.019 58.2787 201.244 58.5982 201.604 58.8164C201.981 59.0448 202.386 59.0867 202.817 58.9417C203.252 58.7911 203.582 58.53 203.807 58.1585L204.3 57.3439C204.328 57.2982 204.365 57.2891 204.41 57.3168L206.4 58.5216C206.445 58.5493 206.454 58.586 206.427 58.6317L205.933 59.4462C205.535 60.1036 205.017 60.6103 204.38 60.9665C203.74 61.3133 203.064 61.4939 202.352 61.5082C201.644 61.5167 200.967 61.3254 200.321 60.9342Z" fill="#FFFEF8"/>
<path d="M210.685 67.8581L208.874 66.3992C208.833 66.3652 208.833 66.3229 208.874 66.2703L217.739 55.3007C217.773 55.259 217.815 55.2591 217.867 55.3011L219.647 56.7351C219.699 56.777 219.709 56.8188 219.675 56.8605L216.156 61.1956L218.553 63.1264L222.056 58.7787C222.089 58.737 222.127 58.733 222.168 58.7666L223.948 60.2005C224 60.2425 224.01 60.2843 223.976 60.3259L215.158 71.3334C215.116 71.3853 215.069 71.3905 215.017 71.3488L213.222 69.9021C213.17 69.8604 213.165 69.8135 213.207 69.7609L216.993 65.0622L214.597 63.1314L210.81 67.8305C210.768 67.8825 210.726 67.8915 210.685 67.8581Z" fill="#FFFEF8"/>
<path d="M221.316 77.8269C220.815 77.2983 220.489 76.6824 220.337 75.9786C220.19 75.28 220.214 74.5807 220.407 73.8814C220.61 73.1828 220.983 72.5758 221.526 72.0607L226.26 67.5987C226.813 67.0746 227.437 66.7365 228.131 66.5844C228.825 66.4234 229.517 66.4395 230.207 66.6326C230.902 66.8212 231.498 67.1772 231.994 67.7007C232.509 68.2441 232.838 68.8581 232.98 69.5426C233.128 70.2316 233.1 70.9213 232.897 71.611C232.704 72.3006 232.334 72.905 231.786 73.4246L227.079 77.9161C226.535 78.4306 225.914 78.7713 225.215 78.9368C224.506 79.1029 223.807 79.0933 223.117 78.9098C222.427 78.7264 221.827 78.3652 221.316 77.8269ZM223.113 76.123C223.398 76.4239 223.768 76.5708 224.221 76.5637C224.681 76.5522 225.062 76.4014 225.368 76.1121L230.075 71.6206C230.405 71.3082 230.585 70.9393 230.615 70.5146C230.645 70.0905 230.508 69.7178 230.205 69.3976C229.915 69.0922 229.555 68.9364 229.125 68.9293C228.695 68.9229 228.31 69.0807 227.971 69.4021L223.251 73.8788C222.925 74.1868 222.748 74.5627 222.717 75.0067C222.691 75.4455 222.823 75.8176 223.113 76.123Z" fill="#FFFEF8"/>
<path d="M229.947 88.224C229.52 87.6332 229.279 86.9794 229.222 86.2615C229.17 85.5494 229.286 84.8597 229.571 84.1925C229.865 83.5266 230.316 82.9749 230.923 82.5367L236.209 78.7458C236.827 78.2999 237.49 78.0478 238.199 77.9901C238.908 77.9227 239.592 78.0311 240.25 78.3147C240.913 78.5938 241.456 79.0262 241.879 79.6119C242.316 80.2188 242.561 80.8706 242.611 81.568C242.665 82.2711 242.545 82.9505 242.252 83.6068C241.969 84.2644 241.521 84.8142 240.909 85.2562L235.645 89.0798C235.038 89.518 234.378 89.7727 233.662 89.8439C232.938 89.9132 232.246 89.8112 231.586 89.5373C230.927 89.2633 230.38 88.8252 229.947 88.224ZM231.954 86.7748C232.196 87.1109 232.543 87.3053 232.994 87.3592C233.45 87.4093 233.849 87.3111 234.19 87.0641L239.454 83.2405C239.822 82.9749 240.05 82.6336 240.136 82.2166C240.223 81.7996 240.137 81.4127 239.879 81.0547C239.633 80.7134 239.296 80.5107 238.871 80.4465C238.446 80.383 238.043 80.4876 237.664 80.7615L232.39 84.5691C232.026 84.8309 231.8 85.1799 231.711 85.6155C231.626 86.0466 231.708 86.4335 231.954 86.7748Z" fill="#FFFEF8"/>
<path d="M238.956 102.696L235.824 96.8447C235.799 96.7979 235.816 96.7587 235.875 96.7266L248.301 90.0975C248.36 90.0661 248.405 90.0796 248.437 90.1386L249.516 92.1537C249.547 92.2127 249.533 92.2576 249.475 92.2891L239.187 97.7736L241.183 101.503C241.215 101.562 241.201 101.608 241.142 101.639L239.092 102.737C239.033 102.768 238.988 102.754 238.956 102.696Z" fill="#FFFEF8"/>
<path d="M88.0568 229.444L86.1264 228.147C86.0822 228.117 86.0411 228.129 86.0039 228.185L78.1533 239.902C78.1231 239.946 78.136 239.987 78.1911 240.024L80.0882 241.299C80.144 241.336 80.1863 241.333 80.2165 241.289L83.3145 236.643L85.8685 238.36L82.7538 242.994C82.7237 243.038 82.7314 243.076 82.7756 243.106L84.6727 244.38C84.7279 244.418 84.7708 244.414 84.8004 244.37L92.701 232.686C92.7382 232.631 92.7292 232.584 92.6741 232.547L90.7603 231.261C90.7051 231.224 90.6583 231.233 90.6211 231.288L87.2549 236.297L84.7009 234.58L88.0671 229.572C88.1043 229.516 88.1011 229.473 88.0568 229.444Z" fill="#FFFEF8"/>
<path d="M93.6928 249.569L95.7784 250.598C95.8381 250.627 95.883 250.612 95.9125 250.552L102.132 237.893C102.155 237.846 102.143 237.81 102.096 237.786L100.027 236.767C99.9799 236.743 99.944 236.755 99.9203 236.803L93.6652 249.444C93.6357 249.504 93.6447 249.546 93.6928 249.569Z" fill="#FFFEF8"/>
<path d="M107.501 255.757L105.312 254.972C105.261 254.954 105.248 254.914 105.27 254.851L110.064 241.587C110.082 241.536 110.116 241.52 110.167 241.538L114.074 242.938C114.772 243.188 115.353 243.588 115.817 244.137C116.28 244.687 116.582 245.31 116.723 246.006C116.87 246.705 116.814 247.416 116.555 248.139C116.386 248.611 116.16 249.013 115.878 249.345C115.596 249.677 115.31 249.94 115.02 250.134C114.737 250.331 114.494 250.464 114.292 250.533C114.712 251.557 114.736 252.592 114.362 253.636L112.961 257.607C112.939 257.669 112.896 257.689 112.833 257.667L110.644 256.883C110.593 256.865 110.575 256.837 110.589 256.799L112.022 252.798C112.189 252.332 112.169 251.871 111.964 251.414C111.758 250.957 111.417 250.643 110.938 250.472L109.665 250.015L107.61 255.69C107.588 255.752 107.551 255.775 107.501 255.757ZM113.246 245.25L111.585 244.655L110.496 247.694L112.157 248.289C112.554 248.431 112.958 248.409 113.373 248.224C113.793 248.041 114.08 247.736 114.233 247.308C114.38 246.899 114.355 246.492 114.159 246.089C113.965 245.678 113.661 245.399 113.246 245.25Z" fill="#FFFEF8"/>
<path d="M125.183 246.243L127.457 246.728C127.523 246.742 127.549 246.781 127.534 246.847L124.57 260.636C124.56 260.688 124.528 260.709 124.476 260.698L122.22 260.217C122.169 260.205 122.148 260.174 122.159 260.121L125.084 246.324C125.098 246.259 125.131 246.232 125.183 246.243Z" fill="#FFFEF8"/>
<path d="M136.444 262.62L134.125 262.442C134.072 262.438 134.047 262.403 134.053 262.336L135.171 248.296C135.176 248.23 135.205 248.198 135.258 248.203L137.557 248.379C137.611 248.383 137.634 248.418 137.629 248.485L137.257 253.332L140.839 248.711C140.897 248.662 140.949 248.639 140.995 248.643L143.344 248.823C143.404 248.827 143.415 248.855 143.378 248.906L139.406 254.281L142.726 263.022C142.756 263.077 142.72 263.102 142.62 263.094L140.122 262.902C140.055 262.897 140.017 262.867 140.008 262.813L137.701 256.584L136.906 257.649L136.531 262.526C136.526 262.592 136.497 262.624 136.444 262.62Z" fill="#FFFEF8"/>
<path d="M157.713 262.789L151.088 263.167C151.034 263.17 151.006 263.139 151.002 263.072L150.218 248.989C150.214 248.936 150.24 248.908 150.293 248.904L156.878 248.529C156.932 248.525 156.96 248.557 156.964 248.624L157.095 250.916C157.098 250.969 157.073 250.997 157.019 251L152.817 251.24L152.999 254.443L157.203 254.203C157.256 254.2 157.284 254.225 157.287 254.279L157.44 256.599C157.443 256.652 157.418 256.681 157.364 256.684L153.141 256.925L153.346 260.508L157.569 260.266C157.622 260.264 157.651 260.295 157.655 260.362L157.789 262.704C157.792 262.757 157.767 262.786 157.713 262.789Z" fill="#FFFEF8"/>
<path d="M168.877 261.269L171.142 260.785C171.201 260.773 171.223 260.734 171.209 260.669L168.765 249.219L171.372 248.662C171.437 248.648 171.463 248.608 171.449 248.543L170.95 246.302C170.939 246.25 170.907 246.229 170.855 246.24L163.228 247.869C163.156 247.884 163.126 247.918 163.137 247.97L163.616 250.215C163.63 250.281 163.664 250.308 163.716 250.297L166.353 249.733L168.778 261.188C168.792 261.253 168.825 261.28 168.877 261.269Z" fill="#FFFEF8"/>
<path d="M183.377 257.6L185.567 256.815C185.63 256.792 185.65 256.75 185.627 256.687L180.851 243.416C180.833 243.366 180.799 243.35 180.749 243.367L178.578 244.145C178.528 244.163 178.512 244.197 178.53 244.248L183.268 257.532C183.291 257.595 183.327 257.618 183.377 257.6Z" fill="#FFFEF8"/>
<path d="M197.748 251.999L199.861 250.957C199.903 250.937 199.912 250.903 199.889 250.855L197.29 245.631L196.087 236.981C196.075 236.927 196.046 236.912 195.998 236.936L193.948 237.947C193.888 237.976 193.864 238.018 193.875 238.072L194.961 243.695L191.133 239.424C191.098 239.382 191.056 239.373 191.008 239.397L188.94 240.416C188.892 240.44 188.886 240.472 188.921 240.515L195.043 246.65L197.641 251.963C197.664 252.011 197.7 252.023 197.748 251.999Z" fill="#FFFEF8"/>
<path d="M208.658 245.95L202.903 232.824C202.884 232.772 202.897 232.731 202.941 232.702L205.412 231.041C205.457 231.011 205.499 231.014 205.54 231.051L215.439 241.392C215.482 241.443 215.478 241.486 215.428 241.52L213.54 242.789C213.484 242.827 213.435 242.819 213.392 242.768L212.37 241.643L210.049 243.203L210.705 244.574C210.737 244.633 210.728 244.679 210.678 244.713L208.781 245.988C208.736 246.018 208.695 246.005 208.658 245.95ZM206.89 235.736L206.365 235.171L206.715 235.854L209.166 241.151L210.804 240.05L206.89 235.736Z" fill="#FFFEF8"/>
<path d="M277.79 147.524C277.79 75.5802 219.468 17.2581 147.524 17.2581C75.5797 17.2581 17.2576 75.5802 17.2576 147.524C17.2576 219.468 75.5797 277.79 147.524 277.79C219.468 277.79 277.79 219.468 277.79 147.524ZM281.511 147.524C281.511 221.523 221.523 281.511 147.524 281.511C73.5247 281.511 13.5366 221.523 13.5366 147.524C13.5366 73.5252 73.5247 13.5371 147.524 13.5371C221.523 13.5371 281.511 73.5252 281.511 147.524Z" fill="#FFFEF8"/>
</svg>
