<svg width="4600" height="4600" viewBox="0 0 4600 4600" fill="none" xmlns="http://www.w3.org/2000/svg">
<path d="M672.519 1835.17C676.755 1820.3 668.133 1804.81 653.261 1800.57C638.388 1796.33 622.898 1804.96 618.661 1819.83L672.519 1835.17ZM762.315 3131.35C769.687 3144.94 786.683 3149.99 800.276 3142.61C813.87 3135.24 818.914 3118.25 811.543 3104.65L762.315 3131.35ZM3979.27 1819.83C3975.03 1804.96 3959.54 1796.33 3944.67 1800.57C3929.8 1804.81 3921.17 1820.3 3925.41 1835.17L3979.27 1819.83ZM3786.39 3104.65C3779.01 3118.25 3784.06 3135.24 3797.65 3142.61C3811.25 3149.99 3828.24 3144.94 3835.61 3131.35L3786.39 3104.65ZM3681 2299.5C3681 3062.48 3062.48 3681 2299.5 3681V3737C3093.41 3737 3737 3093.41 3737 2299.5H3681ZM2299.5 3681C1536.52 3681 918 3062.48 918 2299.5H862C862 3093.41 1505.59 3737 2299.5 3737V3681ZM918 2299.5C918 1536.52 1536.52 918 2299.5 918V862C1505.59 862 862 1505.59 862 2299.5H918ZM2299.5 918C3062.48 918 3681 1536.52 3681 2299.5H3737C3737 1505.59 3093.41 862 2299.5 862V918ZM4331 2299.5C4331 3421.47 3421.47 4331 2299.5 4331V4387C3452.39 4387 4387 3452.39 4387 2299.5H4331ZM2299.5 4331C1177.53 4331 268 3421.47 268 2299.5H212C212 3452.39 1146.61 4387 2299.5 4387V4331ZM268 2299.5C268 1177.53 1177.53 268 2299.5 268V212C1146.61 212 212 1146.61 212 2299.5H268ZM2299.5 268C3421.47 268 4331 1177.53 4331 2299.5H4387C4387 1146.61 3452.39 212 2299.5 212V268ZM608 2299.5C608 2138.44 630.503 1982.68 672.519 1835.17L618.661 1819.83C575.238 1972.28 552 2133.2 552 2299.5H608ZM811.543 3104.65C681.732 2865.27 608 2591.04 608 2299.5H552C552 2600.59 628.17 2883.97 762.315 3131.35L811.543 3104.65ZM4045.93 2299.5C4045.93 2133.2 4022.69 1972.28 3979.27 1819.83L3925.41 1835.17C3967.43 1982.68 3989.93 2138.44 3989.93 2299.5H4045.93ZM3835.61 3131.35C3969.76 2883.97 4045.93 2600.59 4045.93 2299.5H3989.93C3989.93 2591.04 3916.2 2865.27 3786.39 3104.65L3835.61 3131.35Z" fill="#141414"/>
<path d="M672.519 1835.17C676.755 1820.3 668.133 1804.81 653.261 1800.57C638.388 1796.33 622.898 1804.96 618.661 1819.83L672.519 1835.17ZM762.315 3131.35C769.687 3144.94 786.683 3149.99 800.276 3142.61C813.87 3135.24 818.914 3118.25 811.543 3104.65L762.315 3131.35ZM3979.27 1819.83C3975.03 1804.96 3959.54 1796.33 3944.67 1800.57C3929.8 1804.81 3921.17 1820.3 3925.41 1835.17L3979.27 1819.83ZM3786.39 3104.65C3779.01 3118.25 3784.06 3135.24 3797.65 3142.61C3811.25 3149.99 3828.24 3144.94 3835.61 3131.35L3786.39 3104.65ZM3681 2299.5C3681 3062.48 3062.48 3681 2299.5 3681V3737C3093.41 3737 3737 3093.41 3737 2299.5H3681ZM2299.5 3681C1536.52 3681 918 3062.48 918 2299.5H862C862 3093.41 1505.59 3737 2299.5 3737V3681ZM918 2299.5C918 1536.52 1536.52 918 2299.5 918V862C1505.59 862 862 1505.59 862 2299.5H918ZM2299.5 918C3062.48 918 3681 1536.52 3681 2299.5H3737C3737 1505.59 3093.41 862 2299.5 862V918ZM4331 2299.5C4331 3421.47 3421.47 4331 2299.5 4331V4387C3452.39 4387 4387 3452.39 4387 2299.5H4331ZM2299.5 4331C1177.53 4331 268 3421.47 268 2299.5H212C212 3452.39 1146.61 4387 2299.5 4387V4331ZM268 2299.5C268 1177.53 1177.53 268 2299.5 268V212C1146.61 212 212 1146.61 212 2299.5H268ZM2299.5 268C3421.47 268 4331 1177.53 4331 2299.5H4387C4387 1146.61 3452.39 212 2299.5 212V268ZM608 2299.5C608 2138.44 630.503 1982.68 672.519 1835.17L618.661 1819.83C575.238 1972.28 552 2133.2 552 2299.5H608ZM811.543 3104.65C681.732 2865.27 608 2591.04 608 2299.5H552C552 2600.59 628.17 2883.97 762.315 3131.35L811.543 3104.65ZM4045.93 2299.5C4045.93 2133.2 4022.69 1972.28 3979.27 1819.83L3925.41 1835.17C3967.43 1982.68 3989.93 2138.44 3989.93 2299.5H4045.93ZM3835.61 3131.35C3969.76 2883.97 4045.93 2600.59 4045.93 2299.5H3989.93C3989.93 2591.04 3916.2 2865.27 3786.39 3104.65L3835.61 3131.35Z" fill="#141414"/>
<path d="M3258.75 1698.37L3258.16 1710.35L3258.45 1710.37H3258.75V1698.37ZM3155.12 1581.14L3143.21 1582.62V1582.63L3155.12 1581.14ZM3203.94 1585.37L3192.04 1586.85V1586.86L3203.94 1585.37ZM3047.89 1760.59L3036.66 1764.82L3037.17 1766.16L3037.97 1767.34L3047.89 1760.59ZM1341.66 1822.9L1342.35 1834.89L1342.64 1834.87L1342.94 1834.84L1341.66 1822.9ZM1551.04 1909.73L1561.48 1915.63L1562.19 1914.38L1562.58 1913L1551.04 1909.73ZM3256.52 1829.48L3256.24 1841.48L3256.54 1841.49L3256.83 1841.48L3256.52 1829.48ZM3173.99 1714.85L3162.13 1716.64V1716.65L3173.99 1714.85ZM3229.08 1723L3217.21 1724.8H3217.22L3229.08 1723ZM3046.74 2374.37L3037.89 2382.48L3041.46 2386.37H3046.74V2374.37ZM1766.74 2797.37L1754.82 2795.98L1753.68 2805.74L1763.02 2808.78L1766.74 2797.37ZM2141.74 2819.37L2141.81 2831.37L2152.9 2831.3L2153.7 2820.24L2141.74 2819.37ZM2161.74 2817.87L2149.74 2817.84L2149.71 2830.16L2162.02 2829.86L2161.74 2817.87ZM2508.24 2788.87L2509.56 2800.79L2521.43 2799.48L2520.17 2787.6L2508.24 2788.87ZM3109.24 2757.87L3115.04 2768.37L3122.06 2764.49L3121.16 2756.52L3109.24 2757.87ZM1731.74 1933.37L1720.35 1937.16L1723 1945.11L1731.37 1945.36L1731.74 1933.37ZM1726.24 2245.37L1730.03 2256.75L1737.27 2254.34L1738.15 2246.75L1726.24 2245.37ZM1567.74 2245.37L1557.3 2239.45L1548.09 2255.7L1566.69 2257.32L1567.74 2245.37ZM1526.73 2357.87L1533.76 2367.6L1537.31 2365.03L1538.38 2360.78L1526.73 2357.87ZM1499.74 2377.37L1492.71 2367.64L1489.27 2370.12L1488.16 2374.21L1499.74 2377.37ZM2432.24 2426.37L2420.24 2426.24V2426.3V2426.37H2432.24ZM1905.24 2482.87L1894.66 2477.2L1894.53 2477.44L1894.42 2477.68L1905.24 2482.87ZM2576.35 2566.4C2569.74 2566.9 2564.79 2572.66 2565.28 2579.27C2565.78 2585.87 2571.53 2590.83 2578.14 2590.34L2576.35 2566.4ZM3091.81 2544.49C3097.26 2540.72 3098.63 2533.25 3094.86 2527.8C3091.09 2522.34 3083.62 2520.98 3078.16 2524.75L3091.81 2544.49ZM2988.75 2597.41C2982.14 2597.96 2977.23 2603.76 2977.78 2610.37C2978.34 2616.97 2984.14 2621.88 2990.74 2621.33L2988.75 2597.41ZM3097.27 2599.75C3103 2596.42 3104.95 2589.07 3101.62 2583.34C3098.29 2577.61 3090.95 2575.66 3085.22 2578.99L3097.27 2599.75ZM1521.21 2372.09C1527.11 2376.36 1542.53 2384.87 1559.24 2384.87V2360.87C1549.56 2360.87 1539.05 2355.38 1535.28 2352.65L1521.21 2372.09ZM1559.24 2384.87H1653.24V2360.87H1559.24V2384.87ZM1653.24 2384.87C1665.23 2384.87 1671.32 2386.57 1674.05 2388C1675.27 2388.64 1675.49 2389.05 1675.4 2388.93C1675.29 2388.76 1675.26 2388.57 1675.27 2388.62L1699.22 2387.12C1698.68 2378.49 1693.74 2371.22 1685.19 2366.74C1677.41 2362.67 1666.76 2360.87 1653.24 2360.87V2384.87ZM1675.27 2388.62C1675.74 2396.12 1675.24 2461.26 1675.24 2478.87H1699.24C1699.24 2462.47 1699.75 2395.62 1699.22 2387.12L1675.27 2388.62ZM1675.24 2478.87C1675.24 2483.18 1675.21 2486.29 1675 2488.77C1674.8 2491.27 1674.47 2492.26 1674.35 2492.56C1674.31 2492.64 1674.35 2492.54 1674.49 2492.37C1674.55 2492.29 1674.62 2492.23 1674.68 2492.17C1674.74 2492.12 1674.77 2492.1 1674.77 2492.1C1674.7 2492.14 1673.92 2492.61 1671.48 2493.08L1676.01 2516.65C1680.07 2515.87 1684.22 2514.59 1687.91 2512.18C1691.85 2509.6 1694.63 2506.13 1696.39 2502.05C1698.01 2498.28 1698.63 2494.31 1698.92 2490.73C1699.22 2487.13 1699.24 2483.06 1699.24 2478.87H1675.24ZM1671.48 2493.08C1669.05 2493.55 1660.08 2494.41 1646.53 2495.5C1633.41 2496.56 1617 2497.77 1600.46 2499.03C1583.97 2500.28 1567.36 2501.56 1553.99 2502.76C1541.2 2503.9 1529.98 2505.07 1525.33 2506.23L1531.15 2529.51C1533.51 2528.92 1542.35 2527.9 1556.12 2526.66C1569.31 2525.48 1585.77 2524.21 1602.27 2522.96C1618.74 2521.71 1635.26 2520.49 1648.46 2519.42C1661.22 2518.39 1671.94 2517.44 1676.01 2516.65L1671.48 2493.08ZM1525.33 2506.23C1520.03 2507.55 1515.94 2508.36 1513.06 2508.82C1510 2509.32 1508.68 2509.37 1508.74 2509.37V2533.37C1512.07 2533.37 1519.69 2532.38 1531.15 2529.51L1525.33 2506.23ZM1619.1 1694.55C1675.25 1672.69 1700.19 1661.09 1788.77 1649.77L1785.73 1625.96C1694.3 1637.65 1667.25 1650.05 1610.39 1672.19L1619.1 1694.55ZM1788.77 1649.77C1878.77 1638.27 1920.36 1631.33 2051.34 1624.85L2050.16 1600.88C1918.14 1607.41 1875.73 1614.46 1785.73 1625.96L1788.77 1649.77ZM2051.34 1624.85C2116.73 1621.62 2281.54 1620.24 2436.3 1620.37C2513.61 1620.43 2588.3 1620.87 2646.63 1621.63C2705.4 1622.4 2746.65 1623.5 2757.88 1624.79L2760.61 1600.95C2747.85 1599.48 2704.98 1598.4 2646.95 1597.63C2588.48 1596.87 2513.7 1596.43 2436.32 1596.37C2281.71 1596.24 2116.27 1597.61 2050.16 1600.88L2051.34 1624.85ZM2757.88 1624.79C2789.46 1628.41 2919.2 1635.63 3026.76 1643.06L3028.41 1619.12C2919.79 1611.61 2791.5 1604.48 2760.61 1600.95L2757.88 1624.79ZM3026.76 1643.06C3064.13 1645.65 3098.92 1648.26 3126.26 1650.76L3128.45 1626.86C3100.84 1624.33 3065.84 1621.71 3028.41 1619.12L3026.76 1643.06ZM3126.26 1650.76C3141.37 1652.15 3154.09 1653.49 3163.67 1654.76L3166.83 1630.97C3156.77 1629.64 3143.68 1628.26 3128.45 1626.86L3126.26 1650.76ZM3163.67 1654.76C3203.06 1660 3244.59 1666.11 3276.7 1671.16C3292.75 1673.68 3306.4 1675.94 3316.23 1677.68C3321.15 1678.55 3325.04 1679.28 3327.75 1679.84C3329.13 1680.12 3330.09 1680.34 3330.7 1680.49C3331.01 1680.57 3331.11 1680.6 3331.06 1680.59C3331.04 1680.58 3330.9 1680.54 3330.68 1680.45C3330.52 1680.39 3329.98 1680.18 3329.29 1679.79L3341.2 1658.95C3339.88 1658.19 3338.61 1657.8 3338.29 1657.7C3337.71 1657.52 3337.11 1657.36 3336.56 1657.22C3335.47 1656.94 3334.11 1656.64 3332.6 1656.33C3329.56 1655.7 3325.42 1654.93 3320.41 1654.04C3310.37 1652.27 3296.56 1649.99 3280.43 1647.45C3248.15 1642.38 3206.43 1636.24 3166.83 1630.97L3163.67 1654.76ZM3329.29 1679.79C3329.85 1680.1 3329.7 1680.15 3329.33 1679.64C3328.98 1679.16 3328.25 1677.88 3328.25 1675.87H3352.25C3352.25 1667.88 3346.71 1662.09 3341.2 1658.95L3329.29 1679.79ZM3328.25 1675.87C3328.25 1675.76 3328.25 1675.72 3328.25 1675.74C3328.25 1675.76 3328.25 1675.81 3328.24 1675.89C3328.22 1676.05 3328.18 1676.24 3328.14 1676.41C3328.12 1676.49 3328.11 1676.55 3328.09 1676.59C3328.08 1676.63 3328.08 1676.62 3328.1 1676.59C3328.11 1676.55 3328.15 1676.45 3328.23 1676.31C3328.31 1676.16 3328.44 1675.94 3328.65 1675.67L3347.85 1690.07C3350.01 1687.19 3350.99 1684.03 3351.48 1682.01C3352 1679.86 3352.25 1677.67 3352.25 1675.87H3328.25ZM3328.65 1675.67C3328.66 1675.66 3328.55 1675.8 3328.27 1676.1C3328.02 1676.38 3327.67 1676.73 3327.24 1677.14C3326.36 1677.97 3325.25 1678.92 3323.97 1679.86C3321.27 1681.83 3318.59 1683.19 3316.5 1683.69L3322 1707.05C3328.4 1705.54 3334.05 1702.22 3338.14 1699.22C3342.2 1696.26 3345.77 1692.83 3347.85 1690.07L3328.65 1675.67ZM3316.5 1683.69C3313.46 1684.4 3306.73 1685.13 3296.3 1685.63C3286.18 1686.12 3273.39 1686.37 3258.75 1686.37V1710.37C3273.61 1710.37 3286.82 1710.12 3297.45 1709.6C3307.77 1709.11 3316.54 1708.33 3322 1707.05L3316.5 1683.69ZM3259.34 1686.38C3205.45 1683.72 3094.07 1678.28 3081.12 1677.87L3080.37 1701.86C3093.03 1702.26 3204.05 1707.68 3258.16 1710.35L3259.34 1686.38ZM3081.12 1677.87C3065.59 1677.39 2959.47 1672.87 2935.5 1672.37L2935 1696.37C2959.03 1696.87 3063.9 1701.35 3080.37 1701.86L3081.12 1677.87ZM2935.5 1672.37C2911.33 1671.87 2732.55 1672.37 2594.75 1672.37V1696.37C2732.95 1696.37 2911.16 1695.87 2935 1696.37L2935.5 1672.37ZM2594.75 1672.37H2034.75V1696.37H2594.75V1672.37ZM2034.75 1672.37C1966.93 1672.37 1857.91 1676.95 1822.1 1678.89L1823.4 1702.85C1859.05 1700.92 1967.57 1696.37 2034.75 1696.37V1672.37ZM1822.1 1678.89C1785 1680.89 1756.06 1682.91 1721.5 1688L1724.99 1711.74C1758.44 1706.82 1786.5 1704.84 1823.4 1702.85L1822.1 1678.89ZM1565.23 1731.53C1567.92 1725.43 1576.91 1710.98 1619.1 1694.55L1610.39 1672.19C1565.04 1689.85 1549.51 1707.69 1543.27 1721.85L1565.23 1731.53ZM1721.5 1688C1709.65 1689.74 1678.02 1697.12 1645.87 1704.91C1613.39 1712.77 1579.41 1721.3 1562.36 1725.53L1568.14 1748.83C1585.27 1744.57 1619.13 1736.08 1651.52 1728.23C1684.25 1720.31 1714.52 1713.28 1724.99 1711.74L1721.5 1688ZM3030.8 1642.72C3031.18 1642.57 3031.59 1642.41 3032.02 1642.24L3023.15 1619.94C3022.85 1620.06 3022.59 1620.16 3022.38 1620.24L3030.8 1642.72ZM3032.02 1642.24C3033.72 1641.57 3036 1640.59 3038.21 1639.46C3040 1638.55 3043.2 1636.84 3045.57 1634.47L3028.61 1617.49C3029.07 1617.03 3029.29 1616.95 3028.86 1617.22C3028.52 1617.43 3028.01 1617.72 3027.32 1618.07C3025.95 1618.77 3024.38 1619.45 3023.15 1619.94L3032.02 1642.24ZM3045.57 1634.47C3048.06 1631.98 3066.59 1614.49 3072.41 1610.01L3057.79 1590.98C3050.61 1596.5 3031.12 1614.99 3028.61 1617.49L3045.57 1634.47ZM3072.41 1610.01C3080.15 1604.06 3086.3 1597.6 3098.31 1591.82L3087.91 1570.19C3072.91 1577.41 3063.06 1586.93 3057.79 1590.98L3072.41 1610.01ZM3098.31 1591.82C3105.62 1588.3 3111.71 1585.07 3118.01 1582.5C3124.21 1579.98 3128.94 1578.86 3132.63 1579.01L3133.6 1555.03C3124.79 1554.68 3116.26 1557.31 3108.96 1560.27C3101.76 1563.21 3094.1 1567.21 3087.91 1570.19L3098.31 1591.82ZM3132.63 1579.01C3135.64 1579.13 3137.77 1579.28 3139.32 1579.45C3140.9 1579.62 3141.56 1579.78 3141.75 1579.84C3141.8 1579.86 3141.49 1579.76 3141.12 1579.5C3140.91 1579.36 3140.91 1579.3 3141.62 1580.01L3158.6 1563.05C3156.58 1561.02 3153.75 1558.37 3148.6 1556.84C3144.66 1555.67 3139.73 1555.28 3133.6 1555.03L3132.63 1579.01ZM3141.62 1580.01C3141.97 1580.36 3142.42 1580.91 3142.78 1581.52C3142.94 1581.81 3143.05 1582.06 3143.12 1582.24C3143.19 1582.43 3143.2 1582.52 3143.2 1582.52L3167.02 1579.55C3166.06 1571.87 3161.59 1566.04 3158.6 1563.05L3141.62 1580.01ZM3143.2 1582.51L3143.21 1582.62L3167.03 1579.66L3167.02 1579.55L3143.2 1582.51ZM3143.21 1582.63C3143.48 1584.8 3143.32 1584.42 3143.45 1583.95C3143.6 1583.36 3143.7 1583.96 3141.62 1586.04L3158.58 1603.02C3162.45 1599.15 3165.3 1595.04 3166.61 1590.23C3167.88 1585.54 3167.25 1581.44 3167.03 1579.66L3143.21 1582.63ZM3141.62 1586.04C3138.72 1588.94 3134.5 1592.8 3129.8 1597.29C3125.63 1601.29 3120.65 1606.17 3117.89 1609.96L3137.29 1624.08C3138.54 1622.37 3141.82 1619.01 3146.39 1614.63C3150.45 1610.75 3155.48 1606.11 3158.58 1603.02L3141.62 1586.04ZM3117.89 1609.96C3116.24 1612.23 3113.46 1615.85 3111.66 1619.35C3109.91 1622.78 3107.22 1629.6 3110.85 1636.88L3132.32 1626.16C3133.08 1627.66 3133.13 1629.12 3133 1630.01C3132.9 1630.71 3132.73 1630.87 3133.02 1630.31C3133.28 1629.79 3133.75 1629.02 3134.54 1627.89C3135.35 1626.73 3136.19 1625.61 3137.29 1624.08L3117.89 1609.96ZM3110.85 1636.88C3113.33 1641.85 3117.42 1646 3119.28 1647.69L3135.43 1629.94C3135.1 1629.64 3134.41 1628.96 3133.7 1628.11C3132.96 1627.22 3132.51 1626.52 3132.32 1626.16L3110.85 1636.88ZM3119.28 1647.69C3119.41 1647.81 3119.54 1647.93 3119.68 1648.05L3135.49 1629.99C3135.48 1629.98 3135.46 1629.97 3135.43 1629.94L3119.28 1647.69ZM3181.47 1583.35C3184.48 1583.47 3186.61 1583.62 3188.16 1583.79C3189.73 1583.96 3190.4 1584.12 3190.59 1584.18C3190.64 1584.19 3190.33 1584.09 3189.96 1583.84C3189.75 1583.69 3189.75 1583.64 3190.46 1584.35L3207.44 1567.39C3205.42 1565.36 3202.58 1562.71 3197.44 1561.18C3193.49 1560 3188.57 1559.62 3182.43 1559.37L3181.47 1583.35ZM3190.46 1584.35C3190.81 1584.7 3191.26 1585.25 3191.61 1585.86C3191.78 1586.15 3191.89 1586.39 3191.96 1586.58C3192.03 1586.77 3192.04 1586.86 3192.04 1586.85L3215.85 1583.89C3214.9 1576.2 3210.42 1570.37 3207.44 1567.39L3190.46 1584.35ZM3192.04 1586.86L3192.05 1586.97L3215.87 1583.99L3215.85 1583.88L3192.04 1586.86ZM3192.05 1586.96C3192.32 1589.14 3192.16 1588.76 3192.28 1588.28C3192.44 1587.7 3192.54 1588.3 3190.46 1590.38L3207.42 1607.36C3211.29 1603.49 3214.14 1599.38 3215.44 1594.57C3216.72 1589.88 3216.09 1585.78 3215.87 1583.99L3192.05 1586.96ZM3190.46 1590.38C3187.55 1593.28 3183.34 1597.14 3178.64 1601.63C3174.46 1605.62 3169.48 1610.51 3166.73 1614.3L3186.13 1628.42C3187.38 1626.71 3190.65 1623.35 3195.23 1618.97C3199.29 1615.09 3204.32 1610.45 3207.42 1607.36L3190.46 1590.38ZM3166.73 1614.3C3165.08 1616.56 3162.3 1620.19 3160.5 1623.69C3158.74 1627.11 3156.05 1633.94 3159.69 1641.22L3181.16 1630.49C3181.91 1632 3181.96 1633.46 3181.84 1634.34C3181.74 1635.04 3181.56 1635.21 3181.85 1634.65C3182.12 1634.12 3182.59 1633.36 3183.37 1632.23C3184.18 1631.07 3185.02 1629.94 3186.13 1628.42L3166.73 1614.3ZM3159.69 1641.22C3162.29 1646.43 3166.67 1650.77 3168.52 1652.39L3184.33 1634.33C3184.12 1634.15 3183.43 1633.49 3182.66 1632.59C3181.85 1631.65 3181.36 1630.89 3181.16 1630.49L3159.69 1641.22ZM3160.03 1589.87C3169.37 1585.45 3176.19 1583.14 3181.47 1583.35L3182.43 1559.37C3170.66 1558.89 3159.01 1563.8 3149.77 1568.17L3160.03 1589.87ZM3059.12 1756.36C3057.6 1752.31 3054.79 1742.96 3043.76 1732.54C3033.15 1722.51 3015.63 1712.05 2985.81 1702.36L2978.4 1725.19C3006.25 1734.23 3020.15 1743.25 3027.27 1749.99C3033.98 1756.32 3035.23 1761.02 3036.66 1764.82L3059.12 1756.36ZM2985.81 1702.36C2926.87 1683.22 2899.17 1678.63 2808.12 1672.26L2806.44 1696.2C2896.41 1702.49 2922 1706.87 2978.4 1725.19L2985.81 1702.36ZM1429.57 1750.36C1427.15 1750.82 1424.73 1751.29 1422.3 1751.76L1426.87 1775.32C1429.28 1774.85 1431.69 1774.39 1434.09 1773.93L1429.57 1750.36ZM1422.3 1751.76C1384.07 1759.16 1344.56 1767.34 1314.18 1773.95C1299 1777.25 1286.05 1780.17 1276.66 1782.4C1271.97 1783.51 1268.1 1784.48 1265.24 1785.24C1263.83 1785.62 1262.55 1785.98 1261.51 1786.31C1261 1786.48 1260.43 1786.67 1259.86 1786.88C1259.55 1787 1258.34 1787.46 1257.09 1788.27L1270.17 1808.39C1269.52 1808.81 1269.01 1809.05 1268.85 1809.13C1268.63 1809.23 1268.49 1809.28 1268.46 1809.29C1268.4 1809.31 1268.48 1809.28 1268.76 1809.19C1269.31 1809.02 1270.19 1808.76 1271.47 1808.42C1273.99 1807.74 1277.61 1806.84 1282.21 1805.75C1291.39 1803.57 1304.17 1800.68 1319.28 1797.4C1349.49 1790.83 1388.82 1782.68 1426.87 1775.32L1422.3 1751.76ZM1257.09 1788.27C1251.77 1791.73 1246.57 1797.82 1247.03 1805.8L1270.99 1804.42C1271.1 1806.43 1270.44 1807.75 1270.12 1808.25C1269.78 1808.78 1269.63 1808.74 1270.17 1808.39L1257.09 1788.27ZM1247.03 1805.8C1247.13 1807.59 1247.51 1809.76 1248.15 1811.89C1248.75 1813.88 1249.91 1816.97 1252.23 1819.72L1270.58 1804.25C1270.8 1804.51 1270.94 1804.72 1271.03 1804.86C1271.12 1805 1271.16 1805.09 1271.18 1805.13C1271.2 1805.17 1271.2 1805.17 1271.18 1805.13C1271.17 1805.1 1271.15 1805.04 1271.12 1804.96C1271.07 1804.79 1271.03 1804.6 1271 1804.44C1270.99 1804.37 1270.98 1804.31 1270.98 1804.3C1270.97 1804.27 1270.98 1804.31 1270.99 1804.42L1247.03 1805.8ZM1252.23 1819.72C1254.46 1822.36 1258.23 1825.58 1262.44 1828.31C1266.7 1831.06 1272.53 1834.06 1279.01 1835.19L1283.16 1811.56C1281.05 1811.18 1278.29 1809.98 1275.49 1808.16C1274.16 1807.3 1272.99 1806.41 1272.07 1805.64C1271.62 1805.25 1271.25 1804.92 1270.97 1804.65C1270.69 1804.37 1270.57 1804.24 1270.58 1804.25L1252.23 1819.72ZM1279.01 1835.19C1284.53 1836.16 1293.34 1836.43 1303.67 1836.34C1314.31 1836.24 1327.51 1835.74 1342.35 1834.89L1340.97 1810.92C1326.36 1811.76 1313.57 1812.25 1303.45 1812.34C1293 1812.44 1286.24 1812.1 1283.16 1811.56L1279.01 1835.19ZM1342.94 1834.84C1396.8 1829.07 1507.33 1817.3 1519.94 1816.18L1517.82 1792.27C1504.92 1793.42 1394.04 1805.23 1340.38 1810.97L1342.94 1834.84ZM1519.94 1816.18C1536.36 1814.72 1640.8 1804.24 1664.77 1802.36L1662.89 1778.44C1638.99 1780.31 1533.3 1790.9 1517.82 1792.27L1519.94 1816.18ZM1664.77 1802.36C1688.53 1800.5 1866.49 1790.8 2004.46 1782.88L2003.08 1758.92C1865.51 1766.81 1686.99 1776.55 1662.89 1778.44L1664.77 1802.36ZM2004.46 1782.88C2072.96 1778.95 2195.52 1777.9 2309.76 1777.35C2423.54 1776.81 2529.43 1776.77 2563.54 1774.81L2562.16 1750.85C2528.89 1752.76 2424.12 1752.8 2309.65 1753.35C2195.64 1753.9 2072.35 1754.95 2003.08 1758.92L2004.46 1782.88ZM2563.54 1774.81C2630.61 1770.96 2739.21 1769.3 2774.91 1769.18L2774.84 1745.18C2738.97 1745.3 2629.87 1746.96 2562.16 1750.85L2563.54 1774.81ZM2774.91 1769.18C2811.86 1769.06 2839.99 1769.42 2873.66 1772.42L2875.79 1748.51C2841 1745.42 2811.99 1745.05 2774.84 1745.18L2774.91 1769.18ZM2873.66 1772.42C2887.34 1773.63 2928.84 1774.93 2967.14 1776.06C2986.45 1776.62 3005.09 1777.15 3019.37 1777.6C3026.51 1777.83 3032.52 1778.04 3036.95 1778.22C3039.17 1778.31 3040.94 1778.4 3042.25 1778.47C3043.79 1778.56 3044.14 1778.61 3043.9 1778.58L3047.58 1754.86C3045.84 1754.59 3042.02 1754.41 3037.94 1754.24C3033.39 1754.05 3027.29 1753.84 3020.13 1753.62C3005.82 1753.16 2987.11 1752.63 2967.85 1752.07C2929.02 1750.93 2888.55 1749.65 2875.79 1748.51L2873.66 1772.42ZM3043.9 1778.58C3046.31 1778.95 3050.59 1779.25 3054.72 1776.85C3059.84 1773.88 3061.45 1768.85 3061.55 1765.21C3061.63 1762.08 3060.72 1759.49 3060.11 1758.04C3059.43 1756.41 3058.58 1754.97 3057.81 1753.83L3037.97 1767.34C3038.02 1767.41 3038.03 1767.44 3037.98 1767.33C3037.95 1767.25 3037.85 1767.02 3037.76 1766.64C3037.68 1766.28 3037.53 1765.56 3037.56 1764.57C3037.59 1763.56 3037.8 1762.01 3038.67 1760.32C3039.59 1758.52 3041.01 1757.06 3042.67 1756.09C3044.22 1755.19 3045.61 1754.94 3046.38 1754.86C3046.79 1754.82 3047.09 1754.83 3047.28 1754.84C3047.46 1754.84 3047.57 1754.86 3047.58 1754.86L3043.9 1778.58ZM1472.5 1743.34C1455.29 1745.87 1440.57 1748.25 1429.57 1750.36L1434.09 1773.93C1444.58 1771.91 1458.9 1769.6 1476 1767.08L1472.5 1743.34ZM1564.88 1724.72C1524.73 1734.63 1498.77 1739.46 1472.5 1743.34L1476 1767.08C1503.07 1763.09 1529.78 1758.11 1570.63 1748.02L1564.88 1724.72ZM1573.68 1724.08C1572.6 1723.82 1570.77 1723.31 1569.05 1722.7C1568.19 1722.4 1567.51 1722.13 1567.03 1721.9C1566.41 1721.62 1566.62 1721.65 1567.17 1722.08L1552.3 1740.92C1555.17 1743.18 1559.04 1744.62 1561.09 1745.34C1563.66 1746.24 1566.25 1746.97 1567.94 1747.39L1573.68 1724.08ZM1567.17 1722.08C1564.38 1719.88 1542.87 1703.79 1535.1 1699.15L1522.79 1719.75C1529.1 1723.52 1549.54 1738.74 1552.3 1740.92L1567.17 1722.08ZM1535.1 1699.15C1529.4 1695.74 1518.5 1687.43 1502.76 1682.01L1494.95 1704.71C1507.55 1709.04 1514.42 1714.75 1522.79 1719.75L1535.1 1699.15ZM1502.76 1682.01C1496.27 1679.78 1488.19 1676.69 1480.69 1674.62C1473.1 1672.52 1464.33 1670.9 1455.62 1672.28L1459.37 1695.99C1463.02 1695.41 1467.84 1695.97 1474.3 1697.75C1480.85 1699.56 1487.28 1702.07 1494.95 1704.71L1502.76 1682.01ZM1455.62 1672.28C1449.56 1673.24 1444.71 1674.2 1440.93 1675.83C1435.99 1677.95 1433.49 1680.91 1431.72 1683.16L1450.56 1698.03C1451.18 1697.24 1451.19 1697.29 1450.99 1697.46C1450.66 1697.76 1450.36 1697.89 1450.41 1697.87C1450.59 1697.79 1451.23 1697.55 1452.78 1697.2C1454.3 1696.85 1456.39 1696.46 1459.37 1695.99L1455.62 1672.28ZM1431.72 1683.16C1429.1 1686.47 1425.34 1692.78 1425.28 1700.53L1449.28 1700.7C1449.28 1700.7 1449.28 1700.61 1449.33 1700.42C1449.38 1700.22 1449.46 1699.97 1449.59 1699.66C1449.87 1699.01 1450.25 1698.41 1450.56 1698.03L1431.72 1683.16ZM1425.28 1700.53V1700.64L1449.28 1700.81V1700.7L1425.28 1700.53ZM1425.28 1700.63C1425.27 1702.43 1425.12 1706.58 1426.93 1711.09C1428.79 1715.71 1432.1 1719.47 1436.39 1722.85L1451.26 1704.01C1448.96 1702.19 1448.98 1701.58 1449.2 1702.15C1449.39 1702.6 1449.27 1703 1449.28 1700.81L1425.28 1700.63ZM1436.39 1722.85C1439.83 1725.57 1445.37 1729.59 1449.86 1732.97C1454.91 1736.78 1458.55 1739.74 1459.99 1741.29L1477.62 1725C1474.44 1721.56 1468.93 1717.29 1464.31 1713.81C1459.12 1709.9 1454.48 1706.56 1451.26 1704.01L1436.39 1722.85ZM1459.99 1741.29C1461.27 1742.68 1462.24 1743.7 1463.17 1744.76C1464.09 1745.79 1464.64 1746.49 1464.97 1746.98C1465.32 1747.5 1465.12 1747.36 1464.95 1746.67C1464.72 1745.81 1464.6 1744.36 1465.17 1742.77L1487.75 1750.92C1490.51 1743.27 1487.04 1736.8 1484.9 1733.61C1482.71 1730.34 1479.52 1727.06 1477.62 1725L1459.99 1741.29ZM1465.17 1742.77C1465.02 1743.19 1464.62 1744 1463.93 1745.03C1463.27 1746.01 1462.66 1746.74 1462.47 1746.95L1480.28 1763.04C1481.92 1761.23 1485.77 1756.4 1487.75 1750.92L1465.17 1742.77ZM1407.62 1682.28C1401.56 1683.24 1396.71 1684.2 1392.93 1685.82C1388 1687.95 1385.49 1690.91 1383.72 1693.16L1402.56 1708.03C1403.18 1707.24 1403.19 1707.29 1402.99 1707.46C1402.66 1707.76 1402.37 1707.89 1402.41 1707.87C1402.6 1707.79 1403.24 1707.55 1404.78 1707.2C1406.3 1706.85 1408.4 1706.46 1411.38 1705.99L1407.62 1682.28ZM1383.72 1693.16C1381.1 1696.47 1377.34 1702.78 1377.29 1710.53L1401.28 1710.7C1401.28 1710.7 1401.29 1710.61 1401.33 1710.42C1401.38 1710.22 1401.46 1709.97 1401.59 1709.66C1401.87 1709.01 1402.26 1708.41 1402.56 1708.03L1383.72 1693.16ZM1377.29 1710.52L1377.28 1710.63L1401.28 1710.81V1710.7L1377.29 1710.52ZM1377.28 1710.63C1377.27 1712.43 1377.12 1716.58 1378.94 1721.09C1380.79 1725.71 1384.1 1729.47 1388.4 1732.85L1403.26 1714.01C1400.96 1712.19 1400.98 1711.58 1401.21 1712.15C1401.39 1712.6 1401.27 1713 1401.28 1710.81L1377.28 1710.63ZM1388.4 1732.85C1391.83 1735.57 1397.37 1739.59 1401.86 1742.97C1406.91 1746.78 1410.56 1749.74 1411.99 1751.29L1429.62 1735C1426.44 1731.56 1420.93 1727.29 1416.31 1723.81C1411.13 1719.9 1406.49 1716.56 1403.26 1714.01L1388.4 1732.85ZM1411.99 1751.29C1413.27 1752.68 1414.24 1753.7 1415.18 1754.76C1416.09 1755.79 1416.64 1756.49 1416.97 1756.98C1417.32 1757.5 1417.13 1757.36 1416.95 1756.67C1416.72 1755.81 1416.6 1754.36 1417.17 1752.77L1439.75 1760.92C1442.51 1753.27 1439.04 1746.8 1436.9 1743.61C1434.71 1740.34 1431.52 1737.06 1429.62 1735L1411.99 1751.29ZM1417.17 1752.77C1417.08 1753.04 1416.84 1753.56 1416.4 1754.29C1415.98 1754.98 1415.5 1755.66 1415.08 1756.21L1434.09 1770.86C1435.69 1768.78 1438.24 1765.11 1439.75 1760.92L1417.17 1752.77ZM1415.08 1756.21C1414.77 1756.62 1414.55 1756.87 1414.48 1756.95L1432.28 1773.04C1432.84 1772.42 1433.46 1771.68 1434.09 1770.86L1415.08 1756.21ZM1441.08 1687.22C1431.4 1683.96 1419.26 1680.44 1407.62 1682.28L1411.38 1705.99C1416.59 1705.16 1423.63 1706.66 1433.42 1709.96L1441.08 1687.22ZM1562.58 1913C1563.69 1909.11 1564.54 1904.32 1570.7 1897.44C1577.24 1890.14 1590.34 1879.99 1617.34 1868.66L1608.04 1846.53C1579.14 1858.67 1562.56 1870.56 1552.82 1881.43C1542.69 1892.74 1540.68 1902.29 1539.49 1906.45L1562.58 1913ZM1617.34 1868.66C1672.89 1845.33 1697.52 1833.08 1785.77 1819.44L1782.11 1795.73C1691.02 1809.8 1664.3 1822.91 1608.04 1846.53L1617.34 1868.66ZM1785.77 1819.44C1875.44 1805.59 1916.83 1797.56 2047.6 1787.65L2045.79 1763.72C1913.99 1773.7 1871.77 1781.87 1782.11 1795.73L1785.77 1819.44ZM2047.6 1787.65C2112.88 1782.71 2277.6 1777.01 2432.31 1773.07C2509.6 1771.11 2584.26 1769.59 2642.6 1768.82C2701.36 1768.05 2742.63 1768.07 2753.9 1769.06L2756 1745.15C2743.2 1744.03 2700.32 1744.06 2642.28 1744.83C2583.82 1745.59 2509.05 1747.12 2431.7 1749.08C2277.14 1753.01 2111.79 1758.72 2045.79 1763.72L2047.6 1787.65ZM2753.9 1769.06C2778.36 1771.22 2860.75 1773.96 2946.15 1777.2C3032.1 1780.46 3121.21 1784.23 3160.33 1788.39L3162.86 1764.52C3122.73 1760.25 3032.59 1756.46 2947.06 1753.22C2860.97 1749.95 2779.67 1747.24 2756 1745.15L2753.9 1769.06ZM3160.33 1788.39C3199.85 1792.59 3241.52 1797.61 3273.75 1801.81C3289.86 1803.92 3303.57 1805.81 3313.44 1807.29C3318.38 1808.03 3322.28 1808.66 3325.01 1809.15C3326.39 1809.4 3327.36 1809.59 3327.97 1809.73C3328.29 1809.8 3328.39 1809.83 3328.34 1809.81C3328.32 1809.81 3328.17 1809.77 3327.95 1809.69C3327.79 1809.63 3327.25 1809.43 3326.55 1809.06L3337.91 1787.92C3336.57 1787.2 3335.29 1786.84 3334.97 1786.75C3334.38 1786.58 3333.77 1786.43 3333.23 1786.31C3332.12 1786.06 3330.76 1785.8 3329.25 1785.53C3326.19 1784.98 3322.02 1784.31 3317 1783.56C3306.92 1782.04 3293.05 1780.13 3276.85 1778.01C3244.46 1773.79 3202.59 1768.74 3162.86 1764.52L3160.33 1788.39ZM3326.55 1809.06C3327.12 1809.36 3326.97 1809.41 3326.59 1808.91C3326.22 1808.44 3325.46 1807.18 3325.41 1805.17L3349.4 1804.54C3349.19 1796.55 3343.49 1790.91 3337.91 1787.92L3326.55 1809.06ZM3325.41 1805.17C3325.4 1805.06 3325.4 1805.02 3325.4 1805.04C3325.4 1805.06 3325.4 1805.11 3325.39 1805.19C3325.38 1805.35 3325.35 1805.54 3325.31 1805.71C3325.3 1805.79 3325.28 1805.85 3325.27 1805.89C3325.26 1805.93 3325.26 1805.93 3325.27 1805.89C3325.29 1805.85 3325.33 1805.75 3325.4 1805.61C3325.47 1805.46 3325.6 1805.24 3325.8 1804.96L3345.37 1818.85C3347.45 1815.92 3348.36 1812.73 3348.79 1810.7C3349.25 1808.53 3349.44 1806.34 3349.4 1804.54L3325.41 1805.17ZM3325.8 1804.96C3325.81 1804.95 3325.7 1805.1 3325.44 1805.4C3325.19 1805.69 3324.85 1806.05 3324.43 1806.47C3323.57 1807.32 3322.48 1808.3 3321.23 1809.27C3318.59 1811.31 3315.94 1812.75 3313.87 1813.29L3319.97 1836.5C3326.34 1834.83 3331.9 1831.36 3335.91 1828.26C3339.88 1825.18 3343.37 1821.67 3345.37 1818.85L3325.8 1804.96ZM3313.87 1813.29C3310.84 1814.09 3304.14 1814.99 3293.72 1815.77C3283.62 1816.52 3270.84 1817.1 3256.2 1817.49L3256.83 1841.48C3271.69 1841.09 3284.89 1840.49 3295.5 1839.7C3305.8 1838.93 3314.55 1837.93 3319.97 1836.5L3313.87 1813.29ZM3256.8 1817.49C3202.85 1816.24 3091.37 1813.72 3078.42 1813.65L3078.3 1837.65C3090.96 1837.72 3202.08 1840.23 3256.24 1841.48L3256.8 1817.49ZM3078.42 1813.65C3062.88 1813.57 2956.67 1811.84 2932.7 1811.97L2932.83 1835.97C2956.86 1835.84 3061.82 1837.57 3078.3 1837.65L3078.42 1813.65ZM2932.7 1811.97C2908.53 1812.1 2729.82 1817.29 2592.07 1820.9L2592.69 1844.89C2730.85 1841.27 2908.99 1836.1 2932.83 1835.97L2932.7 1811.97ZM2592.07 1820.9L2032.26 1835.58L2032.89 1859.58L2592.69 1844.89L2592.07 1820.9ZM2032.26 1835.58C1964.46 1837.36 1855.6 1844.8 1819.85 1847.67L1821.78 1871.6C1857.37 1868.74 1965.73 1861.34 2032.89 1859.58L2032.26 1835.58ZM1819.85 1847.67C1782.82 1850.65 1753.94 1853.43 1719.53 1859.42L1723.64 1883.06C1756.95 1877.27 1784.95 1874.56 1821.78 1871.6L1819.85 1847.67ZM1719.53 1859.42C1705.74 1861.82 1664.78 1872.72 1627.28 1882.95C1589.09 1893.37 1554.13 1903.21 1550.87 1904L1556.51 1927.32C1560.21 1926.43 1596.12 1916.33 1633.6 1906.1C1671.78 1895.68 1711.28 1885.22 1723.64 1883.06L1719.53 1859.42ZM1550.87 1904C1550.88 1903.99 1550.98 1903.97 1551.17 1903.94C1551.36 1903.92 1551.66 1903.89 1552.06 1903.9C1552.84 1903.91 1554.24 1904.04 1555.87 1904.81C1557.61 1905.64 1559.14 1906.97 1560.21 1908.69C1561.22 1910.31 1561.56 1911.83 1561.67 1912.83C1561.78 1913.82 1561.69 1914.55 1561.64 1914.91C1561.58 1915.3 1561.5 1915.54 1561.48 1915.62C1561.44 1915.74 1561.44 1915.7 1561.48 1915.63L1540.59 1903.83C1539.91 1905.02 1539.19 1906.53 1538.65 1908.21C1538.17 1909.7 1537.47 1912.37 1537.81 1915.47C1538.21 1919.09 1540.24 1923.97 1545.59 1926.5C1549.91 1928.55 1554.14 1927.9 1556.51 1927.32L1550.87 1904ZM3051.35 1779.71C3052.96 1779.06 3055.42 1777.97 3057.84 1776.7C3059.76 1775.7 3063.39 1773.72 3065.9 1771.07L3048.49 1754.55C3048.97 1754.05 3049.17 1753.99 3048.61 1754.36C3048.16 1754.65 3047.52 1755.01 3046.72 1755.44C3045.1 1756.28 3043.36 1757.05 3042.34 1757.47L3051.35 1779.71ZM3065.9 1771.07C3068.32 1768.52 3086.38 1750.54 3092.08 1745.91L3076.95 1727.27C3069.92 1732.98 3050.93 1751.98 3048.49 1754.55L3065.9 1771.07ZM3092.08 1745.91C3099.65 1739.76 3105.64 1733.13 3117.48 1727.03L3106.51 1705.69C3091.71 1713.3 3082.11 1723.08 3076.95 1727.27L3092.08 1745.91ZM3117.48 1727.03C3124.7 1723.32 3130.7 1719.93 3136.93 1717.2C3143.06 1714.51 3147.76 1713.27 3151.45 1713.32L3151.78 1689.32C3142.96 1689.2 3134.51 1692.05 3127.29 1695.22C3120.17 1698.34 3112.62 1702.55 3106.51 1705.69L3117.48 1727.03ZM3151.45 1713.32C3154.47 1713.36 3156.6 1713.45 3158.15 1713.57C3159.73 1713.7 3160.4 1713.85 3160.59 1713.9C3160.64 1713.92 3160.33 1713.82 3159.96 1713.58C3159.74 1713.44 3159.74 1713.38 3160.47 1714.08L3176.99 1696.67C3174.91 1694.7 3172.01 1692.12 3166.82 1690.73C3162.85 1689.66 3157.92 1689.4 3151.78 1689.32L3151.45 1713.32ZM3160.47 1714.08C3160.82 1714.41 3161.29 1714.95 3161.66 1715.56C3161.83 1715.84 3161.95 1716.08 3162.02 1716.27C3162.1 1716.45 3162.11 1716.54 3162.11 1716.54L3185.84 1712.94C3184.68 1705.28 3180.05 1699.57 3176.99 1696.67L3160.47 1714.08ZM3162.11 1716.54L3162.13 1716.64L3185.86 1713.05L3185.84 1712.94L3162.11 1716.54ZM3162.13 1716.65C3162.21 1717.19 3162.26 1717.53 3162.3 1717.83C3162.33 1718.11 3162.34 1718.25 3162.34 1718.31C3162.34 1718.36 3162.34 1718.32 3162.35 1718.22C3162.36 1718.12 3162.38 1718.01 3162.41 1717.9L3185.54 1724.31C3186.93 1719.27 3186.14 1714.94 3185.85 1713.04L3162.13 1716.65ZM3118.44 1780.13C3118.43 1780.14 3118.45 1780.11 3118.53 1780.04C3118.59 1779.97 3118.69 1779.88 3118.81 1779.76C3119.05 1779.53 3119.36 1779.22 3119.75 1778.85C3120.53 1778.11 3121.54 1777.15 3122.73 1776.04C3125.1 1773.82 3128.13 1771.03 3131.29 1768.15C3137.72 1762.28 3144.31 1756.39 3147.17 1754.06L3132.04 1735.43C3125.36 1740.85 3103.89 1760.59 3101.03 1763.61L3118.44 1780.13ZM3147.17 1754.06C3154.74 1747.91 3160.72 1741.28 3172.57 1735.19L3161.6 1713.85C3146.79 1721.46 3137.2 1731.24 3132.04 1735.43L3147.17 1754.06ZM3206.54 1721.47C3209.55 1721.51 3211.69 1721.6 3213.24 1721.73C3214.82 1721.86 3215.49 1722.01 3215.68 1722.06C3215.73 1722.07 3215.42 1721.98 3215.04 1721.74C3214.83 1721.6 3214.83 1721.54 3215.56 1722.23L3232.08 1704.82C3230 1702.85 3227.1 1700.28 3221.91 1698.88C3217.94 1697.81 3213 1697.56 3206.87 1697.48L3206.54 1721.47ZM3215.56 1722.23C3215.91 1722.57 3216.38 1723.11 3216.75 1723.71C3216.92 1724 3217.04 1724.24 3217.11 1724.42C3217.19 1724.61 3217.2 1724.7 3217.2 1724.69L3240.93 1721.09C3239.77 1713.44 3235.14 1707.73 3232.08 1704.82L3215.56 1722.23ZM3217.2 1724.69L3217.21 1724.8L3240.94 1721.2L3240.93 1721.09L3217.2 1724.69ZM3217.22 1724.8C3217.54 1726.97 3217.37 1726.59 3217.48 1726.12C3217.63 1725.53 3217.74 1726.13 3215.71 1728.26L3233.12 1744.78C3236.89 1740.81 3239.63 1736.62 3240.8 1731.79C3241.95 1727.06 3241.21 1722.98 3240.94 1721.2L3217.22 1724.8ZM3215.71 1728.26C3212.89 1731.24 3208.77 1735.21 3204.2 1739.82C3200.13 1743.92 3195.28 1748.94 3192.63 1752.8L3212.4 1766.4C3213.6 1764.66 3216.79 1761.21 3221.24 1756.72C3225.2 1752.73 3230.11 1747.96 3233.12 1744.78L3215.71 1728.26ZM3192.63 1752.8C3191.04 1755.11 3188.36 1758.81 3186.65 1762.36C3184.99 1765.83 3182.48 1772.72 3186.31 1779.9L3207.49 1768.61C3208.28 1770.1 3208.37 1771.55 3208.27 1772.44C3208.19 1773.14 3208.02 1773.31 3208.29 1772.74C3208.55 1772.21 3208.99 1771.44 3209.75 1770.29C3210.52 1769.1 3211.33 1767.96 3212.4 1766.4L3192.63 1752.8ZM3186.31 1779.9C3189.05 1785.04 3193.55 1789.27 3195.43 1790.83L3210.76 1772.36C3210.54 1772.18 3209.83 1771.54 3209.04 1770.66C3208.21 1769.74 3207.7 1769 3207.49 1768.61L3186.31 1779.9ZM3172.57 1735.19C3175.26 1733.81 3178.02 1732.34 3180.58 1730.99L3169.42 1709.74C3166.69 1711.18 3164.16 1712.53 3161.6 1713.85L3172.57 1735.19ZM3180.58 1730.99C3191.98 1725.01 3200.08 1721.38 3206.54 1721.47L3206.87 1697.48C3193.23 1697.29 3179.6 1704.4 3169.42 1709.74L3180.58 1730.99ZM2846.59 1837.21C2864.46 1845.69 2891.49 1858.74 2914.52 1870.36C2926.05 1876.17 2936.47 1881.58 2944.22 1885.84C2948.11 1887.99 2951.18 1889.77 2953.33 1891.12C2954.41 1891.8 2955.11 1892.28 2955.5 1892.58C2956.23 1893.13 2955.4 1892.64 2954.47 1891.34L2974 1877.39C2972.57 1875.4 2970.7 1873.98 2969.91 1873.38C2968.78 1872.54 2967.47 1871.67 2966.12 1870.81C2963.39 1869.09 2959.85 1867.05 2955.8 1864.82C2947.67 1860.35 2936.94 1854.79 2925.33 1848.93C2902.07 1837.2 2874.85 1824.05 2856.88 1815.53L2846.59 1837.21ZM2954.47 1891.34C2954.45 1891.31 2954.6 1891.52 2954.94 1892.12C2955.26 1892.68 2955.65 1893.41 2956.13 1894.32C2957.09 1896.16 2958.25 1898.53 2959.58 1901.32C2962.23 1906.89 2965.38 1913.85 2968.6 1921.02C2974.89 1935.07 2981.6 1950.43 2984.5 1956.23L3005.97 1945.5C3003.37 1940.31 2997.08 1925.92 2990.5 1911.21C2987.28 1904.01 2984.03 1896.85 2981.25 1891.01C2978.7 1885.65 2976 1880.2 2974 1877.39L2954.47 1891.34ZM2984.5 1956.23C2987.56 1962.34 2994.5 1973.42 3000.19 1982.7C3003.16 1987.55 3005.89 1992.05 3007.92 1995.65C3008.94 1997.46 3009.7 1998.89 3010.21 1999.94C3010.9 2001.36 3010.63 2001.11 3010.43 2000.01L3034.04 1995.72C3033.59 1993.25 3032.47 1990.84 3031.82 1989.5C3030.99 1987.79 3029.95 1985.85 3028.82 1983.85C3026.55 1979.84 3023.62 1975 3020.65 1970.16C3014.47 1960.06 3008.41 1950.39 3005.97 1945.5L2984.5 1956.23ZM3010.43 2000.01C3010.87 2002.47 3011.68 2004.96 3013.22 2007.27C3013.97 2008.41 3014.73 2009.24 3015.3 2009.8C3015.55 2010.05 3015.78 2010.26 3015.86 2010.34C3015.98 2010.45 3015.94 2010.42 3015.88 2010.35C3015.69 2010.16 3015.23 2009.68 3014.77 2008.96C3014.3 2008.23 3014.02 2007.55 3013.86 2007.02C3013.6 2006.17 3013.74 2005.99 3013.74 2007.37H3037.74C3037.74 2005 3037.56 2002.44 3036.8 1999.96C3036.39 1998.63 3035.81 1997.32 3035.02 1996.07C3034.23 1994.84 3033.41 1993.95 3032.85 1993.38C3031.35 1991.89 3032.68 1993.21 3033.19 1993.96C3033.98 1995.15 3034.1 1996.02 3034.04 1995.72L3010.43 2000.01ZM3013.74 2007.37C3013.74 2014.67 3013.71 2036.04 3015.85 2051.51L3039.62 2048.23C3037.76 2034.7 3037.74 2015.07 3037.74 2007.37H3013.74ZM3015.85 2051.51C3016.8 2058.38 3021.12 2110.73 3025.91 2164.37C3028.28 2190.98 3030.76 2217.69 3032.96 2238.78C3034.05 2249.31 3035.09 2258.51 3036.02 2265.62C3036.88 2272.22 3037.78 2278.23 3038.78 2281.45L3061.69 2274.29C3061.7 2274.33 3061.63 2274.08 3061.48 2273.4C3061.35 2272.76 3061.19 2271.92 3061.02 2270.85C3060.66 2268.72 3060.26 2265.93 3059.81 2262.52C3058.93 2255.71 3057.92 2246.75 3056.83 2236.29C3054.65 2215.39 3052.19 2188.82 3049.81 2162.24C3045.1 2109.5 3040.68 2055.86 3039.62 2048.23L3015.85 2051.51ZM3038.78 2281.45C3041.11 2288.91 3045.62 2307.85 3049.86 2326.03C3051.95 2334.96 3053.94 2343.59 3055.5 2350.18C3056.29 2353.47 3056.97 2356.31 3057.52 2358.47C3057.79 2359.54 3058.04 2360.5 3058.26 2361.29C3058.41 2361.81 3058.75 2363.03 3059.21 2364.1L3081.27 2354.64C3081.53 2355.27 3081.59 2355.59 3081.37 2354.81C3081.23 2354.3 3081.03 2353.56 3080.78 2352.57C3080.28 2350.6 3079.63 2347.9 3078.86 2344.64C3077.31 2338.11 3075.34 2329.59 3073.23 2320.58C3069.1 2302.89 3064.36 2282.82 3061.69 2274.29L3038.78 2281.45ZM3059.21 2364.1C3060.87 2367.98 3063.64 2370.24 3065.76 2371.52C3066.75 2372.11 3067.66 2372.52 3068.21 2372.76C3068.47 2372.88 3068.75 2373 3068.89 2373.06C3069.06 2373.13 3069.12 2373.16 3069.14 2373.17C3069.24 2373.21 3068.78 2373.02 3068.15 2372.58C3067.48 2372.1 3066.36 2371.17 3065.43 2369.62C3064.45 2367.98 3064.03 2366.25 3063.99 2364.74C3063.96 2363.36 3064.24 2362.4 3064.35 2362.07L3087.12 2369.66C3088.09 2366.76 3088.84 2361.98 3086.01 2357.27C3083.62 2353.28 3079.88 2351.68 3079.08 2351.32C3078.76 2351.17 3078.46 2351.05 3078.27 2350.97C3078.05 2350.87 3077.96 2350.83 3077.86 2350.79C3077.66 2350.7 3077.83 2350.77 3078.11 2350.94C3078.83 2351.37 3080.35 2352.51 3081.27 2354.64L3059.21 2364.1ZM3064.35 2362.07C3064.82 2360.66 3065.47 2359.91 3065.53 2359.84C3065.64 2359.72 3065.57 2359.82 3065.17 2360.14C3064.37 2360.8 3063.05 2361.68 3061.25 2362.72C3057.68 2364.78 3053.53 2366.69 3050.77 2367.94L3060.7 2389.79C3063.44 2388.55 3068.54 2386.21 3073.22 2383.52C3075.54 2382.18 3078.1 2380.56 3080.33 2378.75C3082.1 2377.31 3085.59 2374.26 3087.12 2369.66L3064.35 2362.07ZM3050.77 2367.94C3051.7 2367.52 3051.77 2367.66 3049.27 2368.11C3047.35 2368.45 3044.66 2368.86 3041.19 2369.32C3034.29 2370.23 3024.84 2371.31 3013.37 2372.56C2990.55 2375.05 2959.9 2378.19 2926.88 2381.94L2929.59 2405.79C2962.57 2402.04 2992.92 2398.94 3015.97 2396.42C3027.44 2395.17 3037.15 2394.07 3044.36 2393.11C3047.95 2392.63 3051.05 2392.17 3053.5 2391.74C3055.37 2391.4 3058.4 2390.84 3060.7 2389.79L3050.77 2367.94ZM2926.88 2381.94C2894.19 2385.66 2820.45 2391.39 2753.84 2396.02C2720.59 2398.33 2689.22 2400.36 2665.77 2401.72C2654.04 2402.39 2644.34 2402.9 2637.39 2403.19C2633.91 2403.34 2631.19 2403.43 2629.29 2403.46C2628.32 2403.47 2627.67 2403.47 2627.26 2403.46C2626.4 2403.44 2627.23 2403.4 2628.43 2403.68L2623.04 2427.06C2624.64 2427.43 2626.32 2427.45 2626.71 2427.46C2627.56 2427.48 2628.58 2427.47 2629.67 2427.45C2631.88 2427.42 2634.84 2427.32 2638.39 2427.17C2645.53 2426.87 2655.38 2426.36 2667.15 2425.68C2690.72 2424.31 2722.19 2422.28 2755.5 2419.96C2822.02 2415.34 2896.28 2409.58 2929.59 2405.79L2926.88 2381.94ZM2628.43 2403.68C2630.02 2404.04 2632.86 2406.06 2632.86 2410.06C2632.86 2411.97 2632.11 2414.16 2630.35 2415.83C2628.56 2417.54 2626.63 2417.87 2625.74 2417.87V2393.87C2621.59 2393.87 2617.23 2395.19 2613.81 2398.45C2610.42 2401.67 2608.86 2405.96 2608.86 2410.06C2608.86 2418.43 2614.95 2425.19 2623.04 2427.06L2628.43 2403.68ZM2625.74 2417.87C2632.7 2417.87 2686.61 2415.34 2733.5 2412.34L2731.97 2388.39C2684.86 2391.4 2631.77 2393.87 2625.74 2393.87V2417.87ZM2733.5 2412.34L2736.95 2412.12L2735.42 2388.17L2731.97 2388.39L2733.5 2412.34ZM2736.95 2412.12C2763.66 2410.42 2829.84 2406.2 2892.41 2401.85C2923.69 2399.68 2954.1 2397.47 2978.24 2395.53C3002 2393.62 3020.52 2391.91 3027.36 2390.68L3023.11 2367.06C3017.73 2368.03 3000.69 2369.65 2976.31 2371.61C2952.31 2373.54 2922 2375.74 2890.75 2377.91C2828.25 2382.25 2762.13 2386.47 2735.42 2388.17L2736.95 2412.12ZM3027.36 2390.68C3037.39 2388.87 3043.26 2387.71 3046.54 2386.98C3047.98 2386.66 3049.5 2386.29 3050.67 2385.88C3050.96 2385.78 3051.72 2385.51 3052.58 2385.04C3052.96 2384.84 3053.94 2384.3 3054.98 2383.36C3055.56 2382.84 3058.91 2379.83 3058.97 2374.54C3059.03 2368.04 3054.38 2364.8 3052.82 2363.93C3051.12 2362.97 3049.6 2362.67 3049.13 2362.59C3047.96 2362.37 3047 2362.37 3046.74 2362.37V2386.37C3046.62 2386.37 3045.77 2386.38 3044.69 2386.17C3044.26 2386.09 3042.77 2385.8 3041.08 2384.86C3039.54 2384 3034.9 2380.77 3034.97 2374.29C3035.02 2369.02 3038.36 2366.03 3038.92 2365.53C3039.94 2364.61 3040.88 2364.09 3041.22 2363.91C3041.99 2363.49 3042.6 2363.28 3042.69 2363.25C3043.06 2363.12 3042.88 2363.2 3041.31 2363.56C3038.54 2364.17 3033.08 2365.26 3023.11 2367.06L3027.36 2390.68ZM3055.58 2366.26C3055.12 2365.76 3054 2364.41 3052.81 2362.6C3051.6 2360.77 3050.6 2358.91 3050.04 2357.33L3027.43 2365.4C3030.18 2373.09 3035.48 2379.85 3037.89 2382.48L3055.58 2366.26ZM3050.04 2357.33C3050.24 2357.9 3050.17 2357.85 3049.83 2356.15C3049.57 2354.82 3049.24 2352.96 3048.84 2350.62C3048.04 2345.93 3047.03 2339.51 3045.88 2331.83C3043.57 2316.47 3040.72 2296.22 3037.95 2275C3032.35 2232.15 3027.24 2186.66 3027.24 2168.87H3003.24C3003.24 2188.58 3008.62 2235.84 3014.15 2278.11C3016.94 2299.46 3019.81 2319.86 3022.14 2335.39C3023.31 2343.15 3024.35 2349.74 3025.18 2354.63C3025.59 2357.08 3025.97 2359.16 3026.29 2360.78C3026.53 2362.04 3026.92 2363.96 3027.43 2365.4L3050.04 2357.33ZM3027.24 2168.87C3027.24 2149.13 3023.47 2115.27 3018.37 2084.1C3015.81 2068.42 3012.86 2053.15 3009.8 2040.4C3006.85 2028.11 3003.48 2016.81 2999.73 2010.04L2978.75 2021.7C2980.71 2025.24 2983.47 2033.53 2986.46 2046C2989.35 2058.01 2992.18 2072.67 2994.69 2087.97C2999.73 2118.78 3003.24 2151.11 3003.24 2168.87H3027.24ZM2999.73 2010.04C2994.2 2000.1 2984.89 1987.27 2974.74 1975.75C2964.78 1964.45 2952.85 1953.07 2941.84 1947.26L2930.63 1968.48C2937.62 1972.17 2947.19 1980.79 2956.73 1991.62C2966.08 2002.22 2974.27 2013.64 2978.75 2021.7L2999.73 2010.04ZM2941.84 1947.26C2907.8 1929.29 2871.79 1928.83 2850.84 1930.4L2852.63 1954.33C2871.68 1952.91 2902.4 1953.58 2930.63 1968.48L2941.84 1947.26ZM2850.84 1930.4C2831.25 1931.87 2583.58 1938.87 2571.74 1938.87V1962.87C2583.89 1962.87 2832.22 1955.87 2852.63 1954.33L2850.84 1930.4ZM2643.18 2405.48C2645.35 2382.18 2649.46 2327.19 2648.23 2295.9L2624.24 2296.84C2625.41 2326.35 2621.46 2379.89 2619.29 2403.26L2643.18 2405.48ZM2648.23 2295.9C2646.76 2258.74 2644.23 2138.51 2639.13 2100.76L2615.34 2103.98C2620.24 2140.22 2622.71 2257.99 2624.24 2296.84L2648.23 2295.9ZM2639.13 2100.76C2636.67 2082.55 2635.23 2061.47 2633.37 2042.16C2632.46 2032.69 2631.44 2023.66 2630.13 2016.04C2628.91 2008.86 2627.19 2001.38 2624.23 1996.04L2603.25 2007.7C2604.03 2009.11 2605.25 2012.94 2606.48 2020.09C2607.63 2026.8 2608.58 2035.11 2609.48 2044.46C2611.24 2062.77 2612.8 2085.19 2615.34 2103.98L2639.13 2100.76ZM2624.23 1996.04C2622.66 1993.23 2621.2 1989.84 2619.08 1985.13C2617.08 1980.7 2614.65 1975.5 2611.51 1970.3C2605.13 1959.7 2595.62 1948.78 2579.8 1942.27L2570.67 1964.46C2580.35 1968.45 2586.35 1975.03 2590.96 1982.69C2593.32 1986.61 2595.27 1990.73 2597.21 1995.01C2599.02 1999.03 2601.06 2003.76 2603.25 2007.7L2624.23 1996.04ZM2579.8 1942.27C2574.12 1939.93 2569.42 1937.38 2564.46 1934.62C2559.59 1931.92 2554.22 1928.86 2548 1926.17C2535.06 1920.57 2519.25 1916.87 2493.24 1916.87V1940.87C2516.73 1940.87 2529.16 1944.17 2538.47 1948.19C2543.38 1950.32 2547.63 1952.73 2552.79 1955.6C2557.86 1958.42 2563.6 1961.55 2570.67 1964.46L2579.8 1942.27ZM2493.24 1916.87C2467.91 1916.87 2436.18 1919.29 2407.2 1921.66C2377.77 1924.06 2351.6 1926.37 2336.24 1926.37V1950.37C2352.87 1950.37 2380.45 1947.92 2409.15 1945.58C2438.3 1943.2 2469.06 1940.87 2493.24 1940.87V1916.87ZM2088.48 1935.89C2072.11 1936.93 2002.47 1945.77 1935.81 1955.88C1902.37 1960.95 1869.39 1966.39 1843.92 1971.39C1831.22 1973.89 1820.18 1976.31 1811.82 1978.57C1807.66 1979.69 1803.93 1980.84 1800.89 1982.01C1799.37 1982.59 1797.84 1983.25 1796.42 1984.01C1795.16 1984.68 1793.26 1985.81 1791.59 1987.55L1808.89 2004.19C1807.99 2005.11 1807.33 2005.39 1807.73 2005.18C1807.97 2005.05 1808.53 2004.78 1809.5 2004.41C1811.44 2003.67 1814.28 2002.77 1818.08 2001.74C1825.64 1999.7 1836.04 1997.4 1848.55 1994.94C1873.52 1990.04 1906.1 1984.66 1939.41 1979.61C2006.25 1969.47 2074.86 1960.81 2090 1959.84L2088.48 1935.89ZM1791.59 1987.55C1790 1989.2 1788.94 1991.07 1788.31 1992.27C1787.58 1993.66 1786.89 1995.21 1786.24 1996.81C1784.94 2000.02 1783.55 2004.06 1782.09 2008.71C1779.17 2018.03 1775.76 2030.5 1772.08 2045.06C1764.73 2074.23 1756.19 2112.36 1748.22 2151.74C1740.26 2191.12 1732.84 2231.9 1727.76 2266.37C1722.75 2300.24 1719.75 2329.57 1721.3 2345.06L1745.18 2342.67C1743.98 2330.67 1746.4 2304.37 1751.5 2269.87C1756.5 2235.96 1763.84 2195.62 1771.75 2156.5C1779.66 2117.38 1788.12 2079.64 1795.36 2050.93C1798.98 2036.55 1802.26 2024.58 1804.99 2015.89C1806.36 2011.52 1807.53 2008.17 1808.49 2005.82C1808.96 2004.64 1809.32 2003.87 1809.55 2003.44C1809.88 2002.81 1809.69 2003.35 1808.89 2004.19L1791.59 1987.55ZM1721.3 2345.06C1726.83 2400.38 1740.87 2504.63 1754.89 2591.77L1778.58 2587.96C1764.61 2501.11 1750.64 2397.36 1745.18 2342.67L1721.3 2345.06ZM1754.89 2591.77C1765.82 2659.7 1759.45 2756.11 1754.82 2795.98L1778.66 2798.75C1783.36 2758.3 1790.05 2659.23 1778.58 2587.96L1754.89 2591.77ZM1763.02 2808.78C1785.44 2816.08 1845.25 2830.55 1909.08 2831.37L1909.39 2807.37C1848.42 2806.59 1791.03 2792.66 1770.45 2785.96L1763.02 2808.78ZM1909.08 2831.37C1971.61 2832.17 2090.33 2831.7 2141.81 2831.37L2141.66 2807.37C2090.15 2807.7 1971.66 2808.17 1909.39 2807.37L1909.08 2831.37ZM2153.7 2820.24C2156.07 2787.78 2159.35 2699.45 2153.72 2603.66L2129.76 2605.07C2135.32 2699.69 2132.07 2786.96 2129.77 2818.5L2153.7 2820.24ZM2336.24 1926.37C2315.12 1926.37 2230.05 1929.55 2164.73 1932.31L2165.74 1956.29C2231.34 1953.52 2315.77 1950.37 2336.24 1950.37V1926.37ZM2164.73 1932.31C2129.48 1933.8 2099.66 1935.18 2088.48 1935.89L2090 1959.84C2100.88 1959.15 2130.42 1957.78 2165.74 1956.29L2164.73 1932.31ZM2153.72 2603.66C2148.17 2509.35 2167.02 2125.78 2177.22 1944.98L2153.26 1943.63C2143.11 2123.53 2124.1 2508.99 2129.76 2605.07L2153.72 2603.66ZM2166.75 1943.2C2160.77 2050.07 2148.93 2278.1 2149.74 2331.05L2173.73 2330.68C2172.94 2278.84 2184.7 2052 2190.72 1944.54L2166.75 1943.2ZM2149.74 2331.05C2150.53 2383.31 2150.07 2677.25 2149.74 2817.84L2173.74 2817.9C2174.07 2677.48 2174.54 2383.22 2173.73 2330.68L2149.74 2331.05ZM2162.02 2829.86C2197.52 2829.03 2286.76 2825.35 2360.05 2817.3L2357.42 2793.44C2285.11 2801.39 2196.62 2805.04 2161.45 2805.87L2162.02 2829.86ZM2360.05 2817.3C2432.85 2809.3 2490.06 2802.96 2509.56 2800.79L2506.91 2776.94C2487.42 2779.11 2430.22 2785.44 2357.42 2793.44L2360.05 2817.3ZM2520.17 2787.6C2517.85 2765.72 2514.72 2731.86 2512.86 2701.44C2511.94 2686.21 2511.34 2672 2511.31 2660.64C2511.3 2654.96 2511.43 2650.14 2511.7 2646.34C2512 2642.28 2512.42 2640.26 2512.62 2639.66L2489.85 2632.07C2488.65 2635.68 2488.09 2640.22 2487.77 2644.58C2487.43 2649.21 2487.3 2654.7 2487.31 2660.7C2487.34 2672.73 2487.97 2687.47 2488.91 2702.9C2490.79 2733.78 2493.96 2768.02 2496.3 2790.13L2520.17 2787.6ZM2512.62 2639.66C2513.45 2637.16 2515.46 2634.23 2519.4 2630.68C2523.34 2627.12 2528.41 2623.65 2534.41 2619.74C2540.14 2616.01 2546.86 2611.8 2552.87 2607.29C2558.92 2602.75 2565.07 2597.33 2569.65 2590.64L2549.83 2577.1C2547.4 2580.66 2543.62 2584.23 2538.47 2588.09C2533.3 2591.97 2527.58 2595.54 2521.31 2599.62C2515.32 2603.53 2508.81 2607.9 2503.32 2612.86C2497.83 2617.82 2492.52 2624.07 2489.85 2632.07L2512.62 2639.66ZM2569.65 2590.64C2586.7 2565.67 2585.5 2535.63 2570.14 2508.89L2549.33 2520.85C2560.97 2541.1 2560.78 2561.07 2549.83 2577.1L2569.65 2590.64ZM2570.14 2508.89C2564.9 2499.77 2561.13 2482.04 2562.92 2465.07C2564.74 2447.85 2571.53 2436.41 2582.18 2432.7L2574.29 2410.03C2550.45 2418.33 2541.23 2441.88 2539.05 2462.55C2536.84 2483.44 2541.07 2506.47 2549.33 2520.85L2570.14 2508.89ZM2582.18 2432.7C2595.7 2428 2605.23 2425.3 2611.55 2423.83C2614.72 2423.09 2616.98 2422.69 2618.47 2422.49C2620.29 2422.24 2620.24 2422.4 2619.25 2422.28L2622.22 2398.46C2619.9 2398.17 2617.31 2398.42 2615.23 2398.71C2612.81 2399.03 2609.79 2399.6 2606.12 2400.46C2598.75 2402.17 2588.38 2405.14 2574.29 2410.03L2582.18 2432.7ZM3059.82 2369.17C3058.11 2374.43 3057.32 2384.41 3057.79 2398.73C3058.29 2413.64 3060.23 2434.63 3064.9 2462.83L3088.57 2458.91C3084.04 2431.5 3082.23 2411.58 3081.78 2397.93C3081.55 2391.1 3081.67 2385.94 3081.93 2382.25C3082.06 2380.4 3082.22 2379 3082.38 2377.98C3082.55 2376.9 3082.67 2376.5 3082.65 2376.57L3059.82 2369.17ZM3064.9 2462.83C3070.57 2497.1 3075.53 2545.2 3079.66 2589.54C3083.76 2633.51 3087.05 2674.11 3089.33 2692.36L3113.14 2689.38C3110.92 2671.63 3107.72 2631.97 3103.56 2587.32C3099.44 2543.03 3094.4 2494.14 3088.57 2458.91L3064.9 2462.83ZM3089.33 2692.36C3092.92 2721.1 3096.15 2748.92 3097.31 2759.21L3121.16 2756.52C3119.99 2746.15 3116.75 2718.24 3113.14 2689.38L3089.33 2692.36ZM3103.43 2747.37L3084.43 2757.87L3096.04 2778.87L3115.04 2768.37L3103.43 2747.37ZM2497.42 2793.27C2504.46 2803.29 2511.68 2811.03 2522.58 2815.62C2532.88 2819.95 2545.15 2820.87 2560.74 2820.87V2796.87C2545.32 2796.87 2537.35 2795.79 2531.89 2793.49C2527.04 2791.46 2523.01 2787.95 2517.05 2779.47L2497.42 2793.27ZM2560.74 2820.87C2573.63 2820.87 2593.35 2819.58 2612.2 2818.34C2631.44 2817.08 2649.73 2815.87 2660.74 2815.87V2791.87C2648.74 2791.87 2629.44 2793.16 2610.62 2794.39C2591.42 2795.66 2572.65 2796.87 2560.74 2796.87V2820.87ZM2682.18 2706.31C2674.06 2718.78 2665.75 2732.37 2659.32 2745.51C2653.02 2758.36 2647.88 2772 2647.25 2784.25L2671.22 2785.48C2671.59 2778.24 2674.93 2768.18 2680.87 2756.07C2686.67 2744.23 2694.36 2731.58 2702.29 2719.42L2682.18 2706.31ZM2647.25 2784.25C2647.04 2788.41 2646.47 2795.48 2646.69 2801.3C2646.79 2804.21 2647.1 2807.79 2648.14 2811.1C2649.02 2813.93 2651.62 2820.21 2658.79 2822.36L2665.68 2799.37C2667.96 2800.06 2669.42 2801.42 2670.19 2802.44C2670.56 2802.91 2670.77 2803.31 2670.88 2803.54C2671 2803.78 2671.04 2803.92 2671.04 2803.92C2671.04 2803.92 2671.02 2803.85 2670.98 2803.67C2670.94 2803.49 2670.9 2803.24 2670.86 2802.93C2670.77 2802.28 2670.71 2801.45 2670.67 2800.43C2670.51 2796.01 2670.95 2790.82 2671.22 2785.48L2647.25 2784.25ZM2658.79 2822.36C2661.98 2823.32 2670.46 2825.31 2680.39 2826.74C2690.21 2828.17 2702.68 2829.24 2713.39 2827.75L2710.08 2803.98C2702.79 2805 2693.01 2804.32 2683.83 2802.99C2674.76 2801.68 2667.49 2799.92 2665.68 2799.37L2658.79 2822.36ZM2713.39 2827.75C2722 2826.56 2731.72 2825.32 2739.88 2822.86C2747.96 2820.43 2757.35 2816.02 2762.37 2806.44L2741.11 2795.3C2740.62 2796.22 2739.01 2798.06 2732.97 2799.88C2727 2801.67 2719.47 2802.68 2710.08 2803.98L2713.39 2827.75ZM2762.37 2806.44C2764.01 2803.3 2765.52 2799.72 2766.92 2796.45C2768.38 2793.01 2769.82 2789.62 2771.52 2786.16C2774.88 2779.29 2778.98 2772.7 2784.93 2767.13L2768.54 2749.61C2759.66 2757.91 2754.02 2767.31 2749.96 2775.61C2747.94 2779.73 2746.26 2783.7 2744.83 2787.05C2743.34 2790.56 2742.21 2793.19 2741.11 2795.3L2762.37 2806.44ZM2784.93 2767.13C2792.23 2760.31 2798.01 2755.98 2804.77 2752.9C2811.58 2749.8 2820.17 2747.64 2833.43 2746.31L2831.04 2722.43C2816.31 2723.9 2804.89 2726.48 2794.83 2731.06C2784.72 2735.66 2776.75 2741.93 2768.54 2749.61L2784.93 2767.13ZM2833.43 2746.31C2873.63 2742.29 2930.96 2737.37 2951.24 2737.37V2713.37C2929.51 2713.37 2870.84 2718.45 2831.04 2722.43L2833.43 2746.31ZM2951.24 2737.37C2968.48 2737.37 2980.78 2745.64 2985.7 2751.27L3003.77 2735.47C2994.69 2725.09 2975.99 2713.37 2951.24 2713.37V2737.37ZM2985.7 2751.27C2988.72 2754.72 2991.35 2759.15 2996.37 2766.16C3000.81 2772.34 3006.61 2779.67 3014.26 2785.13L3028.21 2765.6C3023.89 2762.52 3019.95 2757.85 3015.87 2752.17C3012.39 2747.31 3007.75 2740.02 3003.77 2735.47L2985.7 2751.27ZM3014.26 2785.13C3016.95 2787.05 3021.91 2791.17 3028.79 2793.7C3036 2796.34 3044.65 2797.19 3056.19 2795.78L3053.28 2771.96C3044.32 2773.05 3039.72 2772.14 3037.06 2771.17C3034.06 2770.07 3032.52 2768.68 3028.21 2765.6L3014.26 2785.13ZM3056.19 2795.78C3066.63 2794.51 3075.58 2793.07 3082.46 2791.51C3085.88 2790.73 3089.05 2789.86 3091.73 2788.87C3093.98 2788.04 3097.51 2786.56 3100.22 2783.85L3083.25 2766.88C3084.46 2765.68 3085.18 2765.7 3083.41 2766.35C3082.08 2766.85 3080.02 2767.45 3077.13 2768.11C3071.39 2769.41 3063.34 2770.73 3053.28 2771.96L3056.19 2795.78ZM3100.22 2783.85C3101.14 2782.93 3103.5 2780.58 3104.63 2776.86C3105.77 2773.12 3105.13 2769.81 3104.76 2768.13C3104.39 2766.47 3103.74 2764.33 3103.18 2762.44C3102.56 2760.31 3101.78 2757.59 3100.88 2753.96L3077.59 2759.78C3078.6 2763.82 3079.47 2766.87 3080.15 2769.17C3080.89 2771.72 3081.19 2772.69 3081.34 2773.36C3081.48 2774.02 3080.94 2772.27 3081.67 2769.88C3082.39 2767.52 3083.83 2766.3 3083.25 2766.88L3100.22 2783.85ZM3100.88 2753.96C3096.56 2736.7 3093.61 2729.26 3080.83 2705.23L3059.64 2716.5C3071.86 2739.48 3073.91 2745.04 3077.59 2759.78L3100.88 2753.96ZM3080.83 2705.23C3061.2 2668.33 3034.48 2645.35 3013.72 2634.69L3002.75 2656.04C3018.99 2664.38 3042.22 2683.76 3059.64 2716.5L3080.83 2705.23ZM3013.72 2634.69C2999.51 2627.4 2985.71 2620.65 2969.41 2616.11C2953 2611.54 2934.53 2609.33 2910.71 2610.38L2911.76 2634.36C2933.44 2633.4 2949.34 2635.44 2962.98 2639.23C2976.74 2643.07 2988.69 2648.82 3002.75 2656.04L3013.72 2634.69ZM2910.71 2610.38C2865.98 2612.35 2841.94 2611.86 2809.59 2619.16L2814.88 2642.57C2844.53 2635.88 2865.49 2636.39 2911.76 2634.36L2910.71 2610.38ZM2809.59 2619.16C2779.13 2626.04 2753.92 2631.51 2731.72 2651.44L2747.75 2669.3C2764.55 2654.22 2783.34 2649.69 2814.88 2642.57L2809.59 2619.16ZM2731.72 2651.44C2716.06 2665.5 2698.21 2681.73 2682.18 2706.31L2702.29 2719.42C2716.46 2697.69 2732.22 2683.24 2747.75 2669.3L2731.72 2651.44ZM1784.68 1857.47C1780.44 1861.32 1773.24 1867.54 1765.63 1873.55C1757.83 1879.72 1750.32 1885.08 1745.23 1887.7L1756.24 1909.03C1763.55 1905.26 1772.62 1898.62 1780.51 1892.38C1788.59 1886 1796.2 1879.42 1800.79 1875.26L1784.68 1857.47ZM1745.23 1887.7C1738.56 1891.15 1733.62 1892.43 1728.93 1893.97C1727.01 1894.6 1723.52 1895.75 1720.61 1897.97C1718.92 1899.25 1717.18 1901.06 1715.93 1903.54C1714.68 1906.03 1714.24 1908.57 1714.24 1910.87H1738.24C1738.24 1911.67 1738.07 1912.94 1737.37 1914.33C1736.67 1915.72 1735.76 1916.59 1735.16 1917.05C1734.42 1917.62 1734.15 1917.51 1736.42 1916.77C1740.1 1915.56 1747.41 1913.59 1756.24 1909.03L1745.23 1887.7ZM1714.24 1910.87C1714.24 1915.08 1715.61 1920.83 1716.7 1924.92C1717.92 1929.55 1719.37 1934.22 1720.35 1937.16L1743.12 1929.57C1742.27 1927.01 1740.97 1922.84 1739.9 1918.79C1739.37 1916.77 1738.92 1914.89 1738.61 1913.33C1738.28 1911.6 1738.24 1910.87 1738.24 1910.87H1714.24ZM1731.37 1945.36C1733.58 1945.43 1737.38 1945.75 1741.07 1946.46C1742.9 1946.82 1744.5 1947.23 1745.75 1947.67C1747.12 1948.15 1747.54 1948.47 1747.42 1948.38L1762.05 1929.36C1757.05 1925.51 1750.22 1923.79 1745.63 1922.9C1740.49 1921.91 1735.39 1921.47 1732.1 1921.37L1731.37 1945.36ZM1747.42 1948.38C1750.93 1951.08 1755.23 1954.27 1758.8 1958.2C1762.51 1962.27 1763.74 1965.33 1763.74 1967.37H1787.74C1787.74 1956.41 1781.71 1947.71 1776.55 1942.04C1771.24 1936.22 1765.04 1931.66 1762.05 1929.36L1747.42 1948.38ZM1763.74 1967.37C1763.74 1972.62 1763.36 1980.22 1763.63 1985.25C1763.77 1988.03 1764.13 1991.37 1765.22 1994.57C1766.34 1997.88 1768.58 2001.97 1773.06 2004.66L1785.41 1984.08C1787.39 1985.27 1787.94 1986.85 1787.94 1986.85C1787.94 1986.86 1787.87 1986.65 1787.79 1986.12C1787.71 1985.6 1787.64 1984.9 1787.59 1983.99C1787.49 1982.1 1787.51 1979.82 1787.58 1976.91C1787.64 1974.13 1787.74 1970.79 1787.74 1967.37H1763.74ZM1773.06 2004.66C1776.34 2006.62 1781.02 2008.31 1784.53 2009.47C1788.38 2010.75 1792.26 2011.85 1794.72 2012.48L1800.75 1989.25C1798.71 1988.72 1795.34 1987.77 1792.07 1986.69C1788.45 1985.49 1786.13 1984.51 1785.41 1984.08L1773.06 2004.66ZM1722.56 1929.51C1721.31 1931.51 1718.99 1935.26 1717.17 1939.05C1716.27 1940.91 1715.27 1943.24 1714.65 1945.66C1714.21 1947.35 1713.03 1952.29 1715.5 1957.23L1736.97 1946.5C1737.95 1948.46 1737.99 1950.12 1737.98 1950.74C1737.96 1951.43 1737.86 1951.78 1737.88 1951.67C1737.95 1951.43 1738.2 1950.7 1738.8 1949.44C1739.98 1946.98 1741.66 1944.23 1742.91 1942.23L1722.56 1929.51ZM1735.57 1969.16C1737.42 1970.88 1739.86 1972.82 1740.06 1973C1740.49 1973.37 1739.88 1972.9 1739.46 1972.02C1739.25 1971.57 1739.47 1971.79 1739.79 1974.11C1740.1 1976.33 1740.39 1979.59 1740.77 1984.74L1764.7 1982.99C1764.33 1977.89 1764 1973.91 1763.57 1970.82C1763.15 1967.82 1762.54 1964.66 1761.14 1961.72C1759.53 1958.34 1757.38 1956.24 1755.7 1954.8C1753.8 1953.16 1753.55 1953.1 1751.9 1951.57L1735.57 1969.16ZM1740.77 1984.74C1740.85 1985.81 1740.77 1989.3 1740.35 1995.74C1739.95 2001.83 1739.31 2009.82 1738.46 2019.28C1736.77 2038.2 1734.3 2062.77 1731.5 2089.39C1725.9 2142.61 1718.98 2203.84 1714.32 2243.98L1738.15 2246.75C1742.82 2206.56 1749.76 2145.24 1755.37 2091.9C1758.18 2065.24 1760.66 2040.52 1762.37 2021.42C1763.22 2011.87 1763.88 2003.67 1764.3 1997.3C1764.69 1991.27 1764.93 1986.03 1764.7 1982.99L1740.77 1984.74ZM1722.44 2233.98C1717.43 2235.65 1701.64 2239.63 1683.25 2240.38L1684.23 2264.36C1705.03 2263.51 1723.04 2259.08 1730.03 2256.75L1722.44 2233.98ZM1683.25 2240.38C1664.62 2241.14 1599.7 2236.12 1568.78 2233.41L1566.69 2257.32C1596.77 2259.95 1663.65 2265.2 1684.23 2264.36L1683.25 2240.38ZM1715.5 1957.23C1717.02 1960.26 1719.3 1962.09 1721.12 1963.14C1722.82 1964.13 1724.46 1964.63 1725.46 1964.9C1726.49 1965.18 1727.53 1965.39 1728.2 1965.52C1728.99 1965.67 1729.51 1965.77 1730.06 1965.9L1735.41 1942.5C1734.41 1942.27 1733.43 1942.09 1732.83 1941.97C1732.09 1941.82 1731.84 1941.77 1731.73 1941.74C1731.58 1941.7 1732.23 1941.84 1733.13 1942.36C1734.14 1942.95 1735.82 1944.21 1736.97 1946.5L1715.5 1957.23ZM1730.06 1965.9C1730.41 1965.98 1731.25 1966.25 1732.37 1966.87C1733.47 1967.46 1734.59 1968.25 1735.57 1969.16L1751.9 1951.57C1747 1947.02 1740.9 1943.76 1735.41 1942.5L1730.06 1965.9ZM1578.18 2251.28L1743.18 1960.12L1722.29 1948.28L1557.3 2239.45L1578.18 2251.28ZM1562.59 2243.96C1561.3 2249.14 1560.41 2253.28 1559.71 2256.38C1558.98 2259.67 1558.53 2261.41 1558.08 2262.64C1557.73 2263.6 1557.49 2263.95 1557.22 2264.26C1556.83 2264.73 1555.98 2265.55 1553.85 2267.04L1567.62 2286.7C1570.49 2284.69 1573.21 2282.51 1575.5 2279.82C1577.92 2276.97 1579.49 2274.01 1580.64 2270.84C1581.69 2267.95 1582.43 2264.76 1583.13 2261.64C1583.87 2258.33 1584.67 2254.6 1585.88 2249.78L1562.59 2243.96ZM1553.85 2267.04C1549.01 2270.43 1545.22 2276.13 1542.47 2280.89C1539.45 2286.12 1536.54 2292.28 1533.95 2298.34C1528.75 2310.49 1524.38 2323.25 1522.31 2329.71L1545.16 2337.03C1547.1 2330.99 1551.22 2319 1556.02 2307.78C1558.42 2302.15 1560.9 2296.96 1563.25 2292.9C1564.42 2290.87 1565.47 2289.29 1566.36 2288.14C1567.31 2286.9 1567.76 2286.6 1567.62 2286.7L1553.85 2267.04ZM1522.31 2329.71C1519.01 2340.02 1516.14 2350.78 1515.09 2354.96L1538.38 2360.78C1539.33 2356.96 1542.06 2346.72 1545.16 2337.03L1522.31 2329.71ZM1519.71 2348.14L1492.71 2367.64L1506.76 2387.1L1533.76 2367.6L1519.71 2348.14ZM1488.16 2374.21C1486.5 2380.29 1483.23 2395.62 1483.23 2409.87H1507.23C1507.23 2398.52 1509.97 2385.44 1511.31 2380.53L1488.16 2374.21ZM1483.23 2409.87C1483.23 2418.81 1486.12 2445.44 1489.21 2469.46C1490.78 2481.69 1492.45 2493.62 1493.93 2502.83C1494.67 2507.41 1495.38 2511.45 1496.02 2514.55C1496.34 2516.08 1496.67 2517.54 1497.02 2518.79C1497.19 2519.41 1497.4 2520.12 1497.66 2520.84C1497.86 2521.37 1498.35 2522.67 1499.25 2524.02L1519.22 2510.71C1519.64 2511.34 1519.88 2511.85 1519.99 2512.07C1520.11 2512.33 1520.17 2512.52 1520.2 2512.58C1520.24 2512.7 1520.22 2512.67 1520.15 2512.4C1520 2511.87 1519.79 2510.99 1519.52 2509.68C1518.99 2507.1 1518.34 2503.47 1517.63 2499.02C1516.2 2490.15 1514.57 2478.49 1513.01 2466.4C1509.85 2441.8 1507.23 2416.92 1507.23 2409.87H1483.23ZM1499.25 2524.02C1499 2523.65 1499.44 2524.39 1500.89 2527.48C1502.1 2530.08 1503.73 2533.65 1505.65 2537.98C1509.49 2546.64 1514.48 2558.17 1519.73 2570.7C1530.3 2595.9 1541.73 2624.58 1547.3 2642.02L1570.17 2634.72C1564.24 2616.16 1552.42 2586.59 1541.86 2561.42C1536.55 2548.76 1531.51 2537.07 1527.58 2528.24C1525.63 2523.83 1523.93 2520.09 1522.62 2517.29C1521.53 2514.98 1520.22 2512.21 1519.22 2510.71L1499.25 2524.02ZM1547.3 2642.02C1552.93 2659.64 1558.76 2687.21 1566.43 2716.87C1573.82 2745.44 1582.93 2775.89 1594.99 2795.63L1615.47 2783.11C1605.54 2766.85 1597.15 2739.79 1589.66 2710.86C1582.46 2683.03 1576.04 2653.09 1570.17 2634.72L1547.3 2642.02ZM1594.99 2795.63C1600.55 2804.71 1604.09 2810.92 1607.49 2816.55C1610.66 2821.82 1613.58 2826.39 1617 2830.26C1624.37 2838.59 1633.02 2842.36 1646.68 2847.97L1655.79 2825.77C1641.45 2819.88 1638.1 2817.89 1634.97 2814.36C1633.14 2812.28 1631.18 2809.38 1628.05 2804.17C1625.13 2799.32 1620.92 2792.03 1615.47 2783.11L1594.99 2795.63ZM1646.68 2847.97C1651.51 2849.95 1659.43 2851.73 1668.61 2853.39C1678.18 2855.12 1690.26 2856.92 1704.17 2858.72C1732 2862.33 1767.51 2866 1805.54 2869.2C1881.47 2875.59 1968.15 2880.14 2024.12 2878.36L2023.36 2854.37C1968.82 2856.1 1883.25 2851.65 1807.55 2845.29C1769.77 2842.11 1734.63 2838.47 1707.25 2834.92C1693.56 2833.15 1681.91 2831.41 1672.88 2829.77C1663.48 2828.07 1657.96 2826.66 1655.79 2825.77L1646.68 2847.97ZM2024.12 2878.36C2113.13 2875.54 2431.4 2844.11 2579.61 2820.72L2575.86 2797.02C2428.4 2820.29 2111.14 2851.59 2023.36 2854.37L2024.12 2878.36ZM1540.4 2578.92C1533.78 2578.28 1522.94 2577.87 1511.18 2578.6C1499.57 2579.33 1486.13 2581.23 1474.82 2585.71L1483.65 2608.03C1491.54 2604.9 1502.1 2603.22 1512.69 2602.56C1523.13 2601.9 1532.69 2602.29 1538.07 2602.81L1540.4 2578.92ZM1474.82 2585.71C1462.37 2590.64 1447.97 2597.33 1434.99 2604.2C1422.23 2610.96 1410.02 2618.33 1402.48 2624.71L1417.99 2643.03C1423.45 2638.41 1433.74 2632.03 1446.23 2625.41C1458.5 2618.91 1472.1 2612.6 1483.65 2608.03L1474.82 2585.71ZM1402.48 2624.71C1395.51 2630.61 1382.37 2643.12 1370.23 2656.67C1364.15 2663.47 1358.15 2670.7 1353.25 2677.64C1348.52 2684.34 1344.13 2691.7 1342.19 2698.61L1365.28 2705.13C1366.09 2702.28 1368.51 2697.65 1372.86 2691.48C1377.04 2685.56 1382.38 2679.08 1388.11 2672.69C1399.6 2659.86 1411.96 2648.13 1417.99 2643.03L1402.48 2624.71ZM1342.19 2698.61C1341.4 2701.4 1340.75 2704.35 1340.64 2707.19C1340.54 2709.84 1340.84 2714.43 1344.16 2718.41C1347.75 2722.71 1352.55 2723.58 1355.41 2723.67C1358.15 2723.76 1360.77 2723.22 1362.57 2722.79C1370.91 2720.81 1378.18 2717.58 1388.97 2717.37L1388.49 2693.37C1374.29 2693.65 1361.31 2698.43 1357.02 2699.44C1355.67 2699.76 1355.61 2699.66 1356.19 2699.68C1356.89 2699.71 1360.05 2699.99 1362.58 2703.02C1363.71 2704.38 1364.22 2705.74 1364.44 2706.65C1364.65 2707.51 1364.63 2708.06 1364.63 2708.08C1364.62 2708.13 1364.63 2707.92 1364.73 2707.37C1364.84 2706.84 1365.01 2706.1 1365.28 2705.13L1342.19 2698.61ZM1388.97 2717.37C1416.34 2716.82 1445.7 2710.43 1489.39 2717.23L1493.08 2693.51C1446.77 2686.31 1411.13 2692.92 1388.49 2693.37L1388.97 2717.37ZM1489.39 2717.23C1524.54 2722.69 1563.89 2733.9 1579.05 2738.79L1586.42 2715.95C1570.58 2710.84 1529.93 2699.24 1493.08 2693.51L1489.39 2717.23ZM1397.85 2698.91C1388.88 2705.9 1375.53 2718.16 1363.99 2732.68C1352.73 2746.85 1341.77 2764.94 1340.27 2783.4L1364.19 2785.34C1365.1 2774.19 1372.31 2760.78 1382.78 2747.61C1392.98 2734.78 1404.92 2723.83 1412.61 2717.83L1397.85 2698.91ZM1340.27 2783.4C1337.16 2821.79 1341.56 2857.89 1358.18 2888.58L1379.29 2877.15C1365.62 2851.92 1361.31 2820.94 1364.19 2785.34L1340.27 2783.4ZM1358.18 2888.58L1358.34 2888.88L1379.45 2877.45L1379.29 2877.15L1358.18 2888.58ZM1358.34 2888.88C1371.17 2912.57 1384.16 2937.24 1419.11 2948.31L1426.36 2925.43C1401.56 2917.57 1392.48 2901.51 1379.45 2877.45L1358.34 2888.88ZM1419.11 2948.31C1450.22 2958.16 1490.14 2963.59 1519.03 2959.23L1515.44 2935.5C1491.32 2939.14 1455.25 2934.58 1426.36 2925.43L1419.11 2948.31ZM1519.03 2959.23C1535.34 2956.77 1554.96 2945.45 1570.97 2933.69C1587.11 2921.82 1602.45 2907.37 1609.41 2896.23L1589.06 2883.51C1584.52 2890.76 1572.11 2903.06 1556.75 2914.35C1541.26 2925.73 1525.63 2933.96 1515.44 2935.5L1519.03 2959.23ZM1609.41 2896.23C1621.36 2877.11 1637.23 2855.5 1637.23 2823.37H1613.23C1613.23 2847.24 1602.11 2862.63 1589.06 2883.51L1609.41 2896.23ZM2638.53 2319.94C2619.9 2317.92 2590.85 2315.21 2564.19 2313.59C2550.87 2312.78 2538 2312.24 2527.27 2312.22C2517.06 2312.19 2507.28 2312.6 2501.08 2314.29L2507.39 2337.45C2509.99 2336.74 2516.61 2336.19 2527.21 2336.22C2537.28 2336.24 2549.63 2336.75 2562.73 2337.55C2588.92 2339.13 2617.58 2341.81 2635.95 2343.8L2638.53 2319.94ZM2501.08 2314.29C2490.59 2317.15 2475.6 2320.8 2462.47 2326.48C2449.65 2332.03 2435.33 2340.85 2429.52 2356.1L2451.95 2364.64C2454.14 2358.88 2460.57 2353.46 2472 2348.51C2483.12 2343.69 2495.88 2340.59 2507.39 2337.45L2501.08 2314.29ZM2429.52 2356.1C2425.72 2366.07 2423.53 2380.18 2422.21 2392.8C2420.87 2405.74 2420.32 2418.41 2420.24 2426.24L2444.23 2426.5C2444.31 2419.33 2444.82 2407.4 2446.08 2395.29C2447.38 2382.86 2449.35 2371.46 2451.95 2364.64L2429.52 2356.1ZM2420.24 2426.37C2420.24 2439.89 2421.97 2473.85 2429.08 2502.74L2452.39 2497C2445.91 2470.69 2444.24 2438.85 2444.24 2426.37H2420.24ZM2429.08 2502.74C2433.46 2520.5 2440.65 2536.92 2443.93 2546.64C2445.78 2552.13 2446.41 2555.37 2446.39 2557.29C2446.37 2558.08 2446.25 2558.23 2446.33 2558.06C2446.44 2557.82 2446.58 2557.74 2446.42 2557.86L2461.05 2576.88C2467.74 2571.74 2470.29 2564.67 2470.38 2557.61C2470.47 2551.34 2468.63 2544.8 2466.67 2538.97C2462.32 2526.07 2456.51 2513.74 2452.39 2497L2429.08 2502.74ZM2446.42 2557.86C2445.39 2558.65 2442.2 2560.03 2435.53 2561.71C2428.92 2563.37 2422.68 2564.5 2414.64 2566.37C2407.45 2568.04 2399.45 2570.19 2392.95 2573.45C2386.8 2576.53 2378.53 2582.39 2377.31 2593.01L2401.16 2595.73C2400.94 2597.6 2399.61 2596.96 2403.71 2594.9C2407.46 2593.02 2413.02 2591.39 2420.08 2589.74C2426.29 2588.3 2434.99 2586.59 2441.38 2584.98C2447.71 2583.39 2455.58 2581.09 2461.05 2576.88L2446.42 2557.86ZM2377.31 2593.01C2376.21 2602.68 2376.24 2619.03 2376.49 2635.86C2376.74 2653.16 2377.24 2671.47 2377.24 2686.37H2401.24C2401.24 2671.26 2400.73 2652.33 2400.48 2635.51C2400.23 2618.21 2400.26 2603.56 2401.16 2595.73L2377.31 2593.01ZM2377.24 2686.37C2377.24 2711.27 2384.02 2772.08 2387.33 2798.84L2411.15 2795.9C2407.78 2768.65 2401.24 2709.47 2401.24 2686.37H2377.24ZM2159.52 2374.37L2439.02 2379.37L2439.45 2355.37L2159.95 2350.37L2159.52 2374.37ZM1773.24 2728.37C1828.26 2728.37 1886.45 2725.7 1958.79 2728.36L1959.68 2704.38C1886.85 2701.7 1826.87 2704.37 1773.24 2704.37V2728.37ZM1958.79 2728.36C2030.42 2731 2088.25 2737.3 2142.23 2741.83L2144.24 2717.91C2090.89 2713.44 2032.05 2707.04 1959.68 2704.38L1958.79 2728.36ZM1894.42 2477.68C1887.31 2492.48 1886.09 2507.81 1887.32 2518.27L1911.15 2515.47C1910.38 2508.93 1911.16 2498.26 1916.05 2488.06L1894.42 2477.68ZM1887.32 2518.27C1889.2 2534.29 1905.11 2546.4 1924.79 2548.78L1927.68 2524.96C1914.36 2523.34 1911.27 2516.45 1911.15 2515.47L1887.32 2518.27ZM1924.79 2548.78C1932.1 2549.67 1969.9 2551.01 2012.94 2552.34C2056.49 2553.68 2106.59 2555.03 2139.43 2555.86L2140.04 2531.87C2107.22 2531.04 2057.17 2529.69 2013.68 2528.35C1969.69 2526.99 1933.58 2525.67 1927.68 2524.96L1924.79 2548.78ZM1915.81 2488.54C1915.81 2488.54 1917.46 2486.03 1922.45 2482.72C1927.18 2479.59 1934.48 2476.04 1945.01 2473.54L1939.47 2450.19C1913.83 2456.28 1899.32 2468.5 1894.66 2477.2L1915.81 2488.54ZM1945.01 2473.54C1973.1 2466.88 2018.45 2464.37 2049.24 2464.37V2440.37C2018.03 2440.37 1970.38 2442.86 1939.47 2450.19L1945.01 2473.54ZM2049.24 2464.37C2072.95 2464.37 2117.93 2470.54 2137.84 2473.72L2141.63 2450.02C2121.88 2446.87 2075.12 2440.37 2049.24 2440.37V2464.37ZM1905.3 2543.59L2027.8 2724.59L2047.67 2711.14L1925.17 2530.14L1905.3 2543.59ZM1987.66 2546.1L2131.16 2736.1L2150.31 2721.64L2006.81 2531.64L1987.66 2546.1ZM2166.73 2745.87H2393.23V2721.87H2166.73V2745.87ZM1524.25 2810.37C1524.25 2830.53 1507.91 2846.87 1487.75 2846.87V2870.87C1521.16 2870.87 1548.25 2843.78 1548.25 2810.37H1524.25ZM1487.75 2846.87C1467.59 2846.87 1451.25 2830.53 1451.25 2810.37H1427.25C1427.25 2843.78 1454.33 2870.87 1487.75 2870.87V2846.87ZM1451.25 2810.37C1451.25 2790.21 1467.59 2773.87 1487.75 2773.87V2749.87C1454.33 2749.87 1427.25 2776.96 1427.25 2810.37H1451.25ZM1487.75 2773.87C1507.91 2773.87 1524.25 2790.21 1524.25 2810.37H1548.25C1548.25 2776.96 1521.16 2749.87 1487.75 2749.87V2773.87ZM2915.25 2881.37C2915.25 2901.53 2898.91 2917.87 2878.75 2917.87V2941.87C2912.16 2941.87 2939.25 2914.78 2939.25 2881.37H2915.25ZM2878.75 2917.87C2858.59 2917.87 2842.25 2901.53 2842.25 2881.37H2818.25C2818.25 2914.78 2845.33 2941.87 2878.75 2941.87V2917.87ZM2842.25 2881.37C2842.25 2861.21 2858.59 2844.87 2878.75 2844.87V2820.87C2845.33 2820.87 2818.25 2847.96 2818.25 2881.37H2842.25ZM2878.75 2844.87C2898.91 2844.87 2915.25 2861.21 2915.25 2881.37H2939.25C2939.25 2847.96 2912.16 2820.87 2878.75 2820.87V2844.87ZM1543.25 2818.87C1543.25 2852.01 1516.38 2878.87 1483.25 2878.87V2902.87C1529.64 2902.87 1567.25 2865.26 1567.25 2818.87H1543.25ZM1483.25 2878.87C1450.11 2878.87 1423.25 2852.01 1423.25 2818.87H1399.25C1399.25 2865.26 1436.85 2902.87 1483.25 2902.87V2878.87ZM1423.25 2818.87C1423.25 2785.73 1450.11 2758.87 1483.25 2758.87V2734.87C1436.85 2734.87 1399.25 2772.48 1399.25 2818.87H1423.25ZM1483.25 2758.87C1516.38 2758.87 1543.25 2785.73 1543.25 2818.87H1567.25C1567.25 2772.48 1529.64 2734.87 1483.25 2734.87V2758.87ZM2961.25 2899.37C2961.25 2938.31 2929.68 2969.87 2890.75 2969.87V2993.87C2942.94 2993.87 2985.25 2951.56 2985.25 2899.37H2961.25ZM2890.75 2969.87C2851.81 2969.87 2820.25 2938.31 2820.25 2899.37H2796.25C2796.25 2951.56 2838.56 2993.87 2890.75 2993.87V2969.87ZM2820.25 2899.37C2820.25 2860.43 2851.81 2828.87 2890.75 2828.87V2804.87C2838.56 2804.87 2796.25 2847.18 2796.25 2899.37H2820.25ZM2890.75 2828.87C2929.68 2828.87 2961.25 2860.43 2961.25 2899.37H2985.25C2985.25 2847.18 2942.94 2804.87 2890.75 2804.87V2828.87ZM3015.25 2881.37C3015.25 2958.41 2952.79 3020.87 2875.75 3020.87V3044.87C2966.05 3044.87 3039.25 2971.67 3039.25 2881.37H3015.25ZM2875.75 3020.87C2798.7 3020.87 2736.25 2958.41 2736.25 2881.37H2712.25C2712.25 2971.67 2785.45 3044.87 2875.75 3044.87V3020.87ZM2736.25 2881.37C2736.25 2804.33 2798.7 2741.87 2875.75 2741.87V2717.87C2785.45 2717.87 2712.25 2791.07 2712.25 2881.37H2736.25ZM2875.75 2741.87C2952.79 2741.87 3015.25 2804.33 3015.25 2881.37H3039.25C3039.25 2791.07 2966.05 2717.87 2875.75 2717.87V2741.87ZM1649.25 2418.87H1662.25V2394.87H1649.25V2418.87ZM1662.25 2402.87H1649.25V2426.87H1662.25V2402.87ZM1649.25 2402.87C1653.67 2402.87 1657.25 2406.45 1657.25 2410.87H1633.25C1633.25 2419.71 1640.41 2426.87 1649.25 2426.87V2402.87ZM1654.25 2410.87C1654.25 2406.45 1657.83 2402.87 1662.25 2402.87V2426.87C1671.08 2426.87 1678.25 2419.71 1678.25 2410.87H1654.25ZM1662.25 2418.87C1657.83 2418.87 1654.25 2415.29 1654.25 2410.87H1678.25C1678.25 2402.03 1671.08 2394.87 1662.25 2394.87V2418.87ZM1649.25 2394.87C1640.41 2394.87 1633.25 2402.03 1633.25 2410.87H1657.25C1657.25 2415.29 1653.67 2418.87 1649.25 2418.87V2394.87ZM1649.25 2471.87H1662.25V2447.87H1649.25V2471.87ZM1662.25 2455.87H1649.25V2479.87H1662.25V2455.87ZM1649.25 2455.87C1653.67 2455.87 1657.25 2459.45 1657.25 2463.87H1633.25C1633.25 2472.71 1640.41 2479.87 1649.25 2479.87V2455.87ZM1654.25 2463.87C1654.25 2459.45 1657.83 2455.87 1662.25 2455.87V2479.87C1671.08 2479.87 1678.25 2472.71 1678.25 2463.87H1654.25ZM1662.25 2471.87C1657.83 2471.87 1654.25 2468.29 1654.25 2463.87H1678.25C1678.25 2455.03 1671.08 2447.87 1662.25 2447.87V2471.87ZM1649.25 2447.87C1640.41 2447.87 1633.25 2455.03 1633.25 2463.87H1657.25C1657.25 2468.29 1653.67 2471.87 1649.25 2471.87V2447.87ZM2990.74 2023.99L3025.74 2014.99L3019.76 1991.75L2984.76 2000.75L2990.74 2023.99ZM2947.45 1960.67L2975.45 1887.67L2953.04 1879.07L2925.04 1952.07L2947.45 1960.67ZM2578.14 2590.34C2774.84 2575.61 2894.04 2567.94 2965.31 2563.59C3000.89 2561.42 3024.69 2560.06 3040.08 2559.08C3047.79 2558.59 3053.55 2558.19 3057.74 2557.81C3061.55 2557.46 3065.09 2557.06 3067.6 2556.35L3061.06 2533.26C3061.06 2533.26 3059.79 2533.52 3055.57 2533.9C3051.73 2534.25 3046.25 2534.64 3038.56 2535.13C3023.17 2536.11 2999.6 2537.45 2963.85 2539.63C2892.47 2543.99 2773.16 2551.67 2576.35 2566.4L2578.14 2590.34ZM3067.6 2556.35C3077.5 2553.55 3087.85 2547.23 3091.81 2544.49L3078.16 2524.75C3075.05 2526.9 3067.23 2531.51 3061.06 2533.26L3067.6 2556.35ZM2607.82 2498.32C2804.28 2480.57 2913.73 2471.7 2975.3 2466.9C3006.03 2464.5 3024.98 2463.1 3036.78 2462.12C3047.96 2461.19 3054.19 2460.56 3058.19 2459.36L3051.3 2436.38C3050.3 2436.67 3047.15 2437.17 3034.8 2438.2C3023.07 2439.17 3004.33 2440.56 2973.43 2442.97C2911.76 2447.78 2802.21 2456.66 2605.66 2474.42L2607.82 2498.32ZM3058.19 2459.36C3068.04 2456.41 3078.3 2449.93 3082.22 2447.13L3068.27 2427.6C3065.19 2429.8 3057.44 2434.53 3051.3 2436.38L3058.19 2459.36ZM2990.74 2621.33C3002.78 2620.32 3021.21 2618.69 3037.35 2617.06C3045.41 2616.24 3052.98 2615.42 3058.92 2614.66C3061.88 2614.29 3064.53 2613.92 3066.68 2613.57C3068.45 2613.27 3070.9 2612.84 3072.78 2612.17L3064.71 2589.57C3065.19 2589.4 3064.87 2589.54 3062.78 2589.89C3061.05 2590.17 3058.73 2590.5 3055.9 2590.86C3050.26 2591.57 3042.92 2592.37 3034.93 2593.18C3018.98 2594.8 3000.7 2596.41 2988.75 2597.41L2990.74 2621.33ZM3072.78 2612.17C3079.62 2609.73 3092.34 2602.61 3097.27 2599.75L3085.22 2578.99C3079.81 2582.13 3069.07 2588.01 3064.71 2589.57L3072.78 2612.17ZM2499.66 2657.33L2741.16 2638.83L2739.33 2614.9L2497.83 2633.4L2499.66 2657.33ZM2502.25 2735.33L2669.25 2721.33L2667.24 2697.41L2500.24 2711.41L2502.25 2735.33ZM2384.93 2602.36L2494.43 2650.36L2504.06 2628.38L2394.56 2580.38L2384.93 2602.36Z" fill="#141414"/>
<path d="M954.766 1479.29L904.168 1569.5C903.76 1570.23 903.102 1570.34 902.193 1569.83L710.873 1462.17C709.965 1461.66 709.765 1460.95 710.275 1460.04L727.701 1428.97C728.211 1428.06 728.92 1427.86 729.828 1428.37L888.169 1517.54L920.423 1460.02C920.933 1459.12 921.642 1458.92 922.55 1459.43L954.167 1477.16C955.076 1477.67 955.275 1478.38 954.766 1479.29Z" fill="#141414"/>
<path d="M1045.06 1352.9C1038.3 1361.89 1029.71 1368.46 1019.29 1372.61C1008.86 1376.77 998.016 1378.19 986.747 1376.88C975.457 1375.43 965.15 1371.2 955.826 1364.19L828.328 1267.52C827.662 1267.02 827.579 1266.43 828.08 1265.77L849.681 1237.05C850.181 1236.38 850.765 1236.3 851.431 1236.8L979.304 1332.97C985.049 1337.29 991.338 1339.15 998.172 1338.56C1004.93 1337.9 1010.27 1334.95 1014.22 1329.7C1018.35 1324.21 1019.8 1318.13 1018.55 1311.46C1017.23 1304.73 1013.7 1299.2 1007.95 1294.88L880.075 1198.71C879.409 1198.21 879.326 1197.63 879.827 1196.96L901.427 1168.24C901.928 1167.57 902.512 1167.49 903.178 1167.99L1031.43 1263.66C1040.84 1270.74 1047.8 1279.5 1052.33 1289.94C1056.71 1300.4 1058.39 1311.18 1057.35 1322.26C1056.23 1333.28 1052.14 1343.49 1045.06 1352.9Z" fill="#141414"/>
<path d="M1183.2 1192.43C1175.08 1200.67 1165.58 1206.15 1154.7 1208.87C1143.89 1211.53 1133.02 1211.42 1122.1 1208.55C1111.18 1205.53 1101.42 1199.78 1092.81 1191.29L1021.95 1120.96C1013.49 1112.62 1007.76 1103.15 1004.74 1092.57C1001.64 1081.91 1001.35 1071.16 1003.85 1060.31C1006.35 1049.32 1011.7 1039.67 1019.89 1031.36C1028.23 1022.91 1037.7 1017.39 1048.29 1014.82C1058.95 1012.16 1069.7 1012.31 1080.55 1015.26C1091.4 1018.05 1101.09 1023.66 1109.62 1032.07L1120.07 1042.39C1120.67 1042.97 1120.67 1043.56 1120.08 1044.15L1094.85 1069.74C1094.26 1070.33 1093.67 1070.34 1093.08 1069.75L1082.62 1059.44C1077.58 1054.46 1071.63 1051.82 1064.78 1051.5C1057.93 1051.17 1052.09 1053.46 1047.26 1058.36C1041.92 1063.77 1039.68 1069.75 1040.53 1076.3C1041.39 1082.85 1044.26 1088.54 1049.16 1093.37L1120.24 1163.48C1125.81 1168.97 1131.98 1171.83 1138.76 1172.08C1145.46 1172.25 1151.12 1170.01 1155.72 1165.33C1160.55 1160.44 1162.65 1154.46 1162.01 1147.39C1161.3 1140.25 1158.53 1134.3 1153.71 1129.55L1143.14 1119.13C1142.55 1118.54 1142.54 1117.95 1143.13 1117.36L1168.58 1091.55C1169.17 1090.96 1169.76 1090.95 1170.35 1091.54L1180.92 1101.96C1189.45 1110.37 1195.26 1120.06 1198.36 1131.01C1201.31 1141.96 1201.6 1152.86 1199.25 1163.71C1196.82 1174.48 1191.47 1184.05 1183.2 1192.43Z" fill="#141414"/>
<path d="M1326.36 1059.74L1297.69 1081.92C1297.03 1082.43 1296.38 1082.28 1295.74 1081.45L1161.88 907.456C1161.24 906.632 1161.25 905.965 1161.91 905.455L1190.33 883.461C1190.99 882.951 1191.64 883.108 1192.28 883.931L1238.66 943.862L1231.75 852.988C1231.9 851.819 1232.26 851.011 1232.84 850.565L1261.88 828.092C1262.62 827.518 1263.04 827.72 1263.14 828.698L1273.43 932.367L1403.19 998.695C1404.11 999.036 1403.96 999.684 1402.72 1000.64L1371.83 1024.55C1371.01 1025.18 1370.26 1025.24 1369.58 1024.71L1277.78 976.806L1279.72 997.436L1326.39 1057.74C1327.03 1058.56 1327.01 1059.23 1326.36 1059.74Z" fill="#141414"/>
<path d="M1534.89 920.117L1503.12 938.518C1502.49 938.883 1501.96 938.706 1501.54 937.984L1456.24 859.134L1354.44 768.769C1353.84 768.152 1353.9 767.635 1354.62 767.217L1385.45 749.364C1386.35 748.842 1387.1 748.889 1387.7 749.506L1451.26 812.184L1428.94 725.623C1428.7 724.797 1428.94 724.176 1429.66 723.758L1460.76 705.748C1461.48 705.33 1461.96 705.534 1462.2 706.36L1488.88 838.789L1535.35 918.408C1535.77 919.13 1535.61 919.699 1534.89 920.117Z" fill="#141414"/>
<path d="M1902.26 774.915C1891.28 777.807 1880.41 777.653 1869.66 774.453C1859.01 771.227 1849.68 765.659 1841.67 757.751C1833.73 749.715 1828.28 740.056 1825.31 728.774L1821.57 714.571C1821.28 713.463 1821.63 712.776 1822.64 712.511L1857.39 703.357C1858.2 703.145 1858.75 703.593 1859.04 704.701L1862.78 718.904C1864.56 725.653 1868.36 730.898 1874.2 734.64C1880 738.281 1886.08 739.266 1892.43 737.594C1898.87 735.896 1903.71 731.982 1906.95 725.852C1910.15 719.622 1910.89 713.233 1909.17 706.685C1907.18 699.131 1900.5 693.833 1889.15 690.792C1887.27 690.209 1884.84 689.558 1881.85 688.837C1878.93 687.99 1875.46 687.073 1871.43 686.088C1867.4 685.103 1863.48 684.142 1859.68 683.204C1855.85 682.166 1852.15 681.202 1848.58 680.312C1835.54 676.635 1824.94 670.54 1816.78 662.027C1808.68 653.387 1802.99 642.822 1799.7 630.331C1796.68 618.848 1796.77 607.729 1799.97 596.976C1803.19 586.324 1808.63 577.135 1816.29 569.408C1824.03 561.554 1833.23 556.221 1843.91 553.408C1854.89 550.516 1865.68 550.582 1876.28 553.607C1886.91 556.733 1896.15 562.163 1904 569.896C1911.95 577.604 1917.43 587.149 1920.43 598.531L1927.11 623.915C1927.33 624.721 1927.03 625.23 1926.22 625.442L1891.47 634.596C1890.67 634.809 1890.16 634.512 1889.95 633.706L1882.96 608.401C1881.05 601.149 1877.23 595.853 1871.5 592.514C1865.77 589.175 1859.79 588.328 1853.54 589.973C1847.2 591.645 1842.39 595.495 1839.13 601.524C1835.88 607.553 1835.12 613.892 1836.87 620.54C1838.65 627.289 1841.55 632.559 1845.56 636.349C1849.68 640.112 1856.11 643.051 1864.85 645.164C1865.76 645.355 1867.89 645.871 1871.24 646.713C1874.58 647.556 1878.28 648.52 1882.34 649.606C1886.47 650.564 1890.21 651.465 1893.55 652.307C1896.87 653.049 1898.87 653.491 1899.56 653.634C1911.34 656.669 1921.31 661.584 1929.46 668.379C1937.7 675.148 1943.43 684.627 1946.64 696.815C1949.74 708.601 1949.81 719.894 1946.84 730.695C1943.77 741.522 1938.36 750.862 1930.63 758.716C1922.9 766.57 1913.44 771.97 1902.26 774.915Z" fill="#141414"/>
<path d="M2109.63 734.562C2098.47 735.952 2087.77 734.345 2077.54 729.74C2067.31 725.136 2058.74 718.329 2051.85 709.32C2045.04 700.195 2040.92 689.844 2039.48 678.267L2020.33 519.415C2020.23 518.588 2020.59 518.124 2021.42 518.021L2057.08 513.58C2057.91 513.477 2058.37 513.839 2058.47 514.666L2078.24 673.44C2079.13 680.573 2082.17 686.388 2087.34 690.887C2092.51 695.283 2098.35 697.075 2104.86 696.264C2111.68 695.415 2117.06 692.226 2120.99 686.698C2124.91 681.067 2126.42 674.685 2125.53 667.552L2105.77 508.778C2105.66 507.951 2106.03 507.486 2106.85 507.383L2142.51 502.943C2143.34 502.84 2143.81 503.202 2143.91 504.029L2164.3 662.726C2165.75 674.407 2164.3 685.504 2159.94 696.019C2155.47 706.444 2148.88 715.136 2140.2 722.096C2131.5 728.952 2121.31 733.108 2109.63 734.562Z" fill="#141414"/>
<path d="M2303.12 718.995L2266.87 718.64C2266.04 718.631 2265.63 718.106 2265.64 717.065L2268.42 497.238C2268.43 496.404 2268.85 495.992 2269.68 496L2334.37 496.635C2345.93 496.748 2356.52 499.665 2366.16 505.385C2375.79 511.105 2383.42 518.732 2389.06 528.267C2394.8 537.803 2397.61 548.56 2397.49 560.539C2397.42 568.351 2396.15 575.422 2393.69 581.753C2391.23 588.083 2388.37 593.42 2385.09 597.763C2381.93 602.107 2379.03 605.308 2376.41 607.365C2387.84 620.291 2393.48 635.399 2393.31 652.69L2392.97 718.315C2392.96 719.356 2392.44 719.872 2391.4 719.862L2355.15 719.506C2354.32 719.498 2353.9 719.181 2353.91 718.556L2354.56 652.309C2354.63 644.601 2351.99 637.908 2346.63 632.231C2341.27 626.553 2334.63 623.675 2326.71 623.597L2305.62 623.39L2304.38 717.445C2304.37 718.487 2303.95 719.003 2303.12 718.995ZM2333.99 534.914L2306.49 534.644L2306 584.955L2333.5 585.224C2340.06 585.289 2345.92 582.898 2351.07 578.053C2356.32 573.208 2358.99 567.245 2359.06 560.162C2359.12 553.391 2356.68 547.533 2351.73 542.589C2346.78 537.54 2340.86 534.982 2333.99 534.914Z" fill="#141414"/>
<path d="M2523.49 734.058L2487.93 728.918C2486.9 728.769 2486.45 728.179 2486.6 727.148L2518.66 509.654C2518.78 508.829 2519.25 508.476 2520.08 508.595L2621.52 523.253C2622.55 523.402 2623.01 523.889 2622.89 524.714L2617.73 560.437C2617.61 561.262 2617.14 561.614 2616.31 561.495L2551.36 552.11L2544.26 601.287L2609.21 610.672C2610.03 610.791 2610.37 611.366 2610.22 612.397L2605.35 648.319C2605.23 649.144 2604.65 649.482 2603.62 649.333L2538.67 639.948L2525.26 732.735C2525.12 733.766 2524.53 734.207 2523.49 734.058Z" fill="#141414"/>
<path d="M2933.79 852.395C2923.38 847.86 2914.95 841.005 2908.49 831.829C2902.13 822.695 2898.26 812.543 2896.88 801.374C2895.63 790.151 2897.34 779.191 2902 768.495L2907.86 755.03C2908.32 753.98 2909.03 753.663 2909.98 754.079L2942.93 768.432C2943.69 768.765 2943.84 769.457 2943.39 770.507L2937.52 783.972C2934.73 790.371 2934.47 796.846 2936.73 803.397C2939.03 809.853 2943.19 814.392 2949.2 817.013C2955.31 819.676 2961.54 819.603 2967.87 816.796C2974.25 813.894 2978.79 809.339 2981.5 803.131C2984.62 795.969 2982.66 787.675 2975.63 778.25C2974.52 776.63 2973.02 774.61 2971.12 772.191C2969.35 769.719 2967.2 766.847 2964.64 763.576C2962.09 760.306 2959.61 757.124 2957.21 754.033C2954.85 750.845 2952.54 747.795 2950.29 744.882C2942.34 733.919 2937.8 722.567 2936.67 710.824C2935.67 699.028 2937.75 687.209 2942.91 675.367C2947.65 664.48 2954.61 655.809 2963.79 649.353C2972.92 642.993 2982.89 639.154 2993.69 637.837C3004.62 636.466 3015.15 637.986 3025.28 642.396C3035.69 646.931 3044.11 653.67 3050.56 662.613C3056.96 671.651 3060.84 681.639 3062.22 692.576C3063.68 703.554 3062.06 714.439 3057.36 725.23L3046.88 749.296C3046.55 750.06 3046 750.275 3045.23 749.942L3012.29 735.589C3011.52 735.256 3011.31 734.707 3011.64 733.943L3021.84 709.753C3024.83 702.878 3025.12 696.355 3022.69 690.185C3020.27 684.016 3016.1 679.641 3010.17 677.062C3004.16 674.44 2998 674.486 2991.71 677.197C2985.41 679.909 2980.89 684.416 2978.15 690.719C2975.36 697.117 2974.37 703.048 2975.17 708.51C2976.07 714.014 2979.29 720.305 2984.84 727.382C2985.44 728.097 2986.79 729.821 2988.9 732.556C2991 735.29 2993.31 738.341 2995.82 741.707C2998.46 745.019 3000.84 748.042 3002.94 750.777C3005.09 753.416 3006.39 755.004 3006.83 755.54C3014.2 765.227 3018.98 775.261 3021.16 785.642C3023.44 796.064 3022.06 807.053 3017.02 818.608C3012.15 829.781 3005.21 838.685 2996.18 845.32C2987.06 851.913 2977.03 855.895 2966.09 857.266C2955.16 858.636 2944.39 857.013 2933.79 852.395Z" fill="#141414"/>
<path d="M3122.47 949.808C3112.58 943.819 3105.05 935.847 3099.87 925.892C3094.79 915.992 3092.37 905.398 3092.63 894.108C3093.04 882.784 3096.37 871.954 3102.63 861.618L3154.62 776.378C3160.77 766.22 3168.65 758.446 3178.24 753.055C3187.9 747.575 3198.29 744.795 3209.42 744.716C3220.69 744.602 3231.32 747.567 3241.29 753.61C3251.45 759.762 3259.01 767.689 3263.97 777.393C3269.02 787.15 3271.37 797.646 3271.02 808.881C3270.82 820.082 3267.61 830.805 3261.41 841.051L3253.8 853.614C3253.37 854.327 3252.79 854.468 3252.08 854.036L3221.34 835.419C3220.63 834.987 3220.49 834.415 3220.92 833.702L3228.53 821.139C3232.2 815.081 3233.39 808.681 3232.12 801.941C3230.84 795.201 3227.26 790.05 3221.38 786.488C3214.88 782.549 3208.54 781.755 3202.37 784.105C3196.19 786.456 3191.33 790.571 3187.76 796.452L3136.04 881.854C3131.99 888.536 3130.64 895.203 3131.97 901.854C3133.35 908.416 3136.85 913.397 3142.46 916.797C3148.34 920.358 3154.65 921.01 3161.37 918.751C3168.15 916.403 3173.3 912.333 3176.8 906.542L3184.49 893.845C3184.93 893.132 3185.5 892.991 3186.21 893.423L3217.22 912.202C3217.93 912.634 3218.07 913.206 3217.64 913.919L3209.95 926.615C3203.74 936.862 3195.67 944.76 3185.73 950.311C3175.76 955.718 3165.23 958.533 3154.13 958.755C3143.09 958.888 3132.54 955.906 3122.47 949.808Z" fill="#141414"/>
<path d="M3284.01 1057.73L3255.79 1034.99C3255.14 1034.46 3255.14 1033.8 3255.79 1032.98L3393.97 861.993C3394.5 861.344 3395.16 861.346 3395.97 862L3423.71 884.352C3424.52 885.006 3424.67 885.657 3424.15 886.306L3369.3 953.879L3406.65 983.976L3461.26 916.206C3461.78 915.557 3462.36 915.494 3463.01 916.017L3490.75 938.369C3491.56 939.023 3491.71 939.674 3491.19 940.323L3353.74 1111.9C3353.08 1112.71 3352.35 1112.79 3351.54 1112.14L3323.56 1089.59C3322.75 1088.94 3322.67 1088.21 3323.32 1087.39L3382.34 1014.15L3344.99 984.053L3285.97 1057.3C3285.31 1058.11 3284.66 1058.25 3284.01 1057.73Z" fill="#141414"/>
<path d="M3449.73 1213.11C3441.92 1204.87 3436.83 1195.27 3434.47 1184.3C3432.18 1173.41 3432.54 1162.51 3435.56 1151.61C3438.72 1140.72 3444.53 1131.26 3453 1123.23L3526.79 1053.68C3535.41 1045.51 3545.13 1040.24 3555.95 1037.87C3566.77 1035.36 3577.56 1035.61 3588.31 1038.62C3599.14 1041.56 3608.43 1047.11 3616.17 1055.27C3624.19 1063.74 3629.32 1073.31 3631.54 1083.98C3633.84 1094.72 3633.4 1105.47 3630.24 1116.22C3627.23 1126.97 3621.46 1136.39 3612.92 1144.49L3539.55 1214.5C3531.08 1222.52 3521.4 1227.83 3510.5 1230.41C3499.45 1233 3488.55 1232.85 3477.8 1229.99C3467.04 1227.13 3457.69 1221.5 3449.73 1213.11ZM3477.73 1186.55C3482.18 1191.24 3487.94 1193.53 3495.01 1193.42C3502.17 1193.24 3508.12 1190.89 3512.88 1186.38L3586.25 1116.37C3591.39 1111.5 3594.2 1105.75 3594.67 1099.13C3595.14 1092.52 3593.01 1086.71 3588.28 1081.72C3583.76 1076.96 3578.15 1074.53 3571.45 1074.42C3564.75 1074.32 3558.75 1076.78 3553.46 1081.79L3479.88 1151.57C3474.81 1156.37 3472.04 1162.23 3471.56 1169.15C3471.16 1175.99 3473.22 1181.79 3477.73 1186.55Z" fill="#141414"/>
<path d="M3584.25 1375.18C3577.6 1365.97 3573.84 1355.78 3572.96 1344.59C3572.14 1333.49 3573.95 1322.74 3578.4 1312.34C3582.98 1301.96 3590.01 1293.36 3599.47 1286.53L3681.87 1227.44C3691.5 1220.49 3701.84 1216.56 3712.88 1215.66C3723.94 1214.61 3734.6 1216.3 3744.85 1220.72C3755.19 1225.07 3763.65 1231.81 3770.24 1240.94C3777.06 1250.4 3780.87 1260.56 3781.65 1271.43C3782.49 1282.39 3780.63 1292.98 3776.06 1303.21C3771.65 1313.46 3764.67 1322.03 3755.12 1328.92L3673.08 1388.52C3663.62 1395.35 3653.32 1399.32 3642.17 1400.43C3630.88 1401.51 3620.09 1399.92 3609.81 1395.65C3599.54 1391.38 3591.01 1384.55 3584.25 1375.18ZM3615.54 1352.59C3619.32 1357.83 3624.72 1360.86 3631.75 1361.7C3638.86 1362.48 3645.08 1360.95 3650.4 1357.1L3732.44 1297.5C3738.19 1293.36 3741.73 1288.04 3743.08 1281.54C3744.43 1275.04 3743.09 1269.01 3739.07 1263.43C3735.23 1258.11 3729.99 1254.95 3723.36 1253.95C3716.74 1252.96 3710.46 1254.59 3704.55 1258.86L3622.33 1318.21C3616.67 1322.29 3613.14 1327.73 3611.75 1334.52C3610.43 1341.24 3611.7 1347.27 3615.54 1352.59Z" fill="#141414"/>
<path d="M3724.69 1600.75L3675.87 1509.55C3675.48 1508.82 3675.74 1508.21 3676.66 1507.71L3870.35 1404.38C3871.27 1403.89 3871.97 1404.1 3872.46 1405.02L3889.28 1436.43C3889.77 1437.35 3889.55 1438.05 3888.64 1438.54L3728.28 1524.03L3759.4 1582.16C3759.89 1583.08 3759.68 1583.79 3758.76 1584.28L3726.8 1601.39C3725.88 1601.88 3725.18 1601.66 3724.69 1600.75Z" fill="#141414"/>
<path d="M1372.57 3576.42L1342.48 3556.2C1341.79 3555.73 1341.15 3555.93 1340.57 3556.8L1218.2 3739.43C1217.73 3740.12 1217.93 3740.76 1218.79 3741.34L1248.36 3761.21C1249.23 3761.79 1249.89 3761.74 1250.36 3761.05L1298.65 3688.64L1338.46 3715.4L1289.91 3787.63C1289.44 3788.32 1289.56 3788.9 1290.25 3789.37L1319.82 3809.24C1320.68 3809.82 1321.35 3809.76 1321.81 3809.07L1444.96 3626.96C1445.54 3626.1 1445.4 3625.37 1444.54 3624.79L1414.71 3604.75C1413.85 3604.16 1413.12 3604.31 1412.54 3605.17L1360.07 3683.24L1320.26 3656.48L1372.73 3578.41C1373.31 3577.55 1373.26 3576.88 1372.57 3576.42Z" fill="#141414"/>
<path d="M1460.42 3890.12L1492.93 3906.15C1493.86 3906.61 1494.56 3906.37 1495.02 3905.44L1591.96 3708.12C1592.33 3707.38 1592.14 3706.82 1591.4 3706.45L1559.16 3690.56C1558.42 3690.19 1557.86 3690.38 1557.49 3691.13L1459.99 3888.17C1459.53 3889.1 1459.67 3889.75 1460.42 3890.12Z" fill="#141414"/>
<path d="M1675.65 3986.57L1641.53 3974.34C1640.74 3974.06 1640.53 3973.43 1640.88 3972.45L1715.61 3765.7C1715.89 3764.91 1716.42 3764.66 1717.21 3764.94L1778.11 3786.76C1788.99 3790.66 1798.05 3796.89 1805.27 3805.45C1812.49 3814.02 1817.2 3823.73 1819.4 3834.58C1821.69 3845.47 1820.82 3856.56 1816.78 3867.83C1814.14 3875.19 1810.63 3881.45 1806.23 3886.63C1801.83 3891.8 1797.37 3895.9 1792.86 3898.93C1788.44 3902 1784.66 3904.07 1781.5 3905.15C1788.06 3921.11 1788.43 3937.24 1782.6 3953.51L1760.76 4015.4C1760.41 4016.38 1759.74 4016.69 1758.76 4016.34L1724.64 4004.12C1723.85 4003.84 1723.57 4003.4 1723.78 4002.81L1746.12 3940.44C1748.72 3933.19 1748.42 3926 1745.22 3918.88C1742.01 3911.75 1736.69 3906.86 1729.23 3904.19L1709.38 3897.07L1677.36 3985.52C1677.01 3986.5 1676.44 3986.85 1675.65 3986.57ZM1765.2 3822.8L1739.31 3813.52L1722.34 3860.89L1748.23 3870.16C1754.41 3872.38 1760.72 3872.04 1767.18 3869.15C1773.73 3866.3 1778.2 3861.54 1780.59 3854.87C1782.88 3848.5 1782.49 3842.16 1779.44 3835.87C1776.41 3829.47 1771.67 3825.12 1765.2 3822.8Z" fill="#141414"/>
<path d="M1951.27 3838.26L1986.72 3845.83C1987.74 3846.04 1988.14 3846.66 1987.92 3847.68L1941.72 4062.62C1941.55 4063.43 1941.06 4063.75 1940.24 4063.58L1905.09 4056.08C1904.28 4055.9 1903.96 4055.41 1904.13 4054.59L1949.72 3839.53C1949.94 3838.51 1950.46 3838.09 1951.27 3838.26Z" fill="#141414"/>
<path d="M2126.79 4093.55L2090.65 4090.77C2089.82 4090.71 2089.44 4090.16 2089.52 4089.12L2106.95 3870.28C2107.03 3869.24 2107.48 3868.75 2108.31 3868.82L2144.15 3871.57C2144.98 3871.63 2145.35 3872.18 2145.27 3873.22L2139.47 3948.78L2195.31 3876.75C2196.2 3875.98 2197.01 3875.63 2197.74 3875.68L2234.35 3878.49C2235.28 3878.56 2235.46 3878.99 2234.88 3879.79L2172.97 3963.57L2224.72 4099.81C2225.18 4100.68 2224.63 4101.06 2223.07 4100.94L2184.12 4097.95C2183.08 4097.87 2182.49 4097.4 2182.35 4096.56L2146.39 3999.46L2133.99 4016.06L2128.16 4092.08C2128.08 4093.12 2127.62 4093.61 2126.79 4093.55Z" fill="#141414"/>
<path d="M2458.33 4096.17L2355.06 4102.07C2354.22 4102.11 2353.78 4101.62 2353.72 4100.58L2341.49 3881.07C2341.44 3880.24 2341.84 3879.8 2342.67 3879.75L2445.31 3873.89C2446.15 3873.84 2446.59 3874.34 2446.65 3875.38L2448.69 3911.1C2448.74 3911.93 2448.35 3912.37 2447.51 3912.42L2382 3916.16L2384.85 3966.08L2450.37 3962.34C2451.2 3962.29 2451.64 3962.68 2451.69 3963.52L2454.07 3999.69C2454.11 4000.52 2453.72 4000.96 2452.89 4001.01L2387.06 4004.77L2390.25 4060.62L2456.08 4056.85C2456.91 4056.81 2457.36 4057.3 2457.42 4058.34L2459.5 4094.85C2459.55 4095.68 2459.16 4096.12 2458.33 4096.17Z" fill="#141414"/>
<path d="M2632.34 4072.48L2667.64 4064.94C2668.56 4064.75 2668.91 4064.14 2668.69 4063.12L2630.59 3884.65L2671.23 3875.97C2672.25 3875.75 2672.65 3875.13 2672.43 3874.11L2664.66 3839.19C2664.48 3838.37 2663.99 3838.05 2663.17 3838.22L2544.29 3863.61C2543.17 3863.84 2542.7 3864.37 2542.87 3865.19L2550.34 3900.18C2550.56 3901.2 2551.08 3901.62 2551.89 3901.45L2593 3892.67L2630.79 4071.21C2631.01 4072.23 2631.53 4072.65 2632.34 4072.48Z" fill="#141414"/>
<path d="M2858.36 4015.28L2892.49 4003.05C2893.47 4002.7 2893.79 4002.03 2893.43 4001.05L2818.99 3794.19C2818.71 3793.41 2818.18 3793.16 2817.39 3793.44L2783.56 3805.56C2782.78 3805.84 2782.52 3806.37 2782.81 3807.16L2856.66 4014.23C2857.01 4015.21 2857.58 4015.56 2858.36 4015.28Z" fill="#141414"/>
<path d="M3082.37 3928L3115.3 3911.76C3115.95 3911.44 3116.1 3910.91 3115.73 3910.16L3075.23 3828.74L3056.47 3693.91C3056.29 3693.07 3055.83 3692.83 3055.08 3693.2L3023.13 3708.96C3022.19 3709.42 3021.82 3710.07 3022 3710.91L3038.92 3798.56L2979.26 3731.99C2978.7 3731.33 2978.05 3731.19 2977.3 3731.56L2945.07 3747.45C2944.32 3747.82 2944.23 3748.33 2944.78 3748.99L3040.2 3844.62L3080.69 3927.44C3081.06 3928.18 3081.62 3928.37 3082.37 3928Z" fill="#141414"/>
<path d="M3252.42 3833.69L3162.71 3629.1C3162.42 3628.29 3162.62 3627.65 3163.31 3627.19L3201.82 3601.3C3202.52 3600.83 3203.18 3600.89 3203.82 3601.46L3358.11 3762.65C3358.78 3763.45 3358.72 3764.12 3357.94 3764.64L3328.51 3784.43C3327.64 3785.01 3326.88 3784.9 3326.21 3784.09L3310.28 3766.56L3274.1 3790.88L3284.32 3812.25C3284.82 3813.17 3284.68 3813.89 3283.9 3814.41L3254.33 3834.29C3253.64 3834.75 3253 3834.55 3252.42 3833.69ZM3224.86 3674.49L3216.68 3665.68L3222.13 3676.32L3260.33 3758.9L3285.87 3741.73L3224.86 3674.49Z" fill="#141414"/>
<path d="M4359 2299.5C4359 3436.93 3436.93 4359 2299.5 4359C1162.07 4359 240 3436.93 240 2299.5C240 1162.07 1162.07 240 2299.5 240C3436.93 240 4359 1162.07 4359 2299.5Z" stroke="#141414" stroke-width="58"/>
</svg>
