<svg width="32" height="32" viewBox="0 0 32 32" fill="none" xmlns="http://www.w3.org/2000/svg">
<path d="M13.9135 4.1948C14.7707 2.47144 17.2293 2.47144 18.0865 4.1948V4.1948C18.6675 5.36293 20.0943 5.82651 21.2509 5.22299V5.22299C22.9574 4.33261 24.9464 5.77772 24.6269 7.67579V7.67579C24.4104 8.96234 25.2922 10.176 26.5827 10.3676V10.3676C28.4866 10.6503 29.2463 12.9886 27.8722 14.3363V14.3363C26.9408 15.2499 26.9408 16.7501 27.8722 17.6637V17.6637C29.2463 19.0114 28.4866 21.3497 26.5827 21.6324V21.6324C25.2922 21.824 24.4104 23.0377 24.6269 24.3242V24.3242C24.9464 26.2223 22.9574 27.6674 21.2509 26.777V26.777C20.0943 26.1735 18.6675 26.6371 18.0865 27.8052V27.8052C17.2293 29.5286 14.7707 29.5286 13.9135 27.8052V27.8052C13.3325 26.6371 11.9057 26.1735 10.7491 26.777V26.777C9.04262 27.6674 7.0536 26.2223 7.37308 24.3242V24.3242C7.58964 23.0377 6.70784 21.824 5.41734 21.6324V21.6324C3.51344 21.3497 2.7537 19.0114 4.12783 17.6637V17.6637C5.05924 16.7501 5.05924 15.2499 4.12783 14.3363V14.3363C2.7537 12.9886 3.51344 10.6503 5.41734 10.3676V10.3676C6.70784 10.176 7.58964 8.96234 7.37308 7.67579V7.67579C7.0536 5.77772 9.04262 4.33261 10.7491 5.22299V5.22299C11.9057 5.82651 13.3325 5.36293 13.9135 4.1948V4.1948Z" fill="#3C9A9A"/>
</svg>
