<svg width="342" height="192" viewBox="0 0 342 192" fill="none" xmlns="http://www.w3.org/2000/svg">
<path d="M170.533 45.0317C198.813 45.0317 221.733 67.9517 221.733 96.2317C221.733 124.512 198.813 147.432 170.533 147.432C142.253 147.432 119.333 124.512 119.333 96.2317C119.333 67.9517 142.253 45.0317 170.533 45.0317ZM165.733 69.0317V96.2317C165.733 97.8317 166.533 99.3317 167.873 100.232L187.073 113.032C189.273 114.512 192.253 113.912 193.733 111.692C195.213 109.472 194.613 106.512 192.393 105.032L175.333 93.6717V69.0317C175.333 66.3717 173.193 64.2317 170.533 64.2317C167.873 64.2317 165.733 66.3717 165.733 69.0317Z" fill="#3C9A9A"/>
</svg>
