<svg width="342" height="192" viewBox="0 0 342 192" fill="none" xmlns="http://www.w3.org/2000/svg">
<path d="M239.88 124.772L238.734 137.722C238.15 144.324 232.325 149.201 225.724 148.618L201.816 146.503C195.215 145.919 190.337 140.094 190.921 133.493L192.066 120.543L239.88 124.772ZM258.211 31.0229L257.506 38.9917L240.408 118.795L192.595 114.566L189.771 33.0005L190.476 25.0317L258.211 31.0229ZM219.257 85.5298C218.261 85.4418 217.373 86.1851 217.285 87.1812L216.965 90.8022C216.877 91.7983 217.62 92.6858 218.616 92.7739C219.612 92.862 220.5 92.1195 220.588 91.1235L220.908 87.5015C220.996 86.5054 220.253 85.6179 219.257 85.5298ZM231.104 82.8354C230.478 82.0688 229.319 81.9664 228.551 82.6099C227.782 83.2537 227.679 84.4129 228.324 85.1636L230.652 87.9429C231.296 88.7116 232.455 88.8139 233.206 88.1685C233.974 87.5246 234.077 86.3663 233.432 85.6157L231.104 82.8354ZM210.619 81.0425C209.974 80.2918 208.816 80.1714 208.065 80.8169L205.286 83.144C204.517 83.7879 204.415 84.9471 205.061 85.6978C205.686 86.4646 206.845 86.567 207.613 85.9233L210.393 83.5962C211.161 82.9524 211.264 81.7932 210.619 81.0425ZM221.34 61.9849C215.345 61.4546 210.042 65.8963 209.512 71.8911C208.982 77.8857 213.422 83.1889 219.417 83.7192C225.412 84.2495 230.715 79.8078 231.245 73.813C231.775 67.8184 227.334 62.5152 221.34 61.9849ZM235.028 72.3228C234.032 72.2347 233.145 72.9772 233.057 73.9731C232.969 74.9693 233.712 75.8567 234.708 75.9448L238.329 76.2651C239.325 76.3532 240.213 75.6099 240.301 74.6138C240.389 73.6179 239.645 72.7312 238.649 72.6431L235.028 72.3228ZM202.428 69.439C201.432 69.3509 200.544 70.0935 200.456 71.0894C200.368 72.0855 201.111 72.9729 202.107 73.061L205.729 73.3813C206.724 73.4694 207.612 72.7269 207.7 71.731C207.788 70.735 207.046 69.8476 206.05 69.7593L202.428 69.439ZM235.697 60.0063C235.053 59.2377 233.912 59.137 233.144 59.7808L230.362 62.1265C229.594 62.7703 229.493 63.9114 230.137 64.6802C230.781 65.4488 231.922 65.5495 232.69 64.9058L235.471 62.5601C236.239 61.9163 236.341 60.7752 235.697 60.0063ZM210.086 57.7593C209.46 56.9923 208.299 56.908 207.532 57.5337C206.765 58.1595 206.663 59.3188 207.307 60.0874L209.653 62.8677C210.279 63.6347 211.42 63.7176 212.188 63.0923C212.955 62.4665 213.058 61.3074 212.414 60.5386L210.086 57.7593ZM222.141 52.9302C221.145 52.8421 220.257 53.5846 220.169 54.5806L219.849 58.2026C219.761 59.1987 220.504 60.0862 221.5 60.1743C222.496 60.2624 223.384 59.519 223.472 58.5229L223.792 54.9009C223.88 53.9049 223.137 53.0183 222.141 52.9302Z" fill="#3C9A9A"/>
<path d="M102.757 49.4973L121.848 47.4502C125.368 47.0728 128.516 49.6115 128.894 53.1314C129.271 56.6512 126.732 59.7998 123.212 60.1772L104.122 62.2244C100.602 62.6018 97.4535 60.063 97.076 56.5432C96.6986 53.0234 99.2374 49.8748 102.757 49.4973ZM87.4197 86.5438C86.6669 79.524 91.7622 73.2047 98.782 72.452L130.6 69.0402C137.619 68.2874 143.939 73.3827 144.691 80.4024C145.205 85.195 143.008 89.6546 139.323 92.2423C143.473 93.9898 146.566 97.8822 147.08 102.675C147.594 107.467 145.397 111.927 141.711 114.515C145.861 116.262 148.954 120.155 149.468 124.947C149.982 129.74 147.785 134.199 144.1 136.787C148.25 138.534 151.342 142.427 151.856 147.219C152.609 154.239 147.514 160.558 140.494 161.311L108.676 164.723C101.657 165.476 95.3373 160.38 94.5846 153.361C94.0706 148.568 96.2677 144.109 99.9528 141.521C95.8028 139.773 92.7102 135.881 92.1963 131.088C91.6823 126.296 93.8794 121.836 97.5645 119.249C93.4145 117.501 90.3219 113.609 89.808 108.816C89.2941 104.024 91.4911 99.5639 95.1762 96.9762C91.0262 95.2288 87.9336 91.3363 87.4197 86.5438Z" fill="#3C9A9A"/>
</svg>
