<svg width="342" height="192" viewBox="0 0 342 192" fill="none" xmlns="http://www.w3.org/2000/svg">
<path d="M121.555 59.3279C116.196 60.7639 110.692 57.5862 109.256 52.2271L102.769 53.9653C100.708 54.5177 98.9496 55.8598 97.8846 57.7045L72.1598 102.26C71.0504 104.181 71.71 106.643 73.6316 107.752L81.417 112.267C83.3387 113.377 85.8003 112.717 86.9097 110.795L105.781 78.1089L113.059 105.268C114.206 109.548 118.618 112.095 122.898 110.948L134.537 107.829L134.648 107.8L146.201 104.704C150.481 103.557 153.028 99.1453 151.881 94.8654L144.604 67.7063L177.292 86.5777C179.213 87.6871 181.675 87.0275 182.784 85.1059L187.269 77.3033C188.379 75.3816 187.719 72.92 185.798 71.8105L141.242 46.087C139.397 45.0219 137.203 44.7388 135.141 45.2911L128.655 47.029C130.091 52.388 126.914 57.8919 121.555 59.3279Z" fill="#3C9A9A"/>
<path d="M191.869 147.751C178.981 136.074 196.508 105.715 201.74 96.6536L209.74 82.7972C214.972 73.7358 238.332 33.2745 255.504 37.5317L191.869 147.751Z" fill="#3C9A9A"/>
<path d="M260.7 40.5317C272.973 53.2742 249.613 93.7358 244.381 102.797L236.381 116.654C235.123 118.832 233.152 122.241 230.657 126.09C232.89 131.001 233.575 135.514 232.426 137.504C231.321 139.417 228.876 140.071 226.963 138.967C225.741 138.262 224.835 137.231 223.59 135.971C216.019 145.43 206.389 153.748 197.065 150.75L260.7 40.5317Z" fill="#3C9A9A"/>
</svg>
